<svg fill="none" height="22" viewBox="0 0 31 22" width="31" xmlns="http://www.w3.org/2000/svg"><path d="m.838715 2c0-1.10457.895435-2 1.999995-2h25.99999c1.1046 0 2 .895431 2 2v18c0 1.1046-.8954 2-2 2h-25.99999c-1.10457 0-1.999995-.8954-1.999995-2z" fill="#f8f8f8"/><g fill="#b3b3b3"><path d="m11.8387 9.18164h-2.18181v9.45466h2.18181z"/><path d="m15.4752 9.18164h-2.1819v9.45466h2.1819z"/><path d="m19.1116 9.18164h-2.1819v9.45466h2.1819z"/><path d="m22.7479 9.18164h-2.1818v9.45466h2.1818z"/></g><path d="m24.3767 7.4079-8.0001-4.36369c-.1086-.05895-.2397-.05895-.3483 0l-8.00013 4.36369c-.11683.06357-.18946.18608-.18946.31925v2.18184c0 .20101.16282.36361.36365.36361h16.00014c.2009 0 .3637-.1626.3637-.36361v-2.18184c0-.13317-.0726-.25568-.1895-.31925z" fill="#e6e6e6"/><path d="m24.2025 17.5454h-16.00014c-.20083 0-.36365.1627-.36365.3637v.7272c0 .201.16282.3637.36365.3637h16.00014c.2009 0 .3637-.1627.3637-.3637v-.7272c0-.201-.1628-.3637-.3637-.3637z" fill="#e6e6e6"/><path d="m16.2025 8.45453c.8033 0 1.4545-.65123 1.4545-1.45456s-.6512-1.45456-1.4545-1.45456c-.8034 0-1.4546.65123-1.4546 1.45456s.6512 1.45456 1.4546 1.45456z" fill="#b3b3b3"/><path d="m9.65689 10.2726v1.0909h2.18181v-1.0909z" fill="#939393"/><path d="m13.2933 10.2726v1.0909h2.1819v-1.0909z" fill="#939393"/><path d="m16.9297 10.2726v1.0909h2.1819v-1.0909z" fill="#939393"/><path d="m20.5661 10.2726v1.0909h2.1818v-1.0909z" fill="#939393"/></svg>