<svg fill="none" height="32" viewBox="0 0 188 32" width="188" xmlns="http://www.w3.org/2000/svg"><path d="m2.66669 4.91666h26.66671c.9665 0 1.75.7835 1.75 1.75v18.66664c0 .9665-.7835 1.75-1.75 1.75h-26.66671c-.9665 0-1.750003-.7835-1.750003-1.75v-18.66664c0-.9665.783503-1.75 1.750003-1.75z" fill="#fff" stroke="#dbdfe7" stroke-width=".5"/><g fill="#1a1876"><path d="m12.8254 19.2h1.7393l1.0887-6.384h-1.74z"/><path d="m19.162 15.3793c-.608-.2953-.9806-.4927-.9766-.7913 0-.2667.3153-.5494 1-.5494.5044-.0126 1.0045.0965 1.458.318l.236-1.3833c-.5002-.1804-1.0284-.2707-1.56-.2667-1.7194 0-2.9334.8667-2.9407 2.1067-.0093.9173.8667 1.4293 1.5247 1.7333.6773.3127.9053.512.902.7914-.0047.428-.5407.624-1.0414.624-.6477.0151-1.2885-.1352-1.862-.4367l-.244 1.4287c.6203.2292 1.2768.3446 1.938.3406 1.8294 0 3.0167-.856 3.03-2.1806.0034-.7267-.46-1.2794-1.464-1.7347z"/><path d="m25.338 12.822h-1.3447c-.1889-.0242-.3806.0145-.5454.1102-.1647.0957-.2933.243-.3659.4191l-2.584 5.8487h1.8273s.2987-.7867.366-.9593h2.2287c.052.224.212.9566.212.9566h1.6147zm-2.1453 4.1153c.072-.1846.782-2.008.924-2.394.2346 1.1.006.0327.52 2.394z"/><path d="m11.366 12.8206-1.70398 4.3534-.18133-.8847-.61-2.9333c-.04446-.17-.14882-.3181-.29386-.4172-.14503-.0991-.32099-.1425-.49547-.1222h-2.806l-.022.1334c.63799.1505 1.25284.3862 1.828.7006l1.54666 5.5447h1.84138l2.7393-6.372z"/></g><path d="m39.8333 4.91666h28.3334c1.05 0 1.875.79756 1.875 1.75v18.66664c0 .9525-.825 1.75-1.875 1.75h-28.3334c-1.05 0-1.875-.7975-1.875-1.75v-18.66664c0-.95244.825-1.75 1.875-1.75z" fill="#fff" stroke="#dbdfe7" stroke-width=".5"/><path d="m50.4583 21.3333c3.1296 0 5.6667-2.3878 5.6667-5.3333s-2.5371-5.3333-5.6667-5.3333-5.6667 2.3878-5.6667 5.3333 2.5371 5.3333 5.6667 5.3333z" fill="#e61c24"/><path d="m57.4949 21.3333c3.1296 0 5.6667-2.3878 5.6667-5.3333s-2.5371-5.3333-5.6667-5.3333-5.6667 2.3878-5.6667 5.3333 2.5371 5.3333 5.6667 5.3333z" fill="#f99f1b"/><path d="m53.9766 11.824c-.6697.4983-1.2109 1.1329-1.583 1.8561s-.5654 1.5163-.5654 2.3199c0 .8035.1933 1.5966.5654 2.3199.3721.7232.9133 1.3577 1.583 1.8561.6698-.4984 1.211-1.1329 1.583-1.8561.3721-.7233.5654-1.5164.5654-2.3199 0-.8036-.1933-1.5967-.5654-2.3199-.372-.7232-.9132-1.3578-1.583-1.8561z" fill="#f26622"/><path d="m78.6667 4.91666h26.6663c.967 0 1.75.7834 1.75 1.75v18.66664c0 .9666-.783 1.75-1.75 1.75h-26.6663c-.9666 0-1.75-.7834-1.75-1.75v-18.66664c0-.9666.7834-1.75 1.75-1.75z" fill="#fff" stroke="#dbdfe7" stroke-width=".5"/><path d="m83.022 16.286h1.5533l-.7767-1.9047zm21.645-3.6193h-3.98l-.9704 1.0473-.874-1.0473h-8.444l-.7766 1.714-.7767-1.714h-3.3973v.762l-.388-.762h-2.912l-2.8147 6.6666h3.3973l.388-1.0473h.9707l.388 1.0473h3.7853v-.762l.2914.762h1.9413l.2913-.8573v.8573h7.7654l.9706-1.0473.8734 1.0473h3.979l-2.523-3.3333zm-11.745 5.714h-1.068v-3.714l-1.65 3.714h-.9707l-1.65-3.714v3.714h-2.2327l-.388-1.0474h-2.3293l-.388 1.0474h-1.262l2.038-4.762h1.65l1.844 4.476v-4.476h1.844l1.456 3.238 1.3587-3.238h1.844v4.762zm9.609 0h-1.456l-1.2617-1.6194-1.456 1.6194h-4.368v-4.762h4.4647l1.3586 1.524 1.4564-1.524h1.358l-2.134 2.3813zm-7.4737-3.8094v.8574h2.4267v.9526h-2.4267v.952h2.718l1.262-1.4286-1.1647-1.3334z" fill="#007ac6"/><path d="m113 12h4v8h-4z" fill="#fff"/><path d="m124.135 7 2.837 4.7186-4.972 4.711h8.596l.808-1.8881h-4.743l2.87-2.8354-1.677-2.81856h7.821l-6.865 16.11246h2.352l7.677-18z" fill="#00cdff"/><path d="m143.839 12h4v8h-4z" fill="#fff"/><path clip-rule="evenodd" d="m161.614 11.2363h5.642c3.028 0 4.169 1.3798 3.993 3.4104-.291 3.3474-2.54 5.1984-5.522 5.1984h-1.506c-.409 0-.684.2432-.795.9041l-.646 3.8374c-.042.2493-.188.3957-.407.4134h-3.537c-.333 0-.451-.2292-.364-.7256l2.16-12.3099c.086-.4933.386-.7282.982-.7282z" fill="#009de2" fill-rule="evenodd"/><path clip-rule="evenodd" d="m158.087 7h5.647c1.591 0 3.477.04647 4.739 1.04813.843.66913 1.285 1.73519 1.183 2.87967-.346 3.8809-2.925 6.0545-6.384 6.0545h-2.785c-.474 0-.789.2827-.922 1.0484l-.777 4.4497c-.051.2887-.19.4588-.444.4793h-3.478c-.386 0-.524-.2657-.423-.8413l2.505-14.27401c.101-.57202.448-.84439 1.139-.84439z" fill="#113984" fill-rule="evenodd"/><path clip-rule="evenodd" d="m159.646 17.5821.986-5.6176c.086-.4934.386-.7282.982-.7282h5.642c.934 0 1.688.1312 2.279.3731-.566 3.4538-3.049 5.3729-6.299 5.3729h-2.785c-.367 0-.641.1686-.805.5998z" fill="#172c70" fill-rule="evenodd"/><path d="m182.884 17.041v2.9736h-1.012v-2.9736h-2.974v-1.0117h2.974v-2.9736h1.012v2.9736h2.973v1.0117z" fill="#8591a5"/></svg>