<svg fill="none" height="82" viewBox="0 0 282 82" width="282" xmlns="http://www.w3.org/2000/svg"><circle cx="141" cy="41" fill="#f8f8f8" r="41"/><g stroke="#0f264e" stroke-miterlimit="10"><g opacity=".2" stroke-linecap="round" stroke-linejoin="round"><path d="m271.25 34.25c0-2.2 1.8-4 4-4s4 1.8 4 4-1.8 4-4 4"/><path d="m275.25 34.25h-14v6c0 3.85 3.15 7 7 7s7-3.15 7-7z"/><path d="m268.25 47.25v5"/><path d="m264.25 52.25h8"/><path d="m267.25 41.25-3-11h-3"/></g><g opacity=".2" stroke-linecap="round" stroke-linejoin="round"><path d="m12.25 47.25c2.2091 0 4-1.7909 4-4s-1.7909-4-4-4-4 1.7909-4 4 1.7909 4 4 4z"/><path d="m12.25 32.25v3"/><path d="m18.95 36.55-1.05 1.05"/><path d="m18.95 49.95-1.05-1.05"/><path d="m5.55 49.95 1.05-1.05"/><path d="m5.55 36.55 1.05 1.05"/><path d="m23.25 43.25h-3"/><path d="m12.25 54.25v-3"/><path d="m1.25 43.25h3"/></g><g opacity=".5" stroke-linecap="round" stroke-linejoin="round"><path d="m232.375 33.875c2.485 0 4.5-2.0147 4.5-4.5s-2.015-4.5-4.5-4.5-4.5 2.0147-4.5 4.5 2.015 4.5 4.5 4.5z"/><path d="m236.875 48.875h-12"/><path d="m218.875 57.875v-6l-4.5-5.1-4.5 5.1v6"/><path d="m214.375 36.875 10.5 12v9"/><path d="m203.875 57.875v-9l10.5-12h12l10.5 12v9z"/></g><path d="m128.5 62.5h-7v-12c0-2.2 1.8-4 4-4h3" stroke-linecap="round" stroke-linejoin="round"/><path d="m156.5 62.5h7v-12c0-2.2-1.8-4-4-4h-3" stroke-linecap="round" stroke-linejoin="round"/><path d="m148.5 25.5v-6h-12v6" stroke-linecap="round" stroke-linejoin="round"/><path d="m156.5 62.5h-28v-29c0-4.4 3.6-8 8-8h12c4.4 0 8 3.6 8 8z" stroke-linecap="round" stroke-linejoin="round"/><path d="m156.5 38.5c0 4.4-3.6 8-8 8h-12c-4.4 0-8-3.6-8-8" stroke-linecap="round" stroke-linejoin="round"/><path d="m136.5 62.5v-6-4-6" stroke-linecap="round" stroke-linejoin="round"/><path d="m148.5 62.5v-6-4-6" stroke-linecap="round" stroke-linejoin="round"/><path d="m134.5 54.5h4" stroke-linecap="round" stroke-linejoin="round"/><path d="m146.5 54.5h4" stroke-linecap="round" stroke-linejoin="round"/><g opacity=".5" stroke-linecap="square"><path d="m75.2288 48.3333v-17.7222c0-.8901-.721-1.6111-1.6111-1.6111h-24.1667c-.8901 0-1.6111.721-1.6111 1.6111v17.7222"/><path d="m75.2288 48.333h-27.3889l-3.6677 7.3354c-.5357 1.0706.2433 2.3313 1.4411 2.3313h31.842c1.1979 0 1.9769-1.2607 1.4412-2.3313z"/><path d="m70.3954 33.833h-17.7222v9.6667h17.7222z"/></g></g></svg>