<svg width="41" height="44" viewBox="0 0 41 44" fill="none" xmlns="http://www.w3.org/2000/svg"><path d="M20.711 36.783L37.693 43l2.73-7.43-8.34-3.032" fill="#EEEFF0"/><path d="M20.711 36.783L37.693 43l2.73-7.43-8.34-3.032" stroke="#0F264E" stroke-miterlimit="10" stroke-linecap="round" stroke-linejoin="round"/><path d="M26.018 31.325L3.729 22.227 1 29.505l25.776 9.4" fill="#EEEFF0"/><path d="M26.018 31.325L3.729 22.227 1 29.505l25.776 9.4M20.71 22.227c-2.577 0-4.548-1.97-4.548-4.548.152-1.213 1.971-4.246 4.549-7.43 2.577 3.184 4.397 6.217 4.549 7.581 0 2.426-1.972 4.397-4.55 4.397z" stroke="#0F264E" stroke-miterlimit="10" stroke-linecap="round" stroke-linejoin="round"/><path d="M27.23 26.018l10.463-3.79 2.73 7.277L3.728 43 1 35.57l20.014-7.278" fill="#fff"/><path d="M27.23 26.018l10.463-3.79 2.73 7.277L3.728 43 1 35.57l20.014-7.278" stroke="#0F264E" stroke-miterlimit="10" stroke-linecap="round" stroke-linejoin="round"/><path d="M31.324 17.679C31.324 11.765 20.711 1 20.711 1S10.097 11.765 10.097 17.679c0 5.913 4.7 10.613 10.614 10.613 5.913 0 10.613-4.7 10.613-10.613z" stroke="#0F264E" stroke-miterlimit="10" stroke-linecap="round" stroke-linejoin="round"/></svg>
