<svg width="24" height="24" viewBox="0 0 24 24" fill="none" xmlns="http://www.w3.org/2000/svg"><g clip-path="url(#clip0)"><path d="M20.5 4.5L16 9l1 1.5.5 2.5-1.5 3 4.5 4.5 3-5.5-.5-5.5-2.5-5zM4.5 4.5L9 9l-1 1.5-.5 2.5L9 16l-4.5 4.5-3-5.5.5-5.5 2.5-5z" fill="#EEEFF0"/><path d="M20.278 4.722l-4.242 4.242M20.278 20.278l-4.242-4.242M4.722 20.278l4.242-4.242M4.722 4.722l4.242 4.242M20.278 20.278c4.296-4.296 4.296-11.26 0-15.556-4.296-4.296-11.26-4.296-15.556 0-4.296 4.296-4.296 11.26 0 15.556 4.295 4.296 11.26 4.296 15.556 0z" stroke="#111" stroke-miterlimit="10" stroke-linecap="round" stroke-linejoin="round"/><path d="M16.035 16.035a5 5 0 10-7.07-7.07 5 5 0 007.07 7.07z" stroke="#111" stroke-miterlimit="10" stroke-linecap="round" stroke-linejoin="round"/></g><defs><clipPath id="clip0"><path fill="#fff" d="M0 0h24v24H0z"/></clipPath></defs></svg>