<svg width="192" height="27" viewBox="0 0 192 27" fill="none" xmlns="http://www.w3.org/2000/svg">
<path fill-rule="evenodd" clip-rule="evenodd" d="M40.8137 1.32544C40.1716 1.32544 39.651 1.84598 39.651 2.48809V24.7563C39.651 25.3985 40.1716 25.919 40.8137 25.919H43.139C43.7811 25.919 44.3016 25.3985 44.3016 24.7563V2.48809C44.3016 1.84598 43.7811 1.32544 43.139 1.32544H40.8137ZM17.527 1.79946C21.1371 -0.960928 38.3562 9.07671 38.3562 12.8412C38.3562 19.3659 21.7932 28.076 19.0327 25.6402C15.0174 22.0973 13.2607 5.06159 17.527 1.79946Z" fill="white" fill-opacity="0.6"/>
<path d="M23.2991 12.8413C23.2991 9.07685 6.07998 -0.96079 2.46986 1.7996C-1.79646 5.06173 -0.0397038 22.0975 3.97556 25.6404C6.73606 28.0761 23.2991 19.366 23.2991 12.8413Z" fill="white"/>
<path d="M47.9128 22.9999H51.5705V13.5615C51.5705 12.2826 51.4682 10.3642 51.4682 10.3642H51.5194C51.5194 10.3642 52.2356 11.9245 52.8239 12.8965L59.065 22.9999H62.646V4.71143H58.9883V14.3033C58.9883 15.5822 59.0906 17.475 59.0906 17.475H59.0394C59.0394 17.475 58.3488 15.9147 57.7605 14.9172L51.6729 4.71143H47.9128V22.9999Z" fill="white"/>
<path d="M71.4473 23.3836C74.8236 23.3836 76.8954 21.4141 77.3814 19.0864H73.9539C73.5702 20.084 72.7773 20.6979 71.4217 20.6979C69.4521 20.6979 68.3267 19.4445 68.0709 17.4238H77.586C77.586 12.743 75.3352 9.52015 71.1147 9.52015C67.278 9.52015 64.6434 12.5384 64.6434 16.4263C64.6434 20.3398 67.0989 23.3836 71.4473 23.3836ZM71.1659 12.2059C72.7517 12.2059 73.8516 13.3569 73.9539 15.0195H68.1221C68.429 13.3057 69.3242 12.2059 71.1659 12.2059Z" fill="white"/>
<path d="M77.6172 22.9999H81.4284L84.2675 18.6516H84.3187L86.7486 22.9999H90.8923L86.2115 16.017L90.2784 9.87825H86.6719L84.4722 13.6383H84.421L82.0934 9.87825H78.1287L82.4003 16.0426L77.6172 22.9999Z" fill="white"/>
<path d="M91.0757 12.1803H92.8918V19.8794C92.8918 22.3605 94.759 23.0255 96.4472 23.0255C97.8284 23.0255 98.6213 22.9743 98.6213 22.9743V20.4165C98.6213 20.4165 98.033 20.4421 97.5982 20.4421C96.8309 20.4421 96.2937 20.1096 96.2937 19.1376V12.1803H98.5446V9.87825H96.2937V5.78572H92.8918V9.87825H91.0757V12.1803Z" fill="white"/>
<path d="M100.734 22.9999H104.442V15.6589H107.435C109.737 15.6589 110.863 16.7844 111.016 18.7795C111.169 20.749 111.221 22.7953 111.681 22.9999H115.236V22.8209C114.597 22.5395 114.699 20.57 114.443 17.9866C114.213 15.7613 113.344 14.7893 111.655 14.3033V14.2266C114.009 13.5871 115.006 11.9501 115.006 9.80151C115.006 6.75769 112.653 4.71143 109.123 4.71143H100.734V22.9999ZM104.442 7.70409H108.484C110.453 7.70409 111.4 8.80396 111.4 10.2875C111.4 11.7455 110.402 12.7942 108.381 12.7942H104.442V7.70409Z" fill="white"/>
<path d="M123.269 23.3836C126.645 23.3836 128.717 21.4141 129.203 19.0864H125.775C125.392 20.084 124.599 20.6979 123.243 20.6979C121.274 20.6979 120.148 19.4445 119.892 17.4238H129.408C129.408 12.743 127.157 9.52015 122.936 9.52015C119.099 9.52015 116.465 12.5384 116.465 16.4263C116.465 20.3398 118.92 23.3836 123.269 23.3836ZM122.987 12.2059C124.573 12.2059 125.673 13.3569 125.775 15.0195H119.944C120.251 13.3057 121.146 12.2059 122.987 12.2059Z" fill="white"/>
<path d="M130.117 12.1803H131.933V19.8794C131.933 22.3605 133.8 23.0255 135.488 23.0255C136.869 23.0255 137.662 22.9743 137.662 22.9743V20.4165C137.662 20.4165 137.074 20.4421 136.639 20.4421C135.872 20.4421 135.335 20.1096 135.335 19.1376V12.1803H137.586V9.87825H135.335V5.78572H131.933V9.87825H130.117V12.1803Z" fill="white"/>
<path d="M142.844 9.87825H139.493V22.9999H142.972V16.6053C142.972 13.8429 144.609 12.6407 146.885 12.8709H146.962V9.82709C146.757 9.75035 146.527 9.72477 146.144 9.72477C144.609 9.72477 143.714 10.4921 142.921 11.9757H142.844V9.87825Z" fill="white"/>
<path d="M154.366 23.3836C157.743 23.3836 159.815 21.4141 160.301 19.0864H156.873C156.489 20.084 155.697 20.6979 154.341 20.6979C152.371 20.6979 151.246 19.4445 150.99 17.4238H160.505C160.505 12.743 158.254 9.52015 154.034 9.52015C150.197 9.52015 147.563 12.5384 147.563 16.4263C147.563 20.3398 150.018 23.3836 154.366 23.3836ZM154.085 12.2059C155.671 12.2059 156.771 13.3569 156.873 15.0195H151.041C151.348 13.3057 152.243 12.2059 154.085 12.2059Z" fill="white"/>
<path d="M170.493 22.9999H173.844V22.872C173.537 22.6418 173.384 22.0535 173.384 21.056V14.38C173.384 11.3106 171.798 9.54573 167.859 9.54573C164.022 9.54573 162.308 11.5664 162.206 13.8685H165.301C165.403 12.6151 166.196 12.0268 167.833 12.0268C169.291 12.0268 170.033 12.6407 170.033 13.5871C170.033 14.5847 169.035 14.7637 166.861 15.0706C163.945 15.4799 161.592 16.4007 161.592 19.2911C161.592 21.9001 163.485 23.3069 166.171 23.3069C168.422 23.3069 169.368 22.5395 170.033 21.542H170.084C170.161 22.1303 170.289 22.7441 170.493 22.9999ZM167.015 20.8769C165.787 20.8769 164.968 20.4421 164.968 19.2143C164.968 17.9866 165.864 17.5773 167.68 17.1681C168.549 16.9634 169.496 16.7588 170.11 16.4007V18.3702C170.11 19.6492 169.01 20.8769 167.015 20.8769Z" fill="white"/>
<path d="M174.694 12.1803H176.51V19.8794C176.51 22.3605 178.378 23.0255 180.066 23.0255C181.447 23.0255 182.24 22.9743 182.24 22.9743V20.4165C182.24 20.4165 181.652 20.4421 181.217 20.4421C180.449 20.4421 179.912 20.1096 179.912 19.1376V12.1803H182.163V9.87825H179.912V5.78572H176.51V9.87825H174.694V12.1803Z" fill="white"/>
<path d="M188.012 8.16694C190.193 8.16694 191.902 6.4904 191.902 4.22788C191.902 1.96536 190.193 0.288818 188.012 0.288818C185.831 0.288818 184.122 1.96536 184.122 4.22788C184.122 6.4904 185.831 8.16694 188.012 8.16694ZM188.012 7.56469C186.189 7.56469 184.838 6.14858 184.838 4.22788C184.838 2.32346 186.189 0.907348 188.012 0.907348C189.851 0.907348 191.186 2.32346 191.186 4.22788C191.186 6.14858 189.851 7.56469 188.012 7.56469ZM186.352 6.27879H187.475V4.76502H188.028C188.435 4.76502 188.647 4.94407 188.68 5.31844C188.728 5.72537 188.745 6.21369 188.859 6.27879H189.965V6.19741C189.803 6.11602 189.868 5.62771 189.77 5.10684C189.689 4.71619 189.542 4.47204 189.152 4.3581V4.32554C189.624 4.16277 189.868 3.80467 189.868 3.33264C189.868 2.55134 189.184 2.11185 188.37 2.11185H186.352V6.27879ZM187.475 3.0071H188.175C188.582 3.0071 188.761 3.16987 188.761 3.47913C188.761 3.7884 188.566 3.95117 188.175 3.95117H187.475V3.0071Z" fill="white"/>
</svg>
