<svg width="23" height="23" viewBox="0 0 23 23" fill="none" xmlns="http://www.w3.org/2000/svg"><path d="M12.875.875a9 9 0 019 9M17.375 9.875a4.5 4.5 0 00-4.5-4.5" stroke="#0F264E" stroke-miterlimit="10" stroke-linecap="round" stroke-linejoin="round"/><path d="M14.895 13.845l-1.712 2.14a18.058 18.058 0 01-6.417-6.418l2.14-1.712a1.454 1.454 0 00.42-1.725L7.375 1.74A1.454 1.454 0 005.68.92l-3.712.963A1.462 1.462 0 00.888 3.5 21.57 21.57 0 0019.25 21.86a1.462 1.462 0 001.615-1.079l.963-3.712a1.454 1.454 0 00-.817-1.694l-4.391-1.95a1.455 1.455 0 00-1.725.419v0z" fill="#EEEFF0" stroke="#0F264E" stroke-miterlimit="10" stroke-linecap="round" stroke-linejoin="round"/></svg>
