<svg width="16" height="16" viewBox="0 0 16 16" fill="none" xmlns="http://www.w3.org/2000/svg">
<path d="M9.25 1.25C10.8413 1.25 12.3674 1.88214 13.4926 3.00736C14.6179 4.13258 15.25 5.6587 15.25 7.25" stroke="#0F264E" stroke-miterlimit="10" stroke-linecap="round" stroke-linejoin="round"/>
<path d="M12.25 7.25C12.25 6.45435 11.9339 5.69129 11.3713 5.12868C10.8087 4.56607 10.0456 4.25 9.25 4.25" stroke="#0F264E" stroke-miterlimit="10" stroke-linecap="round" stroke-linejoin="round"/>
<path d="M10.5965 9.89643L9.45546 11.3229C7.6883 10.2843 6.21562 8.81159 5.17696 7.04443L6.60346 5.90343C6.77057 5.76957 6.88866 5.58415 6.93931 5.37612C6.98996 5.16808 6.97033 4.94913 6.88346 4.75343L5.58346 1.82593C5.49024 1.61591 5.32546 1.44583 5.11849 1.34602C4.91153 1.2462 4.67585 1.22313 4.45346 1.28093L1.97846 1.92293C1.74748 1.98324 1.54664 2.12619 1.41403 2.32469C1.28142 2.5232 1.22624 2.76346 1.25896 2.99993C1.69328 6.09282 3.12272 8.96024 5.33118 11.1687C7.53965 13.3772 10.4071 14.8066 13.5 15.2409C13.7364 15.2735 13.9765 15.2183 14.1749 15.0857C14.3733 14.9531 14.5162 14.7523 14.5765 14.5214L15.2185 12.0464C15.276 11.8242 15.2529 11.5888 15.1532 11.3821C15.0535 11.1754 14.8837 11.0107 14.674 10.9174L11.7465 9.61743C11.5509 9.53045 11.332 9.51065 11.124 9.56112C10.9159 9.61159 10.7305 9.72949 10.5965 9.89643Z" fill="#EEEFF0" stroke="#0F264E" stroke-miterlimit="10" stroke-linecap="round" stroke-linejoin="round"/>
</svg>
