<svg width="12" height="12" viewBox="0 0 12 12" fill="none" xmlns="http://www.w3.org/2000/svg"><g clip-path="url(#clip0)" fill="#C3C648"><path d="M10.35 1.65c-.675-.675-1.65-.675-2.325 0L6.9 2.775 3 .15C2.55-.075 1.95-.075 1.575.3L.3 1.65l4.65 3.075-1.2 1.2-1.125 1.8L.6 7.575c-.525-.075-.825.6-.45.9l1.2 1.2-.375.525c-.3.525.3 1.05.75.75l.525-.375 1.2 1.2a.524.524 0 00.9-.45L4.2 9.3l1.875-1.05 4.275-4.275c.675-.675.675-1.725 0-2.325zM10.05 6.375L8.1 8.325l2.25 3.375 1.275-1.275c.375-.375.45-.975.15-1.35l-1.725-2.7z"/></g><defs><clipPath id="clip0"><path fill="#fff" d="M0 0h12v12H0z"/></clipPath></defs></svg>