<svg width="28" height="23" viewBox="0 0 28 23" fill="none" xmlns="http://www.w3.org/2000/svg"><path d="M8.932 10.881l-.02.264c-.037.498-.52.94-1.01.925l-.258-.007c-.703-.022-1.321-.298-1.746-.779L3.906 9.026c-.4-.453-.605-1.062-.582-1.731l.013-.366c.018-.521.532-.993 1.042-.956L4.737 6c.655.047 1.227.319 1.627.772L8.357 9.03c.424.48.628 1.136.575 1.851z" fill="#A0C8FF"/><path d="M3.323 12.071H.547V4.298c0-.503.4-.91.892-.91h.991c.493 0 .893.407.893.91v7.773zM10.587 18.096h16.866v-4.014a.992.992 0 01-.982 1.002H9.922a.992.992 0 01-.982-1.002v-2.01H.547v6.024h10.04z" fill="#BDD3DD"/><path d="M27.454 12.896c0-.725-.393-1.395-1.025-1.724-.605-.316-1.54-.593-2.953-.593H8.94v3.503c0 .554.44 1.002.983 1.002H26.47a.992.992 0 00.983-1.002v-1.186z" fill="#A0C8FF"/><path d="M1.935 3.388c.766 0 1.388-.634 1.388-1.416 0-.781-.622-1.415-1.388-1.415-.767 0-1.388.634-1.388 1.415 0 .782.621 1.416 1.388 1.416zM.547 18.096v4h1.887s.268-2.885 1.673-4H.547zM27.454 18.096v4h-1.887s-.268-2.885-1.673-4h3.56z" fill="#9DA5BE"/><path d="M28 12.896c0-.945-.507-1.796-1.323-2.221-.832-.434-1.909-.654-3.201-.654H9.425a2.888 2.888 0 00-.662-1.363L6.771 6.399c-.493-.559-1.202-.898-1.995-.955l-.358-.026a1.383 1.383 0 00-.548.074V4.298c0-.418-.173-.796-.45-1.063.28-.343.45-.783.45-1.262C3.87.885 3.002 0 1.935 0 .868 0 0 .885 0 1.973c0 .48.169.92.449 1.262A1.477 1.477 0 000 4.298v17.798c0 .308.245.558.547.558h1.887a.551.551 0 00.545-.505c.065-.702.43-2.63 1.331-3.496h1.465c.302 0 .547-.25.547-.557a.552.552 0 00-.547-.558H1.094V12.63h7.3v1.453c0 .86.685 1.56 1.528 1.56h16.549c.147 0 .294-.022.435-.065v1.961h-3.013H10.587a.552.552 0 00-.547.558c0 .308.245.557.547.557H23.69c.898.863 1.265 2.793 1.331 3.496a.551.551 0 00.545.505h1.887c.302 0 .547-.25.547-.558v-9.2zM3.871 7.316c.008-.238-.024-.484.168-.659.193-.175.425-.118.66-.1.516.036.952.24 1.259.588L7.95 9.404c.323.366.478.876.436 1.436-.016.216-.012.407-.19.559-.163.14-.34.113-.536.107-.55-.017-1.032-.228-1.355-.594L4.313 8.654c-.323-.365-.459-.854-.442-1.339zm-2.777 4.198V4.298a.35.35 0 01.345-.352h.991a.35.35 0 01.346.352v7.216H1.094zM3.87 9.819l1.495 1.695H3.87V9.819zM1.935 1.115a.85.85 0 01.84.858.85.85 0 01-.84.857.85.85 0 01-.841-.857.85.85 0 01.84-.858zm.023 20.424h-.864v-2.886h1.834c-.592.988-.86 2.21-.97 2.886zm7.964-7.013a.44.44 0 01-.435-.444v-2.946h13.989c1.117 0 2.027.18 2.703.532.449.234.727.704.727 1.228v1.186a.44.44 0 01-.435.444H9.922zm16.12 7.013c-.11-.676-.378-1.898-.97-2.886h1.834v2.886h-.864z" fill="#000"/><path d="M8.685 17.882a.548.548 0 00-.714-.301.566.566 0 00-.296.728c.114.28.439.418.714.302a.567.567 0 00.296-.729z" fill="#000"/></svg>