<svg width="17" height="26" viewBox="0 0 17 26" fill="none" xmlns="http://www.w3.org/2000/svg">
<path d="M13.6626 6.17005C13.6626 3.1038 11.2245 0.618164 8.21704 0.618164C5.20954 0.618164 2.77148 3.1038 2.77148 6.17005C2.77148 9.23629 5.20954 11.7222 8.21704 11.7222C11.2245 11.7222 13.6626 9.23629 13.6626 6.17005Z" fill="#FFDDCF"/>
<path d="M15.8277 21.1513V22.2879C13.7078 23.9109 11.0723 24.872 8.21706 24.872C5.3618 24.872 2.72628 23.9107 0.606445 22.2879V13.6856C0.606445 12.6009 1.46877 11.7217 2.53283 11.7217H13.9015C14.9656 11.7217 15.8277 12.6009 15.8277 13.6856V15.5936" fill="#60A4FF"/>
<path d="M15.8274 16.2119C16.1622 16.2119 16.4335 15.9353 16.4335 15.5939V13.686C16.4335 12.2623 15.2975 11.104 13.9012 11.104H11.8465C13.3162 9.97732 14.2685 8.18479 14.2685 6.16992C14.2685 2.76786 11.5536 0 8.21677 0C4.87991 0 2.16506 2.76786 2.16506 6.16992C2.16506 8.18479 3.11737 9.97732 4.58702 11.104H2.53253C1.13604 11.104 0 12.2623 0 13.686V22.2879C0 22.4825 0.0897373 22.6655 0.24222 22.7824C2.55621 24.5539 5.31368 25.4904 8.21677 25.4904C11.1199 25.4904 13.8773 24.5539 16.1913 22.7824C16.3438 22.6655 16.4335 22.4825 16.4335 22.2879V21.1516C16.4335 20.8102 16.1622 20.5336 15.8274 20.5336C15.4926 20.5336 15.2213 20.8102 15.2213 21.1516V21.9746C13.1698 23.467 10.7545 24.2543 8.21677 24.2543C5.67879 24.2543 3.26369 23.467 1.21228 21.9746V13.686C1.21228 12.9439 1.80445 12.3401 2.5323 12.3401H13.9012C14.6291 12.3401 15.2213 12.9439 15.2213 13.686V15.5939C15.2213 15.9353 15.4926 16.2119 15.8274 16.2119ZM3.37734 6.16992C3.37734 3.44938 5.54832 1.23606 8.21677 1.23606C10.8852 1.23606 13.0562 3.44938 13.0562 6.16992C13.0562 8.89046 10.8852 11.1038 8.21677 11.1038C5.54832 11.104 3.37734 8.8907 3.37734 6.16992Z" fill="black"/>
<path d="M15.8277 18.9902C15.5744 18.9902 15.3424 18.8227 15.2569 18.5803C15.1728 18.3413 15.2448 18.0646 15.4357 17.9006C15.6348 17.7297 15.9258 17.7068 16.1476 17.847C16.3593 17.9813 16.4708 18.2435 16.4218 18.4929C16.3655 18.7778 16.1135 18.9902 15.8277 18.9902Z" fill="black"/>
</svg>
