<svg width="14" height="14" viewBox="0 0 14 14" fill="none" xmlns="http://www.w3.org/2000/svg">
<path d="M9.33203 11.666V12.8327C9.33203 13.1547 9.59336 13.416 9.91536 13.416H12.2487C12.5707 13.416 12.832 13.1547 12.832 12.8327V11.666H9.33203Z" fill="#8591A5"/>
<path d="M0.583333 11.083H13.4167C13.7387 11.083 14 10.8217 14 10.4997V6.99967C14 6.84509 13.9388 6.69634 13.8291 6.58726L12.7767 5.53492L11.6492 1.02459C11.5844 0.765008 11.3511 0.583008 11.0833 0.583008H2.91667C2.64892 0.583008 2.41558 0.765008 2.35083 1.02459L1.22325 5.53492L0.170917 6.58726C0.06125 6.69634 0 6.84509 0 6.99967V10.4997C0 10.8217 0.261333 11.083 0.583333 11.083ZM11.6667 8.45801C11.6667 8.94101 11.2747 9.33301 10.7917 9.33301C10.3087 9.33301 9.91667 8.94101 9.91667 8.45801C9.91667 7.97501 10.3087 7.58301 10.7917 7.58301C11.2747 7.58301 11.6667 7.97501 11.6667 8.45801ZM3.37225 1.74967H10.6277L11.5027 5.24967H2.49725L3.37225 1.74967ZM3.20833 7.58301C3.69133 7.58301 4.08333 7.97501 4.08333 8.45801C4.08333 8.94101 3.69133 9.33301 3.20833 9.33301C2.72533 9.33301 2.33333 8.94101 2.33333 8.45801C2.33333 7.97501 2.72533 7.58301 3.20833 7.58301Z" fill="#8591A5"/>
<path d="M1.16797 11.666V12.8327C1.16797 13.1547 1.4293 13.416 1.7513 13.416H4.08464C4.40664 13.416 4.66797 13.1547 4.66797 12.8327V11.666H1.16797Z" fill="#8591A5"/>
</svg>
