<svg width="28" height="28" viewBox="0 0 28 28" fill="none" xmlns="http://www.w3.org/2000/svg">
<g clip-path="url(#clip0)">
<rect x="2" y="2" width="24" height="24" rx="12" fill="url(#paint0_linear)"/>
<path opacity="0.7" d="M11 11C11 10.4477 11.4477 10 12 10H23C23.5523 10 24 10.4477 24 11V32H11V11Z" fill="url(#paint1_linear)"/>
<rect x="20" y="12" width="2" height="2" fill="#90A4CB"/>
<rect x="17" y="12" width="2" height="2" fill="#90A4CB"/>
<rect x="20" y="15" width="2" height="2" fill="#90A4CB"/>
<rect x="17" y="15" width="2" height="2" fill="#90A4CB"/>
<rect x="20" y="18" width="2" height="2" fill="#90A4CB"/>
<rect x="17" y="18" width="2" height="2" fill="#90A4CB"/>
<rect x="20" y="21" width="2" height="2" fill="#90A4CB"/>
<rect x="17" y="21" width="2" height="2" fill="#90A4CB"/>
<rect x="17" y="24" width="2" height="2" fill="#90A4CB"/>
<path opacity="0.7" d="M3 13C3 12.4477 3.44772 12 4 12H11C11.5523 12 12 12.4477 12 13V34H3V13Z" fill="url(#paint2_linear)"/>
<rect x="8" y="14" width="2" height="2" fill="#90A4CB"/>
<rect x="5" y="14" width="2" height="2" fill="#90A4CB"/>
<rect x="8" y="17" width="2" height="2" fill="#90A4CB"/>
<rect x="5" y="17" width="2" height="2" fill="#90A4CB"/>
<rect x="8" y="20" width="2" height="2" fill="#90A4CB"/>
<rect x="5" y="20" width="2" height="2" fill="#90A4CB"/>
<rect x="8" y="23" width="2" height="2" fill="#90A4CB"/>
<rect x="5" y="23" width="2" height="2" fill="#90A4CB"/>
<g filter="url(#filter0_d)">
<path d="M9 8C9 7.44772 9.44772 7 10 7H17C17.5523 7 18 7.44772 18 8V27H9V8Z" fill="url(#paint3_linear)"/>
<rect x="11" y="9" width="2" height="3" fill="#90A4CB"/>
<rect x="11" y="13" width="2" height="3" fill="#90A4CB"/>
<rect x="11" y="17" width="2" height="3" fill="#90A4CB"/>
<rect x="11" y="21" width="2" height="3" fill="#90A4CB"/>
<rect x="11" y="25" width="2" height="3" fill="#90A4CB"/>
<rect x="14" y="9" width="2" height="3" fill="#90A4CB"/>
<rect x="14" y="13" width="2" height="3" fill="#90A4CB"/>
<rect x="14" y="17" width="2" height="3" fill="#90A4CB"/>
<rect x="14" y="21" width="2" height="3" fill="#90A4CB"/>
<rect x="14" y="25" width="2" height="3" fill="#90A4CB"/>
</g>
</g>
<rect x="1" y="1" width="26" height="26" rx="13" stroke="white" stroke-width="2"/>
<defs>
<filter id="filter0_d" x="5" y="6" width="17" height="30" filterUnits="userSpaceOnUse" color-interpolation-filters="sRGB">
<feFlood flood-opacity="0" result="BackgroundImageFix"/>
<feColorMatrix in="SourceAlpha" type="matrix" values="0 0 0 0 0 0 0 0 0 0 0 0 0 0 0 0 0 0 127 0"/>
<feOffset dy="4"/>
<feGaussianBlur stdDeviation="2"/>
<feColorMatrix type="matrix" values="0 0 0 0 0 0 0 0 0 0 0 0 0 0 0 0 0 0 0.2 0"/>
<feBlend mode="normal" in2="BackgroundImageFix" result="effect1_dropShadow"/>
<feBlend mode="normal" in="SourceGraphic" in2="effect1_dropShadow" result="shape"/>
</filter>
<linearGradient id="paint0_linear" x1="18.8104" y1="15.8246" x2="19.0712" y2="2" gradientUnits="userSpaceOnUse">
<stop stop-color="#A0B4DB"/>
<stop offset="1" stop-color="#62779E"/>
</linearGradient>
<linearGradient id="paint1_linear" x1="17.5" y1="10" x2="17.5" y2="32" gradientUnits="userSpaceOnUse">
<stop stop-color="white"/>
<stop offset="1" stop-color="#E0EAFF"/>
</linearGradient>
<linearGradient id="paint2_linear" x1="5.5" y1="12" x2="5.5" y2="34" gradientUnits="userSpaceOnUse">
<stop stop-color="white"/>
<stop offset="1" stop-color="#E0EAFF"/>
</linearGradient>
<linearGradient id="paint3_linear" x1="13.5" y1="7" x2="13.5" y2="27" gradientUnits="userSpaceOnUse">
<stop stop-color="white"/>
<stop offset="1" stop-color="#E0EAFF"/>
</linearGradient>
<clipPath id="clip0">
<circle cx="14" cy="14" r="14" />
</clipPath>
</defs>
</svg>
