<svg width="20" height="18" viewBox="0 0 20 18" fill="none" xmlns="http://www.w3.org/2000/svg">
  <path d="M18.986 3.13845C18.6256 2.35442 18.0474 1.68937 17.3194 1.22184C16.5915 0.754313 15.7443 0.503839 14.8779 0.5C12.7247 0.5 11.2444 1.82985 9.99722 3.38072C8.82594 1.97105 7.12406 0.5 5.12271 0.5C4.25639 0.503583 3.4092 0.753847 2.68124 1.22122C1.95328 1.68859 1.37498 2.35355 1.01466 3.13751C-0.067402 5.4043 0.574244 8.2444 2.77492 10.9296C4.77597 13.2144 6.92389 15.3677 9.20514 17.3758L9.34087 17.5H10.6593L10.795 17.3758C13.0765 15.3678 15.2246 13.2145 17.2257 10.9296C19.4254 8.24487 20.0671 5.40524 18.986 3.13845ZM16.4901 10.3336C14.5596 12.538 12.4887 14.6166 10.29 16.5564H9.7101C7.51159 14.6166 5.44079 12.5381 3.51053 10.3336C1.55237 7.94169 0.953441 5.46664 1.87177 3.5427C2.15592 2.92071 2.61302 2.39263 3.18908 2.02083C3.76514 1.64903 4.4361 1.44905 5.12271 1.4445C6.96412 1.4445 8.58722 3.06856 9.62182 4.43147L10.0015 4.92875L10.3812 4.43147C11.7418 2.63834 13.0289 1.4445 14.8774 1.4445C15.5641 1.44925 16.2351 1.64942 16.8112 2.02138C17.3872 2.39333 17.8443 2.92155 18.1284 3.54364C19.0462 5.46758 18.4478 7.94264 16.4901 10.3336Z" fill="#175EDC" />
</svg>
