<svg width="26" height="24" viewBox="0 0 26 24" fill="none" xmlns="http://www.w3.org/2000/svg">
<rect width="26" height="24" fill="#E5E5E5"/>
<g clip-path="url(#clip0)">
<rect width="1642" height="1297" transform="translate(-799 -735)" fill="white"/>
<circle cx="13" cy="12.5" r="21.5" stroke="black"/>
<rect x="4" y="6.5" width="18" height="2" fill="#EEEBDA"/>
<rect x="3" y="20.5" width="20" height="2" fill="#EEEBDA"/>
<rect width="16" height="2" transform="matrix(1 0 0 -1 5 20.5)" fill="#EEEBDA"/>
<rect width="2" height="10" transform="matrix(1 0 0 -1 6 20.5)" fill="#EEEBDA"/>
<rect width="2" height="10" transform="matrix(1 0 0 -1 12 20.5)" fill="#EEEBDA"/>
<rect width="2" height="10" transform="matrix(1 0 0 -1 18 20.5)" fill="#EEEBDA"/>
<path d="M4.5 11V8.5L9 9V11H4.5Z" fill="#EEEBDA"/>
<path d="M11 11.5L10.5 9L15 8.5V11.5H11Z" fill="#EEEBDA"/>
<path d="M17 11V9H21V11H17Z" fill="#EEEBDA"/>
<path d="M22.3941 9.37854H3.57715C3.44126 9.37854 3.31105 9.32321 3.21558 9.22499C3.12017 9.12676 3.06751 8.99378 3.06938 8.8558L3.09731 6.7933C3.10112 6.51136 3.32735 6.28479 3.60508 6.28479H12.7228C13.0033 6.28479 13.2307 6.51564 13.2307 6.80041C13.2307 7.08519 13.0033 7.31604 12.7228 7.31604H4.10593L4.09197 8.34729H21.8863V7.31604H17.8518C17.5714 7.31604 17.344 7.08519 17.344 6.80041C17.344 6.51564 17.5714 6.28479 17.8518 6.28479H22.3941C22.6746 6.28479 22.902 6.51564 22.902 6.80041V8.86291C22.902 9.14769 22.6746 9.37854 22.3941 9.37854ZM15.3127 7.31604H15.262C14.9815 7.31604 14.7542 7.08519 14.7542 6.80041C14.7542 6.51564 14.9815 6.28479 15.262 6.28479H15.3127C15.5932 6.28479 15.8206 6.51564 15.8206 6.80041C15.8206 7.08519 15.5932 7.31604 15.3127 7.31604Z" fill="black"/>
<path d="M21.3503 21.2379H4.64893C4.36846 21.2379 4.14111 21.0071 4.14111 20.7223V18.6598C4.14111 18.3751 4.36846 18.1442 4.64893 18.1442H9.56338C9.84385 18.1442 10.0712 18.3751 10.0712 18.6598C10.0712 18.9446 9.84385 19.1754 9.56338 19.1754H5.15674V20.2067H20.8425V19.1754H14.6923C14.4119 19.1754 14.1845 18.9446 14.1845 18.6598C14.1845 18.3751 14.4119 18.1442 14.6923 18.1442H21.3503C21.6307 18.1442 21.8581 18.3751 21.8581 18.6598V20.7223C21.8581 21.0071 21.6307 21.2379 21.3503 21.2379ZM12.1532 19.1754H12.1024C11.822 19.1754 11.5946 18.9446 11.5946 18.6598C11.5946 18.3751 11.822 18.1442 12.1024 18.1442H12.1532C12.4337 18.1442 12.661 18.3751 12.661 18.6598C12.661 18.9446 12.4337 19.1754 12.1532 19.1754Z" fill="black"/>
<path d="M8.17578 19.1754H5.63672C5.35625 19.1754 5.12891 18.9446 5.12891 18.6598V11.441C5.12891 11.1563 5.35625 10.9254 5.63672 10.9254H8.17578C8.45625 10.9254 8.68359 11.1563 8.68359 11.441V18.6598C8.68359 18.9446 8.45625 19.1754 8.17578 19.1754ZM6.14453 18.1442H7.66797V11.9567H6.14453V18.1442Z" fill="black"/>
<path d="M24.9341 7.31635H1.06695C0.834522 7.31635 0.631753 7.15609 0.574675 6.92731C0.517597 6.69853 0.620835 6.45959 0.825229 6.34723C2.98958 5.15779 4.89966 4.18847 6.92187 3.16217C8.73324 2.24291 10.6064 1.29231 12.7019 0.158138C12.848 0.0789895 13.023 0.0772879 13.1708 0.153497L19.2334 3.28128C19.4835 3.41024 19.5832 3.72064 19.4562 3.97453C19.3292 4.22848 19.0234 4.32965 18.7735 4.20064L12.9462 1.19439C10.9331 2.27947 9.12578 3.19671 7.37596 4.08472C5.9388 4.81402 4.55836 5.51455 3.1047 6.2851H23.102C23.0522 6.15357 23.0554 6.00197 23.1232 5.86647C23.2503 5.61257 23.5561 5.51141 23.8059 5.64036L25.1641 6.34105C25.3736 6.44907 25.4827 6.68889 25.4279 6.92081C25.3732 7.15279 25.1691 7.31635 24.9341 7.31635ZM21.3119 5.44793C21.2345 5.44793 21.156 5.42989 21.0823 5.39188L21.037 5.36853C20.787 5.23952 20.6873 4.92916 20.8144 4.67527C20.9415 4.42138 21.2473 4.32026 21.4971 4.44922L21.5424 4.47258C21.7924 4.60159 21.8921 4.91199 21.765 5.16583C21.6754 5.34481 21.497 5.44793 21.3119 5.44793Z" fill="black"/>
<path d="M9.19141 11.9567H4.62109C4.34063 11.9567 4.11328 11.7258 4.11328 11.441V8.86291C4.11328 8.57814 4.34063 8.34729 4.62109 8.34729H9.19141C9.47187 8.34729 9.69922 8.57814 9.69922 8.86291V11.441C9.69922 11.7258 9.47187 11.9567 9.19141 11.9567ZM5.12891 10.9254H8.68359V9.37854H5.12891V10.9254Z" fill="black"/>
<path d="M14.2695 19.1754H11.7305C11.45 19.1754 11.2227 18.9446 11.2227 18.6598V11.441C11.2227 11.1563 11.45 10.9254 11.7305 10.9254H14.2695C14.5499 10.9254 14.7773 11.1563 14.7773 11.441V18.6598C14.7773 18.9446 14.5499 19.1754 14.2695 19.1754ZM12.2383 18.1442H13.7617V11.9567H12.2383V18.1442Z" fill="black"/>
<path d="M15.2852 11.9567H10.7148C10.4344 11.9567 10.207 11.7258 10.207 11.441V8.86291C10.207 8.57814 10.4344 8.34729 10.7148 8.34729H15.2852C15.5656 8.34729 15.793 8.57814 15.793 8.86291V11.441C15.793 11.7258 15.5656 11.9567 15.2852 11.9567ZM11.2227 10.9254H14.7773V9.37854H11.2227V10.9254Z" fill="black"/>
<path d="M20.3633 19.1754H17.8242C17.5438 19.1754 17.3164 18.9446 17.3164 18.6598V11.441C17.3164 11.1563 17.5438 10.9254 17.8242 10.9254H20.3633C20.6437 10.9254 20.8711 11.1563 20.8711 11.441V18.6598C20.8711 18.9446 20.6437 19.1754 20.3633 19.1754ZM18.332 18.1442H19.8555V11.9567H18.332V18.1442Z" fill="black"/>
<path d="M21.3789 11.9567H16.8086C16.5282 11.9567 16.3008 11.7258 16.3008 11.441V8.86291C16.3008 8.57814 16.5282 8.34729 16.8086 8.34729H21.3789C21.6593 8.34729 21.8867 8.57814 21.8867 8.86291V11.441C21.8867 11.7258 21.6593 11.9567 21.3789 11.9567ZM17.3164 10.9254H20.8711V9.37854H17.3164V10.9254Z" fill="black"/>
<path d="M22.9023 23.3004H3.09766C2.81719 23.3004 2.58984 23.0696 2.58984 22.7848V20.7223C2.58984 20.4376 2.81719 20.2067 3.09766 20.2067H14.2188C14.4992 20.2067 14.7266 20.4376 14.7266 20.7223C14.7266 21.0071 14.4992 21.2379 14.2188 21.2379H3.60547V22.2692H22.3945V21.2379H19.3477C19.0672 21.2379 18.8398 21.0071 18.8398 20.7223C18.8398 20.4376 19.0672 20.2067 19.3477 20.2067H22.9023C23.1828 20.2067 23.4102 20.4376 23.4102 20.7223V22.7848C23.4102 23.0696 23.1828 23.3004 22.9023 23.3004ZM16.8086 21.2379H16.7578C16.4774 21.2379 16.25 21.0071 16.25 20.7223C16.25 20.4376 16.4774 20.2067 16.7578 20.2067H16.8086C17.089 20.2067 17.3164 20.4376 17.3164 20.7223C17.3164 21.0071 17.089 21.2379 16.8086 21.2379Z" fill="black"/>
<path d="M13 5.76917C12.02 5.76917 11.2227 4.95958 11.2227 3.96448C11.2227 2.96937 12.02 2.15979 13 2.15979C13.98 2.15979 14.7773 2.96937 14.7773 3.96448C14.7773 4.95958 13.98 5.76917 13 5.76917ZM13 3.19104C12.58 3.19104 12.2383 3.538 12.2383 3.96448C12.2383 4.39095 12.58 4.73792 13 4.73792C13.42 4.73792 13.7617 4.39095 13.7617 3.96448C13.7617 3.538 13.42 3.19104 13 3.19104Z" fill="black"/>
<path d="M24.9336 23.3004H1.06641C0.785941 23.3004 0.558594 23.0696 0.558594 22.7848C0.558594 22.5001 0.785941 22.2692 1.06641 22.2692H24.9336C25.214 22.2692 25.4414 22.5001 25.4414 22.7848C25.4414 23.0696 25.214 23.3004 24.9336 23.3004Z" fill="black"/>
</g>
<defs>
<clipPath id="clip0">
<rect width="1642" height="1297" fill="white" transform="translate(-799 -735)"/>
</clipPath>
</defs>
</svg>
