<svg width="14" height="14" viewBox="0 0 14 14" fill="none" xmlns="http://www.w3.org/2000/svg">
<g clip-path="url(#clip0)">
<path d="M13.0597 7.60197L9.06149 6.8833L5.22899 1.04647L3.56707 0.758301L5.58599 6.2603L2.59349 5.72188L1.57499 4.2233L0.123657 3.9608L0.66324 6.2743C0.701793 6.43945 0.775885 6.5942 0.880357 6.72779C0.984829 6.86138 1.11717 6.97058 1.26816 7.0478L3.62307 8.25355C3.67428 8.27985 3.72914 8.29834 3.78582 8.30838L12.6443 9.89797C12.7956 9.92655 12.9511 9.9249 13.1017 9.89311C13.2524 9.86133 13.3952 9.80004 13.5221 9.71277C13.649 9.62551 13.7573 9.514 13.8408 9.38467C13.9244 9.25535 13.9815 9.11076 14.0089 8.95925C14.0363 8.80774 14.0335 8.6523 14.0005 8.5019C13.9676 8.3515 13.9052 8.20911 13.8169 8.08293C13.7287 7.95676 13.6163 7.8493 13.4864 7.76675C13.3564 7.6842 13.2114 7.6282 13.0597 7.60197Z" fill="#C3C648"/>
<path d="M13.4167 13.9997H0.583333C0.428624 13.9997 0.280251 13.9382 0.170854 13.8288C0.0614582 13.7194 0 13.5711 0 13.4163C0 13.2616 0.0614582 13.1133 0.170854 13.0039C0.280251 12.8945 0.428624 12.833 0.583333 12.833H13.4167C13.5714 12.833 13.7197 12.8945 13.8291 13.0039C13.9385 13.1133 14 13.2616 14 13.4163C14 13.5711 13.9385 13.7194 13.8291 13.8288C13.7197 13.9382 13.5714 13.9997 13.4167 13.9997Z" fill="#C3C648"/>
</g>
<defs>
<clipPath id="clip0">
<rect width="14" height="14" fill="white"/>
</clipPath>
</defs>
</svg>
