<svg width="18" height="10" viewBox="0 0 18 10" fill="none" xmlns="http://www.w3.org/2000/svg">
<path fill-rule="evenodd" clip-rule="evenodd" d="M16.9716 0C16.4524 0 16.0315 0.420921 16.0315 0.940152V9.00336C16.0315 9.52259 16.4524 9.94351 16.9716 9.94351C17.4908 9.94351 17.9118 9.52259 17.9118 9.00336V0.940151C17.9118 0.42092 17.4908 0 16.9716 0ZM7.0864 0.19161C8.54602 -0.924453 15.5079 3.1339 15.5079 4.65594C15.5079 7.29394 8.81128 10.8156 7.69517 9.83076C6.07175 8.39833 5.36146 1.51054 7.0864 0.19161Z" fill="white" fill-opacity="0.6"/>
<path d="M9.42014 4.65594C9.42014 3.1339 2.45822 -0.924453 0.998597 0.19161C-0.726334 1.51054 -0.0160528 8.39833 1.60738 9.83076C2.72348 10.8156 9.42014 7.29394 9.42014 4.65594Z" fill="white"/>
</svg>
