<svg width="26" height="25" viewBox="0 0 26 25" fill="none" xmlns="http://www.w3.org/2000/svg">
<rect width="26" height="25" fill="#E5E5E5"/>
<g clip-path="url(#clip0)">
<rect width="1642" height="1297" transform="translate(-278 -832)" fill="white"/>
<circle cx="13" cy="13.5" r="21.5" stroke="black"/>
<path d="M2 22V9L9.5 6.5L15 8.5L18 12.5L20 9.5L24 9V22L17 24L9.5 20L2 22Z" fill="#EAFFE0"/>
<path d="M7 15L1.5 18.5L2 22.5L9.5 20L17 24L20.5 23L24.5 22L24 17L20.5 15.5L17 17.5L14.5 15.5L11 16.5L7 15Z" fill="#BEE7AA"/>
<path d="M17.7595 0.453993C15.266 0.448281 13.2807 2.31423 13.2795 4.93529C13.2789 4.94988 13.2789 4.96448 13.2795 4.97906C13.3459 5.72004 13.3881 6.50445 13.9007 7.69235C14.4133 8.88024 15.3733 10.4903 17.3045 13.1102C17.5109 13.3979 18.008 13.3979 18.2145 13.1102C19.1486 11.8429 19.8455 10.8205 20.3845 9.95924C21.5971 9.81142 22.7768 9.55825 23.9195 9.41659V21.18C23.9195 21.5679 23.8421 21.7758 23.7795 21.8715C23.7168 21.9671 23.674 21.9981 23.5257 22.029L16.9982 23.3856L9.88447 19.7008C9.90831 19.6366 9.92024 19.568 9.91947 19.4995V18.9394C9.92632 18.6216 9.61406 18.3356 9.29822 18.3704C9.02305 18.4007 8.79352 18.6625 8.79947 18.9394V19.4995C8.80009 19.5438 8.80598 19.5879 8.81697 19.6308L2.07947 21.7051V9.69666C2.07947 9.13649 2.22833 9.11271 2.23697 9.11024C4.59919 8.38837 6.96254 7.65806 9.32447 6.93087L12.212 8.24375C12.48 8.3629 12.8322 8.22739 12.9513 7.95929C13.0705 7.69119 12.935 7.33886 12.667 7.21971L9.58697 5.8193C9.50203 5.7826 9.4079 5.76741 9.31572 5.77553C9.27441 5.77693 9.23324 5.7827 9.19322 5.79303C6.76172 6.52294 4.34724 7.31454 1.91322 8.03368C1.32961 8.20516 0.959473 8.86076 0.959473 9.69666V21.7401C0.959473 22.2091 1.27606 22.6018 1.55447 22.738C1.83289 22.8741 2.08822 22.8605 2.08822 22.8605C2.14162 22.8605 2.19483 22.8504 2.24572 22.8341L9.31572 20.6548L16.6657 24.4709C16.7776 24.5291 16.9095 24.548 17.0332 24.5234L23.7532 23.123C24.1169 23.0472 24.4864 22.8343 24.7157 22.484C24.9451 22.1339 25.0395 21.7025 25.0395 21.18V9.41659C25.0395 8.80296 24.5335 8.21416 23.8495 8.29627C22.9155 8.40837 22.0042 8.59187 21.1107 8.73389C21.3175 8.35155 21.4832 8.00532 21.6182 7.69235C22.1308 6.50445 22.173 5.72004 22.2395 4.97906C22.24 4.96447 22.24 4.94987 22.2395 4.93529C22.2383 2.31423 20.2529 0.448289 17.7595 0.453993ZM17.7595 1.57432C19.7189 1.56984 21.1102 2.84406 21.1195 4.91779C21.0527 5.67629 21.041 6.21122 20.5945 7.24596C20.1881 8.18775 19.2883 9.65094 17.7595 11.7798C16.2306 9.65094 15.3309 8.18775 14.9245 7.24596C14.478 6.21122 14.4662 5.67629 14.3995 4.91779C14.4088 2.84406 15.8 1.56983 17.7595 1.57432ZM17.7682 2.69464C16.5455 2.69464 15.5457 3.70336 15.5457 4.93529C15.5457 6.16723 16.5455 7.17594 17.7682 7.17594C18.9909 7.17594 19.9995 6.16723 19.9995 4.93529C19.9995 3.70336 18.9909 2.69464 17.7682 2.69464ZM17.7682 3.81497C18.3878 3.81497 18.8795 4.31101 18.8795 4.93529C18.8795 5.55957 18.3878 6.05562 17.7682 6.05562C17.1486 6.05562 16.6657 5.55957 16.6657 4.93529C16.6657 4.31101 17.1486 3.81497 17.7682 3.81497ZM9.29822 8.28752C9.02305 8.31776 8.79352 8.57958 8.79947 8.85642V9.41659C8.79529 9.71253 9.06359 9.98473 9.35947 9.98473C9.65536 9.98473 9.92366 9.71253 9.91947 9.41659V8.85642C9.92632 8.53865 9.61406 8.25272 9.29822 8.28752ZM9.29822 10.8082C9.02305 10.8385 8.79352 11.1003 8.79947 11.3772V11.9373C8.79529 12.2333 9.06359 12.5054 9.35947 12.5054C9.65536 12.5054 9.92366 12.2333 9.91947 11.9373V11.3772C9.92632 11.0594 9.61406 10.7734 9.29822 10.8082ZM16.8582 13.0489C16.5831 13.0791 16.3535 13.341 16.3595 13.6178V14.178C16.3553 14.4739 16.6236 14.7461 16.9195 14.7461C17.2154 14.7461 17.4837 14.4739 17.4795 14.178V13.6178C17.4863 13.3 17.1741 13.0141 16.8582 13.0489ZM9.29822 13.329C9.02305 13.3592 8.79352 13.6211 8.79947 13.8979V14.4581C8.79529 14.754 9.06359 15.0262 9.35947 15.0262C9.65536 15.0262 9.92366 14.754 9.91947 14.4581V13.8979C9.92632 13.5801 9.61406 13.2941 9.29822 13.329ZM16.8582 15.5696C16.5831 15.5999 16.3535 15.8617 16.3595 16.1385V16.6987C16.3553 16.9946 16.6236 17.2668 16.9195 17.2668C17.2154 17.2668 17.4837 16.9946 17.4795 16.6987V16.1385C17.4863 15.8208 17.1741 15.5348 16.8582 15.5696ZM9.29822 15.8497C9.02305 15.88 8.79352 16.1418 8.79947 16.4186V16.9788C8.79529 17.2747 9.06359 17.5469 9.35947 17.5469C9.65536 17.5469 9.92366 17.2747 9.91947 16.9788V16.4186C9.92632 16.1009 9.61406 15.8149 9.29822 15.8497ZM16.8582 18.0904C16.5831 18.1206 16.3535 18.3824 16.3595 18.6593V19.2194C16.3553 19.5154 16.6236 19.7876 16.9195 19.7876C17.2154 19.7876 17.4837 19.5154 17.4795 19.2194V18.6593C17.4863 18.3415 17.1741 18.0555 16.8582 18.0904ZM16.8582 20.6111C16.5831 20.6413 16.3535 20.9031 16.3595 21.18V21.7401C16.3553 22.0361 16.6236 22.3083 16.9195 22.3083C17.2154 22.3083 17.4837 22.0361 17.4795 21.7401V21.18C17.4863 20.8622 17.1741 20.5763 16.8582 20.6111Z" fill="black"/>
</g>
<defs>
<clipPath id="clip0">
<rect width="1642" height="1297" fill="white" transform="translate(-278 -832)"/>
</clipPath>
</defs>
</svg>
