<svg width="22" height="24" viewBox="0 0 22 24" fill="none" xmlns="http://www.w3.org/2000/svg"><path d="M11.427 7.5a3.743 3.743 0 003.737-3.75c0-2.071-1.673-3.75-3.737-3.75a3.743 3.743 0 00-3.738 3.75c0 2.07 1.674 3.75 3.738 3.75zM21.366 13.863l-5.232-4.5a1.492 1.492 0 00-.973-.361H7.687c-.357 0-.703.128-.973.361l-5.233 4.5a1.5 1.5 0 00-.418 1.686 1.5 1.5 0 00.335.513l4.046 4.06V15.88l-.79-.793 2.285-1.966v9.38c0 .397.158.779.438 1.06s.66.44 1.057.44h5.98a1.503 1.503 0 001.495-1.5v-9.38l2.285 1.966-.79.793v4.242l4.046-4.06a1.5 1.5 0 00-.084-2.2z" fill="#76A1C0"/></svg>