<svg width="28" height="24" viewBox="0 0 28 24" fill="none" xmlns="http://www.w3.org/2000/svg"><path d="M2.82 16.448c-1.272.123-2.267 1.215-2.267 2.544v2.72c0 .47.373.852.834.852H7.11c.46 0 .834-.381.834-.852v-2.72c0-1.33-.996-2.422-2.27-2.544" fill="#FFB48E"/><path d="M7.05 13.983c0 1.577-1.254 2.855-2.8 2.855-1.547 0-2.8-1.278-2.8-2.855 0-1.576 1.253-2.855 2.8-2.855 1.546 0 2.8 1.279 2.8 2.855z" fill="#FFCDAC"/><path d="M10.211 16.448c-1.272.123-2.267 1.215-2.267 2.544v2.72c0 .47.374.852.835.852h5.722c.46 0 .834-.381.834-.852v-2.72c0-1.33-.996-2.422-2.27-2.544" fill="#F5737F"/><path d="M14.44 13.983c0 1.577-1.253 2.855-2.8 2.855-1.546 0-2.8-1.278-2.8-2.855 0-1.576 1.254-2.855 2.8-2.855 1.547 0 2.8 1.279 2.8 2.855z" fill="#FFCDAC"/><path d="M17.603 16.448c-1.272.123-2.267 1.215-2.267 2.544v2.72c0 .47.374.852.835.852h5.721c.461 0 .835-.381.835-.852v-2.72c0-1.33-.997-2.422-2.27-2.544" fill="#8690A6"/><path d="M21.83 13.983c0 1.577-1.253 2.855-2.8 2.855-1.546 0-2.8-1.278-2.8-2.855 0-1.576 1.254-2.855 2.8-2.855 1.547 0 2.8 1.279 2.8 2.855z" fill="#FFCDAC"/><path d="M9.362.563h4.82v6.6h-2.023l-1.453 1.579-1.38-1.578H3.664v-6.6h1.185" fill="#FFB48E"/><path d="M16.816 1.595v6.6h2.023l1.453 1.578 1.38-1.578h5.663v-6.6H16.816z" fill="#91DEF5"/><path d="M3.662 7.73h5.415l1.215 1.389c.213.244.597.249.817.01l1.288-1.4h1.783a.56.56 0 00.554-.564v-6.6A.56.56 0 0014.18 0H9.36a.56.56 0 00-.553.565.56.56 0 00.554.564h4.266V6.6h-1.47a.55.55 0 00-.403.178l-1.038 1.128-.977-1.117a.55.55 0 00-.413-.189h-5.11V1.13h.631a.56.56 0 00.554-.565A.56.56 0 004.847 0H3.662a.56.56 0 00-.554.565v6.6a.56.56 0 00.554.564zM16.817 8.76h1.784l1.288 1.4c.22.24.604.234.817-.01l1.215-1.39h5.415a.56.56 0 00.554-.564v-6.6a.56.56 0 00-.554-.565H16.817a.56.56 0 00-.553.565v6.6a.56.56 0 00.553.565zm.554-6.6h9.411v5.471h-5.11a.55.55 0 00-.413.19l-.977 1.117-1.038-1.128a.549.549 0 00-.404-.179h-1.469v-5.47z" fill="#000"/><path d="M20.402 5.43a.56.56 0 00.521-.373.577.577 0 00-.168-.626.55.55 0 00-.634-.05.573.573 0 00-.263.591c.05.263.282.459.544.459zM22.241 5.43a.56.56 0 00.521-.373.576.576 0 00-.168-.626.55.55 0 00-.635-.05.573.573 0 00-.262.591c.05.262.281.459.544.459zM24.082 5.43a.56.56 0 00.52-.373.576.576 0 00-.167-.626.55.55 0 00-.635-.05.574.574 0 00-.262.591c.05.263.28.459.544.459zM24.446 22h-1.194a1.45 1.45 0 00.028-.287v-2.72c0-1.225-.68-2.286-1.695-2.797.498-.596.8-1.369.8-2.212 0-1.886-1.505-3.42-3.354-3.42-1.85 0-3.354 1.534-3.354 3.42 0 .843.302 1.616.8 2.212-.46.232-.851.577-1.141.998a3.055 3.055 0 00-1.142-.998c.498-.597.8-1.369.8-2.212 0-1.886-1.505-3.42-3.354-3.42-1.85 0-3.354 1.534-3.354 3.42 0 .843.302 1.616.8 2.212-.46.232-.851.577-1.141.998a3.056 3.056 0 00-1.142-.998c.498-.596.8-1.369.8-2.212 0-1.886-1.504-3.42-3.354-3.42S.895 12.099.895 13.985c0 .843.302 1.616.8 2.212A3.113 3.113 0 000 18.992v2.721c0 .78.623 1.415 1.388 1.415h23.058a.56.56 0 00.554-.564.56.56 0 00-.554-.565zm-5.415-10.306c1.239 0 2.246 1.027 2.246 2.29 0 1.263-1.007 2.29-2.246 2.29s-2.246-1.027-2.246-2.29c0-1.262 1.007-2.29 2.246-2.29zm-7.39 0c1.238 0 2.245 1.027 2.245 2.29 0 1.263-1.007 2.29-2.246 2.29s-2.246-1.027-2.246-2.29c0-1.262 1.008-2.29 2.246-2.29zm-7.392 0c1.239 0 2.246 1.027 2.246 2.29 0 1.263-1.007 2.29-2.246 2.29-1.238 0-2.246-1.027-2.246-2.29 0-1.262 1.008-2.29 2.246-2.29zM1.39 21.999a.284.284 0 01-.281-.286v-2.72c0-.983.687-1.802 1.621-1.962a3.281 3.281 0 003.04 0c.934.16 1.622.978 1.622 1.962v2.72a.284.284 0 01-.28.286H1.387zm7.39 0a.284.284 0 01-.28-.286v-2.72c0-.983.687-1.802 1.621-1.962a3.28 3.28 0 003.04 0c.934.16 1.622.978 1.622 1.962v2.72a.284.284 0 01-.28.286H8.778zm7.391 0a.284.284 0 01-.28-.286v-2.72c0-.983.687-1.802 1.621-1.962a3.28 3.28 0 003.04 0c.934.16 1.622.978 1.622 1.962v2.72a.284.284 0 01-.28.286H16.17zM7.09 1.129a.56.56 0 00.522-.374.577.577 0 00-.168-.626.55.55 0 00-.635-.05.574.574 0 00-.262.591c.05.263.28.459.544.459z" fill="#000"/></svg>