<svg width="23" height="22" viewBox="0 0 23 22" fill="none" xmlns="http://www.w3.org/2000/svg"><path d="M5.075 5.5a2.745 2.745 0 002.741-2.75A2.745 2.745 0 005.076 0a2.745 2.745 0 00-2.742 2.75A2.745 2.745 0 005.075 5.5zM13.298 9.625a1.377 1.377 0 000-2.75H3.705c-.727 0-1.424.29-1.938.805a2.755 2.755 0 00-.803 1.945v11a1.368 1.368 0 102.74 0v-5.5h1.371v5.5c0 .365.145.714.402.972a1.368 1.368 0 002.34-.972v-11h5.481z" fill="#D59860"/><path d="M21.52 1.375H10.558v2.75h9.593v9.625h-9.593v2.75h4.635l2.361 4.74a1.373 1.373 0 001.84.616 1.375 1.375 0 00.613-1.846l-1.75-3.51h3.265a1.377 1.377 0 001.37-1.375V2.75a1.368 1.368 0 00-1.37-1.375z" fill="#D59860"/></svg>