<svg width="28" height="28" viewBox="0 0 28 28" fill="none" xmlns="http://www.w3.org/2000/svg"><g clip-path="url(#clip0)"><rect x="2" y="2" width="24" height="24" rx="12" fill="url(#paint0_linear)"/><path d="M7.25 12l-4.5 6.5L5 29l20.25-2.5v-8l-4-6.5-2.5 2-4.5-7.5-5 7.5-2-2z" fill="url(#paint1_linear)"/><mask id="a" maskUnits="userSpaceOnUse" x="2" y="6" width="24" height="23"><path d="M7.25 12l-4.5 6.5L5 29l20.25-2.5v-8l-4-6.5-2.5 2-4.5-7.5-5 7.5-2-2z" fill="url(#paint2_linear)"/></mask><g mask="url(#a)"><path d="M7.25 12l-4.5 6.5L5 29l20.25-2.5-6.5-12.5-4.5-7.5-5 7.5-2-2z" fill="url(#paint3_linear)"/><path d="M9.254 13.996L10.5 11.5l4-6-2.991 12.527-2.255-4.03z" fill="#fff"/><path d="M7.25 12l-4.5 6.5L5 29l20.25-2.5-16-12.5-2-2z" fill="url(#paint4_linear)"/><path d="M.523 14.299l3.016.955L8.4 9.148l-4.862 12.28-3.016-7.13z" fill="#fff"/></g></g><path fill-rule="evenodd" clip-rule="evenodd" d="M14 28C6.268 28 0 21.732 0 14S6.268 0 14 0s14 6.268 14 14-6.268 14-14 14zm0-26C7.373 2 2 7.373 2 14s5.373 12 12 12 12-5.373 12-12S20.627 2 14 2z" fill="#F8F8F8"/><defs><linearGradient id="paint0_linear" x1="18.81" y1="15.825" x2="19.071" y2="2" gradientUnits="userSpaceOnUse"><stop stop-color="#BFD4FD"/><stop offset="1" stop-color="#95B9FF"/></linearGradient><linearGradient id="paint1_linear" x1="21.673" y1="13.165" x2="21.338" y2="22.166" gradientUnits="userSpaceOnUse"><stop stop-color="#428250"/><stop offset="1" stop-color="#5F8167"/></linearGradient><linearGradient id="paint2_linear" x1="14" y1="6.5" x2="14" y2="26" gradientUnits="userSpaceOnUse"><stop stop-color="#3D8B4E"/><stop offset="1" stop-color="#7FA286"/></linearGradient><linearGradient id="paint3_linear" x1="14" y1="6.5" x2="14" y2="26" gradientUnits="userSpaceOnUse"><stop stop-color="#3D8B4E"/><stop offset="1" stop-color="#7FA286"/></linearGradient><linearGradient id="paint4_linear" x1="14" y1="6.5" x2="14" y2="26" gradientUnits="userSpaceOnUse"><stop stop-color="#45E868"/><stop offset="1" stop-color="#76A881"/></linearGradient><clipPath id="clip0"><rect x="2" y="2" width="24" height="24" rx="12" fill="#fff"/></clipPath></defs></svg>