<svg width="22" height="23" viewBox="0 0 22 23" fill="none" xmlns="http://www.w3.org/2000/svg">
<rect width="22" height="23" fill="#E5E5E5"/>
<g clip-path="url(#clip0)">
<rect width="1642" height="1297" transform="translate(-802 -827)" fill="white"/>
<circle cx="10" cy="11.5" r="21.5" stroke="black"/>
<path d="M3.5 22C1.5 22 0.666667 20.3333 0.5 19.5L11 19C11 19.8 11.6667 21 12 21.5L14.5 22H3.5Z" fill="#DCCE85"/>
<path d="M21.5 4H16.5C16.5 1.6 18.1667 1 19 1C21 1 21.5 3 21.5 4Z" fill="#DCCE85"/>
<path d="M3 19V3.00003C3 1.00003 4.33333 0.833362 5 1.00003H18C17.2 1.00003 16.6667 2.6667 16.5 3.50003V19C14.9 24.6 12.1667 21.3334 11 19H3Z" fill="#EEEBDA"/>
<path d="M21.514 4.21869H16.3685C16.1 4.21869 15.8823 3.98963 15.8823 3.70706C15.8823 2.87295 16.1848 2.08203 16.7341 1.48C17.2825 0.878884 18.016 0.531642 18.7995 0.502274C18.8098 0.501865 18.8201 0.501865 18.8304 0.502172C20.6079 0.554153 22.0001 1.9619 22.0001 3.70711C22.0001 3.98963 21.7824 4.21869 21.514 4.21869ZM16.9131 3.19543H20.9654C20.7327 2.26013 19.8739 1.56288 18.819 1.52548C17.899 1.56733 17.1265 2.27537 16.9131 3.19543Z" fill="black"/>
<path d="M14.013 22.5H13.4999C13.4869 22.5 13.4741 22.4994 13.4612 22.4984C12.2626 22.3976 10.9807 21.5367 10.761 19.8779H2.84166C2.57313 19.8779 2.35547 19.6488 2.35547 19.3663V15.4523C2.35547 15.1697 2.57313 14.9406 2.84166 14.9406C3.11018 14.9406 3.32784 15.1697 3.32784 15.4523V18.8547H11.2143C11.4828 18.8547 11.7005 19.0837 11.7005 19.3663C11.7005 20.8007 12.6764 21.3985 13.5202 21.4767H13.9931C14.8554 21.3986 15.8602 20.7999 15.8823 19.3624V14.983C15.8823 14.7004 16.1001 14.4713 16.3685 14.4713C16.637 14.4713 16.8547 14.7004 16.8547 14.983V19.3663C16.8547 19.3688 16.8547 19.3714 16.8547 19.3739C16.8418 20.2765 16.5336 21.0555 15.9632 21.6268C15.4624 22.1285 14.7832 22.438 14.051 22.4984C14.0383 22.4994 14.0256 22.5 14.013 22.5ZM2.84166 13.4073C2.57313 13.4073 2.35547 13.1782 2.35547 12.8957V12.8447C2.35547 12.5621 2.57313 12.3331 2.84166 12.3331C3.11018 12.3331 3.32784 12.5621 3.32784 12.8447V12.8957C3.32784 13.1783 3.11018 13.4073 2.84166 13.4073ZM16.3685 12.9364C16.1001 12.9364 15.8823 12.7073 15.8823 12.4248V12.3737C15.8823 12.0911 16.1001 11.862 16.3685 11.862C16.637 11.862 16.8547 12.0911 16.8547 12.3737V12.4248C16.8547 12.7074 16.637 12.9364 16.3685 12.9364ZM2.84166 10.8C2.57313 10.8 2.35547 10.5709 2.35547 10.2884V2.43293C2.35547 1.36711 3.18038 0.5 4.19432 0.5H18.864C19.1309 0.5 19.3479 0.726498 19.3502 1.00738C19.3524 1.28827 19.1389 1.51855 18.872 1.52315L18.8345 1.525C17.7427 1.56593 16.8547 2.54487 16.8547 3.70719V9.81552C16.8547 10.098 16.637 10.3271 16.3685 10.3271C16.1001 10.3271 15.8823 10.098 15.8823 9.81552V3.70719C15.8823 2.89283 16.1707 2.11971 16.6955 1.5232H4.19437C3.7166 1.5232 3.32789 1.93128 3.32789 2.43288V10.2883C3.32784 10.5709 3.11018 10.8 2.84166 10.8Z" fill="black"/>
<path d="M13.5005 22.4998C13.4846 22.4998 13.4685 22.499 13.4523 22.4973C12.8191 22.4318 12.1831 22.1727 11.6851 21.7138C11.733 21.7931 11.7608 21.8872 11.7608 21.9882C11.7608 22.2707 11.5431 22.4998 11.2747 22.4998H11.226C10.9576 22.4998 10.7399 22.2707 10.7399 21.9882C10.7399 21.7056 10.9576 21.4765 11.226 21.4765H11.2747C11.3622 21.4765 11.4443 21.5009 11.5153 21.5435C11.1303 21.1232 10.8519 20.5645 10.7606 19.8636H1.01083C1.19879 21.042 2.04495 21.4765 2.84283 21.4765H8.79511C9.06363 21.4765 9.2813 21.7056 9.2813 21.9882C9.2813 22.2707 9.06363 22.4998 8.79511 22.4998H2.84283C2.06313 22.4998 1.35286 22.2092 0.842707 21.6817C0.29142 21.1116 0 20.3059 0 19.352C0 19.0694 0.217666 18.8403 0.486186 18.8403H11.2144C11.4828 18.8403 11.7006 19.0694 11.7006 19.352C11.7006 20.7792 12.6547 21.3866 13.5475 21.479C13.8147 21.5067 14.0101 21.7571 13.9838 22.0383C13.959 22.3025 13.7476 22.4998 13.5005 22.4998Z" fill="black"/>
<path d="M8.46827 7.15131H4.76402C4.4955 7.15131 4.27783 6.9222 4.27783 6.63968C4.27783 6.35711 4.4955 6.12805 4.76402 6.12805H8.46827C8.73679 6.12805 8.95446 6.35711 8.95446 6.63968C8.95446 6.9222 8.73675 7.15131 8.46827 7.15131Z" fill="black"/>
<path d="M14.4882 8.6861H4.76451C4.49599 8.6861 4.27832 8.45699 4.27832 8.17447C4.27832 7.8919 4.49599 7.66284 4.76451 7.66284H14.4882C14.7567 7.66284 14.9744 7.8919 14.9744 8.17447C14.9744 8.45699 14.7568 8.6861 14.4882 8.6861Z" fill="black"/>
<path d="M14.4882 10.2209H4.76451C4.49599 10.2209 4.27832 9.99178 4.27832 9.70926C4.27832 9.42669 4.49599 9.19763 4.76451 9.19763H14.4882C14.7567 9.19763 14.9744 9.42669 14.9744 9.70926C14.9744 9.99178 14.7568 10.2209 14.4882 10.2209Z" fill="black"/>
<path d="M14.4882 11.7557H4.76451C4.49599 11.7557 4.27832 11.5266 4.27832 11.2441C4.27832 10.9615 4.49599 10.7324 4.76451 10.7324H14.4882C14.7567 10.7324 14.9744 10.9615 14.9744 11.2441C14.9744 11.5266 14.7568 11.7557 14.4882 11.7557Z" fill="black"/>
<path d="M14.4882 13.2908H4.76451C4.49599 13.2908 4.27832 13.0617 4.27832 12.7792C4.27832 12.4966 4.49599 12.2676 4.76451 12.2676H14.4882C14.7567 12.2676 14.9744 12.4966 14.9744 12.7792C14.9744 13.0617 14.7568 13.2908 14.4882 13.2908Z" fill="black"/>
<path d="M14.4882 14.8256H4.76451C4.49599 14.8256 4.27832 14.5965 4.27832 14.314C4.27832 14.0314 4.49599 13.8024 4.76451 13.8024H14.4882C14.7567 13.8024 14.9744 14.0314 14.9744 14.314C14.9744 14.5965 14.7568 14.8256 14.4882 14.8256Z" fill="black"/>
<path d="M14.4884 16.3604H10.3211C10.0526 16.3604 9.83496 16.1313 9.83496 15.8488C9.83496 15.5662 10.0526 15.3372 10.3211 15.3372H14.4884C14.7569 15.3372 14.9746 15.5662 14.9746 15.8488C14.9746 16.1313 14.757 16.3604 14.4884 16.3604Z" fill="black"/>
</g>
<defs>
<clipPath id="clip0">
<rect width="1642" height="1297" fill="white" transform="translate(-802 -827)"/>
</clipPath>
</defs>
</svg>
