<svg width="12" height="10" viewBox="0 0 12 10" fill="none" xmlns="http://www.w3.org/2000/svg">
<path d="M3.61512 4.32397C4.75684 4.32397 5.68272 2.99718 5.68272 1.91427C5.66983 1.40241 5.44639 0.915626 5.06016 0.557932C4.67393 0.200239 4.15552 0 3.61571 0C3.0759 0 2.5575 0.200239 2.17126 0.557932C1.78503 0.915626 1.5616 1.40241 1.54871 1.91427C1.54871 2.99718 2.4734 4.32397 3.61512 4.32397Z" fill="#56A56C"/>
<path d="M7.92847 5.66797C7.49328 5.66797 7.06236 5.74929 6.66032 5.90728C6.25828 6.06527 5.89299 6.29685 5.58533 6.58877C5.27766 6.88069 5.03364 7.22725 4.86721 7.60864C4.70078 7.99003 4.6152 8.39878 4.61536 8.81155C4.61536 8.92281 4.66196 9.02952 4.7449 9.10819C4.82785 9.18687 4.94035 9.23106 5.05766 9.23106H11.5577C11.675 9.23106 11.7875 9.18687 11.8704 9.10819C11.9534 9.02952 12 8.92281 12 8.81155C12.0001 8.39869 11.9145 7.98984 11.748 7.60838C11.5815 7.22692 11.3374 6.88031 11.0296 6.58837C10.7218 6.29644 10.3564 6.06489 9.95419 5.90696C9.55201 5.74903 9.12096 5.66782 8.68568 5.66797H7.92847Z" fill="#56A56C"/>
<path d="M8.23048 5.24682C9.3722 5.24682 10.2981 3.92003 10.2981 2.83712C10.2852 2.32526 10.0618 1.83848 9.67552 1.48078C9.28928 1.12309 8.77088 0.922852 8.23107 0.922852C7.69126 0.922852 7.17286 1.12309 6.78662 1.48078C6.40039 1.83848 6.17695 2.32526 6.16406 2.83712C6.16406 3.92003 7.08876 5.24682 8.23048 5.24682Z" fill="#56A56C"/>
<path fill-rule="evenodd" clip-rule="evenodd" d="M2.04497 4.98394C2.44701 4.82595 2.87793 4.74463 3.31311 4.74463H4.07033C4.50561 4.74448 4.93665 4.82569 5.33883 4.98362C5.51483 5.05273 5.68379 5.13594 5.84396 5.23214C4.35201 5.93325 3.82791 7.49407 3.69231 8.30769C3.69231 8.3077 3.69232 8.30771 3.69232 8.30772H0.442299C0.324994 8.30772 0.212494 8.26353 0.129547 8.18485C0.0465997 8.10618 0 7.99947 0 7.88821C-0.000154527 7.47544 0.0854273 7.06669 0.251857 6.6853C0.418287 6.30391 0.662305 5.95735 0.969971 5.66543C1.27764 5.37351 1.64292 5.14194 2.04497 4.98394Z" fill="#56A56C"/>
</svg>