<svg width="15" height="16" viewBox="0 0 15 16" fill="none" xmlns="http://www.w3.org/2000/svg">
  <path d="M12.3068 10.4876C11.8991 10.4877 11.4968 10.5829 11.1303 10.7658C10.7639 10.9487 10.4429 11.2146 10.1917 11.5433L4.92024 8.70691C5.05877 8.23286 5.05877 7.72768 4.92024 7.25363L10.1917 4.42058C10.6044 4.95288 11.1963 5.30827 11.8516 5.41709C12.507 5.52592 13.1784 5.38033 13.7343 5.00887C14.2902 4.63742 14.6905 4.06686 14.8568 3.40903C15.0231 2.7512 14.9434 2.05351 14.6333 1.4527C14.3231 0.851896 13.805 0.391283 13.1804 0.161134C12.5557 -0.0690141 11.8696 -0.0521056 11.2565 0.208546C10.6434 0.469197 10.1475 0.9548 9.86603 1.57019C9.58453 2.18557 9.53771 2.88638 9.73475 3.53526L4.46327 6.36831C4.13717 5.95479 3.69381 5.65496 3.19428 5.51011C2.69475 5.36525 2.16362 5.38251 1.67407 5.5595C1.18452 5.73649 0.760635 6.06451 0.460817 6.49835C0.160999 6.9322 0 7.45053 0 7.98194C0 8.51335 0.160999 9.03168 0.460817 9.46553C0.760635 9.89937 1.18452 10.2274 1.67407 10.4044C2.16362 10.5814 2.69475 10.5986 3.19428 10.4538C3.69381 10.3089 4.13717 10.0091 4.46327 9.59558L9.73475 12.4286C9.56703 12.9831 9.57461 13.5776 9.75641 14.1274C9.9382 14.6772 10.2849 15.1542 10.7472 15.4904C11.2094 15.8267 11.7636 16.005 12.3307 15.9999C12.8977 15.9948 13.4488 15.8066 13.9052 15.4622C14.3616 15.1177 14.7002 14.6346 14.8726 14.0816C15.045 13.5287 15.0424 12.9341 14.8652 12.3827C14.6881 11.8314 14.3454 11.3513 13.886 11.011C13.4266 10.6707 12.8739 10.4875 12.3068 10.4876ZM12.3068 0.966137C12.6458 0.966137 12.9771 1.069 13.2589 1.26173C13.5407 1.45446 13.7603 1.72839 13.89 2.04888C14.0197 2.36937 14.0537 2.72203 13.9876 3.06227C13.9214 3.4025 13.7582 3.71502 13.5186 3.96032C13.2789 4.20561 12.9736 4.37266 12.6412 4.44034C12.3087 4.50801 11.9642 4.47328 11.6511 4.34053C11.3379 4.20777 11.0703 3.98297 10.882 3.69453C10.6937 3.40609 10.5932 3.06699 10.5932 2.72009C10.5941 2.25518 10.7749 1.80957 11.0961 1.48083C11.4172 1.15209 11.8526 0.96702 12.3068 0.966137ZM2.51461 9.5488C2.21184 9.5488 1.91587 9.45691 1.66412 9.28474C1.41237 9.11257 1.21616 8.86786 1.10029 8.58155C0.984426 8.29525 0.95411 7.9802 1.01318 7.67626C1.07225 7.37232 1.21805 7.09313 1.43214 6.874C1.64623 6.65487 1.919 6.50564 2.21596 6.44518C2.51292 6.38473 2.82072 6.41576 3.10045 6.53435C3.38017 6.65294 3.61926 6.85377 3.78747 7.11144C3.95568 7.36911 4.04546 7.67204 4.04546 7.98194C4.04546 8.1877 4.00587 8.39145 3.92894 8.58155C3.852 8.77165 3.73924 8.94438 3.59709 9.08988C3.45494 9.23538 3.28618 9.35079 3.10045 9.42953C2.91471 9.50828 2.71565 9.5488 2.51461 9.5488ZM12.3068 14.9977C11.9683 14.9958 11.638 14.8912 11.3575 14.6973C11.077 14.5034 10.8588 14.2287 10.7306 13.9081C10.6024 13.5874 10.5699 13.2351 10.6371 12.8955C10.7043 12.5559 10.8683 12.2444 11.1084 12.0001C11.3484 11.7558 11.6538 11.5897 11.9859 11.5228C12.318 11.456 12.6621 11.4913 12.9747 11.6243C13.2872 11.7574 13.5543 11.9822 13.7421 12.2704C13.93 12.5586 14.0303 12.8973 14.0303 13.2438C14.0298 13.4748 13.9849 13.7035 13.898 13.9168C13.8111 14.1301 13.684 14.3237 13.5239 14.4866C13.3639 14.6495 13.174 14.7785 12.9651 14.8662C12.7563 14.9539 12.5326 14.9986 12.3068 14.9977Z" fill="#175EDC" />
</svg>