<svg width="638" height="940" viewBox="0 0 638 940" fill="none" xmlns="http://www.w3.org/2000/svg"><path d="M788.294 922.459h4.172l3.084-1.814 3.99 6.712 3.084-.182 6.349-1.632 6.712.363 2.54 1.814 4.716.362 4.172.907 5.986-1.269.726.725.181 5.079 2.177.363 1.27-1.27 3.084-1.088h3.265l2.902-1.451-.725 6.349-1.633.725-7.981-.181-14.694 1.814-9.614.726-1.27-.363-1.27-3.991-5.986-1.995-11.247-1.814-2.721-.726-5.623.363-1.995-1.814-.726-3.265.363-3.447 2.539.544.726-2.539 3.447 1.995zM1178.3 752.85l3.45-5.442.73-3.084-.73-4.353-3.08-4.898-6.72-14.512-1.99-2.177-7.26-2.54-1.99-2.902-5.81-3.809-7.43-1.633-8.71-5.261-5.26-3.083 1.63-3.81 1.45-.363 8.71 1.633 2.72-.726 10.7 4.535 6.53 1.27 5.63 3.084 10.88.907 5.08-1.088h3.26l3.63 1.995 4.36-.363 5.8 2.177 2.72 2.902 6.35 2.54 5.08 1.451 5.81 2.721.36 4.354 4.53.725 7.8-3.809 3.81-1.27 3.27.363 3.44 3.447 1.46-3.991 8.34 3.084 3.81 3.265 5.08-.182 3.99 1.814-.36 7.619 5.26 2.54 2.9 2.177 6.17 1.269 5.62 2.721-2.18 3.81-2.17.544v2.358l1.99 1.451 1.63 2.721 8.17 4.717 1.63 1.451-.36 3.628-3.27 2.54-7.43-3.628-3.09.907-5.8-1.633-2.54-1.814.18-1.27-7.26-2.539-3.44-.726-5.45 4.535 2.36 2.721 2.9 1.814-1.63 1.633 4.17 1.814h2.18l5.99 4.535v1.269l-3.45 2.721-.36 1.996 5.8 6.167 4.36 2.54 5.8 2.721.36 1.633-1.63 4.535h-5.44l1.09 1.632 3.44 2.177 11.07 7.982 2.72-.545 3.99 1.633.36 2.358-1.81 2.54 3.45 2.539 1.45 2.721-3.27.907 2.54 2.721.91 4.717-3.99-.182-4.54.907-5.44-8.525.18-1.814-5.62-3.81.18-3.084-1.45-2.176-3.08.362-3.45 1.633-5.26-2.902-2.18.362-.54-1.995-3.27-3.084-5.8 1.633 1.45 1.632-5.99-3.446-2.54 2.902-.18 6.893-1.09.726-5.08-.181-2.17.725 2.17 4.535 2.54 2.177v4.172l3.81 4.535.37 3.81 1.63 3.99.54 3.991.91 1.27 2.54.544-1.09 6.893-1.09 2.177-.72 3.628 3.08 1.089 5.81 3.628.18 2.358 1.09 2.721.54 3.628 5.8 4.172v4.172l-3.81-.907-6.71 5.624-2.17-2.177-.55-4.354-2.72-2.721-2.36-.363-3.81 2.54-7.62-.544-5.26-1.996-5.26-1.451-3.44 1.089-3.99-1.27-2.73 3.446-3.62 3.447-2.18.544-2.9-4.716-2.36-.363-2.18 2.358-3.99 1.451-8.34 1.814-5.81.545-7.43-1.089-5.81.363-5.62 2.54-9.44 5.079-7.43 2.539-7.62 1.633-13.79-.363-1.99-.544-6.35-4.172-6.17-1.089-6.17 2.903-4.17 1.451-6.35 2.902-8.71-.181-3.44-3.084-6.71-1.27-1.09 2.903-.55 6.893 3.27 5.623-5.99 2.54v4.716l-3.26 1.996-1.45 2.902-4-2.177-1.81-.181 1.27-2.358-4.53-8.889 1.27-2.721 6.34-7.074-.72-4.354-3.63-2.902-5.26 3.809-3.08 1.451-.55 2.177-1.99 1.451-3.27.726-5.26-1.814-5.8-2.54-3.45-1.995-2.54-.544-2.36.907-6.35 5.079-5.62 7.437-1.45 1.451-5.81 3.084-3.99 1.089-1.81-.182-7.98 1.451-3.99.182-2.907 1.632-6.349-1.814-3.99-2.358-2.54-2.358-4.172-5.261-2.903-2.358-5.986-2.177-10.521-5.442-9.614-1.269-7.256-.545-1.27 1.996.181 7.619-.907 2.176-.181 3.991-1.995 1.996-3.81-1.814-3.446 1.632-6.712 2.358-2.177.182-8.344-2.903-5.261-3.809-1.088-3.628-2.359-4.898-3.265.544-4.172-.725-5.805-2.903-4.353-.181-2.177 3.447-1.814 1.269-2.358-.725 1.451-2.358-6.712.362-3.265 1.814-2.721-.181-1.814-1.814 3.628-1.088 7.074-.726 1.633-.726 1.633-2.358 3.083-2.177-2.176-.907-10.884.545-7.619-.363-1.814 1.27-.726-2.903 6.531-2.539-.545-2.359-7.618-3.99-.545-2.903-3.628-5.623 3.447-.907.181-4.535-.725-2.721-7.075-2.358-1.451.181-1.995-2.358-3.084-1.633-2.177 1.27-5.986-2.54-1.089-1.088.907-2.54 1.814-1.995-1.632-3.447-.182-1.814 3.266-.181 1.814 1.995.544 3.991 6.53 1.27 5.261-1.088-4.535-1.996-1.996-2.177-2.176-4.172 3.265-1.995 2.177-3.084-4.898-2.177.363-4.353-4.535-4.898.544-1.451 4.172-5.08-2.177-1.269-7.8 1.269-2.902 1.089-5.624.363-.544-2.903 1.088-2.358-.907-6.168.363-3.265 3.084-1.088 3.084-4.898 5.442-5.623h6.349l2.358-1.633h3.809l1.452 2.177 3.446 1.632 5.805-.181 2.54-1.633-2.903-2.721 3.084-.907 2.721.726-.181 3.265 7.437-.907 7.982.726 2.539-.363h6.168l.907-.907-6.531-3.084 3.628-2.721 12.336-2.177 6.711-1.451-10.339-1.451-2.54-1.088-3.628-2.54-1.814-1.995.544-4.717 1.089-1.27 3.99-.181 13.968 2.177 9.614-1.451 11.066 3.265 10.158-.726 1.996-1.27 1.995-4.716 13.424-7.619 4.353-3.809 5.079-2.177 9.07-2.54 7.256-3.083 2.177-.363 18.864 1.451 12.7.181 5.44-2.902 3.63.907-.18 3.809 4.71 4.717 6.35 2.539 7.99-2.176 3.26.907 3.99 7.256 2.72 2.539 3.27 1.633 2.36.363 2.72-2.54 3.08-.181 5.26 2.358 2.18 2.539 8.71 1.996 7.8 1.088 3.62 2.177 11.25 2.177 3.99-.363 6.53-2.358 12.7-2.358 9.43 3.446 4.54.182 3.08.907 3.08-.545 9.07-4.172 2.54-2.177 3.09-.725 9.43-5.986 1.63-2.54zM881.533 911.212l-3.084-.725.726-3.266-1.27-2.902 4.172-4.898 5.805-2.358 1.633 1.633-1.633 4.535-1.632 2.358.725 1.814-2.902.363-2.54 3.446zm-16.87-222.033l4.716.907h3.628l.363 6.711-1.632 3.266-3.628-1.089-3.991.907-1.814 3.628-2.177 2.177v4.716l.726 7.619-2.903 1.27-5.26 6.712 5.442 3.265 3.083 3.991 4.354 4.535.907 2.177-.181 3.265 1.814 3.628 4.172 4.898 3.628 2.539 14.693 5.986 2.54.545-1.633 6.349-3.809.907-11.61-2.721-2.902-.182-5.261 2.54-4.172-.726-5.623 1.089-1.089 3.809-3.628 4.354-5.986 3.446-4.535 1.814-6.349 6.712-2.721 3.991-2.721 1.27.907-3.628-.544-3.084 4.172-3.628 5.986-2.903 1.27-2.358-9.796.544h-5.986l-1.814-3.265 1.451-.725-1.451.725-.907-1.27-3.809-2.176-8.345-1.089-4.172-1.632-1.632.362-3.628-1.814-2.177.726-4.535 3.084-2.721-.363-2.903-1.814-3.99.726-3.084 3.446-3.265 1.814-3.266-.725h-4.172l-.363 1.995 3.628 3.809-.907 1.814.907 1.814 3.81.182 4.535 2.358-1.27 1.27-5.805-2.177-2.177-.181-2.176 2.176 6.349 4.898.907 2.54-1.089 1.632-2.721-1.451-4.535-5.805-5.623-1.088-.726 1.088 2.177 4.354 5.261 3.084-1.089 1.088-5.442-1.814-1.995-2.902-.726-3.628-9.977-5.079-2.539-5.08-3.991 2.359.725 3.628-1.088 6.893.726 2.358 6.349 6.712 2.358 4.898 4.716 3.809 4.717 5.805 1.269 3.265-2.358 1.995-2.358-.907.544-3.446-3.991-2.177-3.446 2.177 2.721 4.172.907 2.177-.726 2.358-2.902 1.451-4.717.182 4.354 2.539 5.986 1.814 2.903 1.996 2.721.181 3.083 3.809 4.717 1.089 3.084 3.809 3.628.907 3.083 1.451 1.814 3.81.545 5.26 1.088 3.81.181 3.084-1.995.907-2.358-2.903-7.619-6.53-1.814-.726-1.814 1.27-5.261.907-3.446 2.358 2.721 2.358.181 2.177 1.451 2.721 3.628.726 3.628 4.353-5.442 1.814-1.995 1.27-1.451-.907-.363-2.177-7.8-3.99-1.089 1.088 1.27 4.354 2.358 2.902 3.991 7.8 2.358 6.712-.362 3.809 1.814 2.721.181 2.721-3.084-2.176-3.991-4.535-1.451-2.721-3.991.181-2.358 5.986.363 3.447-2.902-1.996-.363-5.26-3.81-5.079-1.632-.726-2.358-3.447-2.721 1.089-.182 5.26-.725 1.814-3.991-3.446-4.172-6.349-.363-3.265 2.539-3.084-.544-2.177-2.902-4.535-3.81-2.721-2.176-.907-1.27-2.902-3.628-2.359v-1.814l3.628-3.083 1.814-4.717 3.446.907 2.54-.363 3.628-4.353 2.902.181 7.075 3.81 7.619 2.176 3.809 1.814 2.177 1.996 2.902.544-.907-2.54 1.452-.725h3.809l.363-2.903-3.628-1.088-1.451.363-4.354-2.54-4.172-1.451-3.991-2.721-2.177 2.358h-2.177l-6.167-1.632-3.81 1.269-7.618 1.27-1.996-2.358-4.716 1.814-1.814-1.27-3.447-7.619-3.084-3.446-2.176-.907-.363-3.447 2.721-.363 4.353 1.633 1.633-1.088-1.088-2.903-4.535-.363-3.266.907-5.079-3.99-2.721-3.084-3.991-1.996-3.083-6.167-4.717-4.717-1.27-4.535-3.083-4.897-8.889-4.717-2.177-1.995.726-2.721-.182-2.54-2.539-4.353.544-4.717 1.451-3.991-.544-4.897.181-3.81-1.269-5.26.907-3.81 1.632-2.358-.363-3.991-2.721-1.995-2.902-.363-3.809-2.177-1.633-3.265-5.623-5.261-6.349-3.628.181-1.814-2.902.182-8.708-5.624-7.981-4.535-5.624-1.269-7.8-3.628-.907-1.633 10.521 3.628-1.995-1.088-6.349-5.08-4.716-2.721-5.624-5.079-6.893-1.995-4.898-2.177-5.986 1.088-3.265-.362-1.27-3.991-10.521-7.075-7.8-7.256-1.452-2.358 5.624-2.177-2.54-1.451-7.074-6.168-2.177-2.902-.182-7.437-1.451-3.084-5.26-3.991-1.996-1.995-3.809-1.27-2.54 1.632-.544 3.447-5.442 9.07h-2.358l-5.624-7.619-.907-3.446-2.358-7.075 1.27-.907 3.084-1.995 1.27-1.089-3.628-3.991-3.628 1.633-5.805-1.633-3.81 3.628-2.721.726-3.083 1.995-5.805 2.177-3.265-.725-1.814 1.269-.726 5.624 1.451 1.088 2.721 4.717 3.084 1.995-1.27 3.447-1.632 1.269-2.359-.907-.544 3.084 1.633 8.163 2.539 5.805 2.177 2.358 4.898 3.991 4.898 1.995 9.251 6.712 5.079 1.996 1.27 1.269 3.265 5.08 2.903 5.804 3.265 9.252 2.358 4.535 4.172 5.26 8.708 7.438 7.8 5.26 7.256 3.447 5.442.544 12.698-.725 4.716 1.269.726 2.177-.726 1.633-5.26 3.809v3.084l2.721 2.177 12.879 5.805 13.061 4.716 3.991 2.54 4.897 3.809 11.61 5.261 1.995 2.539 7.256 5.442 3.266 4.354.907 3.265-2.721 7.982-2.903-.907-3.446-2.359-5.624-9.795-9.07-.907-5.26-2.358-1.27-2.54-4.172-.726-2.359 1.633-2.539 3.628-2.721 5.442-2.721 7.8v3.084l1.995 3.084 5.261 1.814 4.353 2.721 2.903 2.902.544 6.893 1.633 3.81-1.633 2.358-3.447-.544-4.535 1.27-3.083 2.539-1.27 2.54.907 6.167-.544 2.54-5.987 4.535-2.902 4.535-1.814 4.172h-7.8l-1.996-2.721-.181-3.991 1.088-2.358 2.903-1.27 1.632-5.079-.907-3.628 1.996-2.902 5.079-1.27v-5.261l-2.54-2.358-2.539-9.251-4.354-7.8-2.539-6.894-1.996-3.265-2.539-1.814-6.712-.544-8.345-4.716-.544-1.996 1.089-1.995-1.996-5.079-3.628-3.084-4.716 1.088-2.177-.181-.181-2.721-3.628-2.358-4.898-.363-1.27-1.27-4.716-7.256-3.084-3.084-4.172.182-7.075-1.633-3.628 1.27-5.805-4.717-5.079-1.632-10.34-9.614-3.265-3.628-6.349-3.991-4.172-5.805-3.265-2.177-7.256-2.539-.545-2.359-5.623-5.623-3.084-1.814-2.358-3.809-4.535-.907.181-4.898-2.176-6.349-3.084-3.991-2.177-9.614-1.451-2.721-3.265-1.996-7.256-2.176-10.34-6.168-1.996-.181-6.167-2.359-3.81-.362-4.716 2.176-5.623 5.805-4.535 6.168-1.633 1.088-6.168 2.177-5.442.907-1.088.544-1.451.544-4.354 1.996-7.074 6.167-3.266 1.814-1.269 3.266-3.628 2.539-4.354.907-4.172 1.814-1.996-.725h-5.079l-3.084-2.177-6.167-1.451-1.996-3.266-4.535-.181-1.451-2.721-3.446.544-2.721 1.27-3.628-.181-10.703-3.266-2.54-2.539-3.083.907-2.903 2.902-11.791 7.438-4.716 7.8-.182 2.177 1.27 7.074 2.903 4.535-5.624-1.088-6.893 1.995-2.177 1.451-8.526-2.176-3.809 1.995-2.358-2.177-5.079-2.177-5.08 1.996-1.269-.726 1.269.726 5.08-1.996 5.079 2.177 2.358 2.177 3.809-1.995 8.526 2.176 2.177-1.451 6.893-1.995 5.624 1.088 2.176 3.991-3.265.907-.363 2.54 2.177 2.358.182 3.809-5.442 5.079-15.782 8.526-5.261 4.898-11.972 2.721-8.163 2.721-3.991.907-7.437 6.893 1.995.544 2.177 2.177-.726 1.089-4.535 1.995h-1.632l-5.261 8.344-4.716 5.987-2.721 2.721-2.721 3.809-5.805 10.158-.182 2.903 2.903 9.977 3.991 4.898 4.353 1.995 1.089 1.814-1.452 1.814-4.353 3.084-7.8 4.172-3.266 3.447-.544 3.265-2.358 1.451-.907 4.535-3.265 7.982 2.358 2.176-2.358 1.452-11.791.544-7.438 5.079-3.628 4.354-3.446 8.163-3.991 4.716-1.814.907-2.721-2.177-3.447-.181-3.446.544-1.814 1.814-2.721.907-2.721-.907-8.345-.363-4.172 1.451-3.446-.907-5.805-.544-12.698 1.089-7.256 6.167h-6.168l-5.623 2.177-3.81 5.442-.907 2.902-1.814-.544-.544 2.177-3.81 1.451-4.353-1.814-3.628-2.721-1.814-.181-2.902-3.991-2.177-5.623v-1.996l-2.721-1.088-.544-2.54.363-2.902-2.177-3.628-9.07-6.712-6.712-.544-5.442.907-2.177.363-8.163 4.535H37.48l-4.535-1.996-8.163-.725-2.721-.545-3.265 1.27h-2.721l-1.996 1.814-1.45-.544 1.813-3.809 2.903-7.438v-4.716l.725-3.991-.544-3.809-1.27-2.54 1.996-6.349v-3.265l-1.633-4.172 5.08.544-3.085-2.54h-2.72l-4.173 1.633-2.72.181.18-2.539-.906-3.266 3.628-1.088 2.902-3.084-.544-2.902-2.177 1.995-1.088 2.54-5.08 1.27-2.72-.907v-3.447l1.088-3.084.725-4.172 1.452-3.991-.363-2.539 2.902-2.359 2.54-3.446 7.8-16.145-1.088-1.814 3.083-11.972 2.177-4.172 1.089-7.801-.363-3.628-1.27-3.628-1.27-7.8v-2.539l-1.632-3.266.181-1.814 2.54-3.083-2.359-.182v-4.535l4.717-4.716-2.903-.363 2.177-3.447-1.814-1.814.182-4.716-4.173 1.633-.907-2.177 2.54-3.991-2.54-.363-4.172-4.535 1.451-5.623 3.628-1.814 3.447-2.721 4.716.544 3.084-.544 6.53-2.903-.725-2.721.726-1.269 5.804-3.084 3.628-.363 3.447-1.633 2.358.907 1.996-.181 2.358 1.088 3.084 2.903 4.535 1.088 3.628-.907 6.53-.181 3.084.363 5.805-.545 3.265.182 5.26-1.451 4.173 1.814 7.981.725 4.717 1.451 13.06 2.54h4.898l6.712-1.451 2.902-.907 2.721.544 3.81-1.088 4.172 1.814 8.526 2.358 3.809-2.358 6.168 1.088 5.986 2.358 3.265.182 4.717-.545 4.535-1.814 3.628-.907 3.446-3.446 3.084-12.88 2.358-15.056 1.814-2.902 2.177-.726-1.814-2.177-1.995 2.721 1.269-13.786.907-5.079 1.633-5.442-1.995-4.172-.907-2.359 3.265-1.088-.907-3.265-.907-10.703-5.442-1.088-8.707-4.717-3.084-4.716-2.903-3.447-.725-3.083 1.632-3.266-1.451-1.995-2.539-1.451 1.995-2.903-5.442-.362-3.265-.907-.544-1.996 2.358-2.539-2.903-1.452-4.716.363-.363-3.084-3.991.545-2.176-.545-1.996-1.995-2.358.363-3.991-.726-1.451-1.27-8.707-2.358-3.628-.181-3.447 1.088-1.995-.544-2.358-3.991-5.624-1.995 1.089-1.27 5.623-1.088 1.088-1.27-3.99-1.633-.363-2.177 2.902.545.182-2.177-7.256.181-.726-2.358.907-2.54 4.172-2.176 10.521-2.54 4.535.363 3.084-.363 5.442-2.902 5.261-.726 4.898 1.451 4.535 5.079 2.176 1.814 5.624-3.083 7.981.181 1.633 1.633 2.177-3.084 1.814 1.814 8.526-.363-2.721-4.535-.363-10.884-2.358-3.084-3.81-7.8.363-2.54 5.805.545 4.898-1.089 2.358.726.544 5.079 1.995 2.902h3.991l4.172.907 5.442.182 7.801 1.451 3.265-.907 6.349-3.628-3.265-1.27-.363-1.27 1.632-3.99 9.433-4.535 6.712-1.27 6.893-2.358 3.628-2.54 2.177-3.265.907-2.358.544-12.336 1.814-3.99 5.261-2.903 11.609-1.995 1.633-.907 1.633 3.991v2.176-2.176l-1.633-3.991 9.251-4.535 8.526-3.084 5.079-.726 6.349 1.27-1.269-1.451-5.08-1.27-3.083-2.358 2.176-1.27 4.173-.181 7.256 1.27 2.176-1.633-1.088-1.814-4.172-3.809 2.902-4.898 2.54-1.814 5.805-6.893 1.632-3.628 2.177-9.977 1.814-3.628 2.54.907 3.628-1.452 6.167-3.628 1.814-3.083 1.814-1.633 7.256-2.902 3.81-.726 16.144-.907 3.265 3.084 4.898 1.088-3.084-2.539.907-4.898 1.996-2.54 1.632-.725 7.256-.545 8.163.182 3.447 3.991-1.088 2.176 2.902.545 1.633-4.354 2.539 1.451 1.996-.181-.907-3.084.362-2.902 1.633-2.54 5.986 1.088 6.531-.544.181-1.088-5.079-.907-1.633-1.996-.363-7.074-2.721-1.451-2.902.544v-2.721l6.168-1.996v-1.814l-6.168-6.893-.363-2.902 4.898.181 9.433 2.358 5.623-1.269 2.721.725 3.265 1.27 2.903 2.902.181 2.54-3.084 2.902 5.805-.544 1.451 2.177 3.084-.726 8.163 3.266 5.805-1.633 1.27 2.54-1.089 2.721-3.99 2.902 2.539 2.177 3.81-.363 6.53 1.633 5.986-4.535 1.996-.907 6.53-.545 9.251-8.163 9.615 1.633 2.721 3.447 6.711 3.809 5.805-.363 2.358 3.628 1.452 4.535 3.446 2.358 5.079.907 5.08 1.633 1.269-.907-.181-3.265-7.437-1.27-.182-2.177 3.628.726 6.893-2.54 11.791-3.265 12.517-3.084 5.986-.907 3.628-3.991 3.447-3.083 6.893-1.27 2.358-1.451 5.079-2.177 11.973-2.177 9.977-.726 9.795 4.173-1.632.544-5.442-2.177 3.991 6.349 1.995 2.177 3.628 1.632 3.084.545 8.888-.907 3.991-1.996.907.182 11.973.725 41.54 1.633 12.698.181-2.358-3.628v-3.809l1.814-5.624-2.358-2.358-2.54-1.088-1.632-2.358-10.34-.182-4.354-1.088-7.074-2.54-3.628-2.177-3.266.363-1.088-2.177.363-2.902-1.996-4.354-2.902-5.26-1.27-6.893-1.451-5.08-1.088-9.977.181-5.079 3.447-2.902 1.451-2.177 1.088-8.163 4.535-6.53 4.354-.726 5.623-1.814 6.349-1.633 2.54 3.447 8.888 5.442 2.177 1.814 4.172 6.168 7.982 3.265 5.623-1.089 6.531-4.353 1.814-1.996v-1.995l-2.177-8.526-1.995-3.628.181-2.358 1.814-6.168.181-6.53-4.172-.726-1.632 2.359-2.359.544-7.437-2.358-2.177-3.81-2.902-1.995-1.451-2.177v-3.265l-2.721-3.628 1.269-1.996-1.269-5.079 5.442-2.177 5.986-.362 1.632-2.359 3.628-2.358 4.173.363 5.623-1.814 11.428.181.726-3.083h5.805l13.786 2.176h3.265l5.079 2.177 2.54.544h7.256l11.428.907 2.177-1.814 2.721 2.177-1.814 2.54-2.177.725-1.632 5.805-1.452 1.814-3.083-.544-4.535.363-3.628.907-2.359 1.995.182 1.996 4.716 4.172 2.54 5.079 4.716 3.991 1.451 2.358 4.354 5.261 3.265 4.535-4.172 1.088-2.177 3.628-.363 3.628 3.447.544.907 1.996 5.805 3.083 1.27 3.991-1.452 2.903-.544 5.623 3.265-.544 1.814 1.088.545 2.177 3.083 3.809 2.359 1.452 3.446 7.618-.544 3.084 3.265 2.358 2.177-.725 3.447-.182 5.623 3.991 2.902-1.632 2.721-.545 6.531 2.177.363 4.172 3.083 2.721 3.81-2.358 4.898-1.995h6.167l4.898 1.632 4.354 3.266 6.349 2.539.725 4.535-1.088 3.265 3.809 3.81.907 2.358-2.358 3.628v3.628l7.437 3.628.907.907-.907 3.265 2.54 1.089 3.265 4.353 2.721 2.54 8.889 3.809 1.27 1.451-.726 5.08 9.614.907 5.805 2.358v1.995l1.27 1.996 5.079 2.539 1.088 3.084-4.716 1.814-.544 1.633-5.442 3.265-6.349-.363-4.354-2.721-5.26.181-2.54 4.898 7.075 5.986 1.088 1.814-.363 2.721 1.814 2.721.907 5.987 2.903 2.539 2.358 3.265 4.716 1.452 3.084-.182 3.265-1.632.907-4.354 2.903-1.088 6.711 1.632 1.814-.181 4.898-2.177 2.903-.363 3.628.544 6.167-.362 4.535 2.539 2.54 2.54 3.084 4.898 7.256 5.442-.182 1.814-5.26.907 2.358 3.446.907 3.628 2.177 3.084-.726 1.814 5.623.181 5.261 1.814 7.437-.907 2.721 3.991 3.447.363.363 1.633 2.539 5.079 1.633 1.995-.363 3.265.907 1.814 3.447 2.903 1.27 1.814 1.992.725 4.18-2.539 5.07.725 4.9 3.628h4.17l3.09 1.996 2.54-2.358 7.8-1.633 4.17-1.814 1.81.181 4.18 3.266.9 2.176 2.72 2.903 8.53 5.26 2.36-1.088 1.63-2.721 4.72 2.54 4.35.362 6.53 3.447 2.54.181 2.9-1.088 3.63 3.265 3.45.363 7.98 4.172 5.26-.544 1.81 1.451-.18 3.084 1.82 1.633-.18 4.716-3.09 3.809-4.17 1.452 1.99 2.721 5.63 1.632-1.63 1.633-2.54-.363-1.46 1.814-.54 4.172 4.54 1.27 2.17 5.079v1.996l2.18.544-2.36 8.526-.18 3.265-7.62.363-10.88-.545-1.64.363-1.63 3.447-4.17 2.539-3.08.363-1.46 1.451v4.173l-.72 2.358 1.99 1.27-1.27 2.902.91 2.358-.91.182-7.8-.363-6.16.544-3.81 4.354h-2.72l-5.81 2.721-2.54 3.083-2.54-1.451-5.62.907-3.08 1.996-5.63-.182-4.17 1.089-8.34 6.893-2.36.181-1.82-1.814-2.9 4.717-4.35 2.176 1.09 5.624 5.07 8.163 6.53 7.074 3.09 2.54 4.35 1.27 5.63-2.54 4.35.726 3.08-2.177 2.72-.181 6.72 1.814-2 4.535-.54 4.716-3.45 1.088-3.99-.181-3.99.726-4.9-2.721h-4.53l-2 3.446-4.17 2.358-1.09 2.54-4.72-.544-3.81.363-5.08 2.539-3.442 5.079-4.173 3.266-3.446.907-3.628-.182-2.358-1.088-5.261-3.265 1.27-3.628.907-6.349-2.177-5.261-4.172-2.54-2.903.363-1.632-.544-6.712-4.354-3.447-.362-3.446.907-2.721-2.177 6.349-5.261 6.349-4.353 3.084-.363 3.809-2.177 3.991-2.902-2.358-4.173-3.447 1.089-3.991-1.996-1.632-1.451-5.624 1.451-3.265-.181-6.893 1.451-3.447-1.451-7.256-3.628-4.716-.544v-1.814l3.265-.544.181-1.814-6.893-1.089-.181-2.358 3.628.907 5.805.363 5.26.907 3.81-3.265-4.354.907-5.261-.907-3.809-3.266-3.991 2.177-5.805-.907-4.353 1.451-4.172-.362-7.438 1.995-.725 5.261-3.628 7.256-5.624 6.711-8.344 3.81-3.084-.726-1.633 1.996.363 2.358 1.814 1.632 1.996 5.624-.182 2.358-.363 7.8-1.269 3.81-11.247 2.358.725-1.089-1.269-3.628-1.814-1.814-1.633 1.996 1.088 3.084-1.269 2.539-.363 4.354 1.088 1.632-2.902 3.628-.907 2.359 1.451 8.707-.726 6.712h-3.628l-4.716-.907zm-96.868 214.596l-2.539.363-1.27-3.991.907-1.814 3.809 3.809-.907 1.633zM588.209 846.09l-2.176 4.535-5.08 7.8-2.721 9.251.545 3.628 2.902 2.54-1.27.907 2.903 3.265.181 2.358-3.265 3.447-.726 3.084.182 2.721-5.261-1.089-2.54.544-6.711-2.539-3.447-5.079-5.442-3.628h-5.442l-2.54-.907-5.26-3.447-5.442-2.54-4.717-3.809-3.083-.726-2.721-1.814h-5.261l-4.172-2.902-2.358-4.172 2.358-6.712 2.539-1.451 1.633-2.177 4.172 4.172 3.265-1.451 2.54-2.902 4.354.181.907 1.633 2.539.544 4.535 2.902 2.54.726 6.167-1.814 5.442.725 5.08-.907 3.083-1.088 2.177-1.814 2.54-.544 6.349.544 3.628-2.177 1.451.363 3.628-2.177 1.995 1.996zm264.119 11.609l5.079 1.27-1.27 1.814-2.902 1.633-3.084-1.633-2.177-2.177 4.354-.907zm-82.9-32.47l1.633 3.083 9.977 4.535 5.079.545 3.084 4.716-.363 1.088 2.721 6.894 1.995 1.632 4.898.544.726 3.447-1.633 1.451-3.447-1.27-3.809-2.902-.726-2.358-3.99-5.261-6.531-.363-2.721-1.269-1.088-3.084-2.721-1.633-3.628-3.446-2.721-1.996-5.442-1.995-1.089-1.27 3.447-2.358 3.809-.907 2.54 2.177zm-511.729 1.088l-.726 1.814-3.628-.726v-2.721l2.177-2.902 4.898-1.27 1.451 2.358-4.172 3.447zm188.474-55.508l1.27 1.632 3.265 9.07-1.088 2.903-2.358 3.628 1.451 5.079-1.089 20.861-1.088 5.26-1.633.726-5.26-2.177-2.721.544-2.177-1.088-.544 5.442-3.265 3.809-5.442-.362-1.27-1.089-4.354-6.893-.725-7.8 1.088-2.358v-4.535l1.995-.182v-3.084l-3.265-2.176v-3.447l1.27-2.54-.181-4.716-1.452-1.633-1.451-4.172-3.991-4.353.182-6.168 6.167 1.088 2.359-.544 5.623-2.721 3.809-4.535 2.54-.907 2.721-3.265 1.27 1.633 3.991 1.451 2.176 2.721 1.633.907-1.27 2.539 1.814 1.452zm392.006 43.898l-.182 1.633 3.447 2.721 1.27 1.814-2.177 3.809-7.256-1.451-1.451-1.451 2.902-2.358-1.633-.907-2.176 2.721-3.991-1.27-1.633-1.633 1.27-2.539 2.721.181 3.084-1.451v-1.088l4.172-.363 1.633 1.632zm-541.117-13.06l2.177.907 2.358-.907 2.54.725.363 1.814-3.991 6.349-1.088 2.54-3.81 2.358-7.256-3.084-.544-2.902-2.54-1.27-3.083 2.358-2.54-1.814-.544-2.177 9.614-6.711 2.721-1.633 5.805-1.633.907 2.177-1.089 2.903zm26.666-1.452l-.544.363-7.075-3.446-2.902-.726.181-2.54 4.717-.362 3.809 1.269 2.177 3.266-.363 2.176zm472.729-21.949l-2.903 1.088-3.265-1.995 1.995-4.172 2.359.181 1.814 2.358v2.54zM440.55 716.389l-.544 4.172 1.814 3.084 1.088 11.791-3.265 5.804.181 5.442-2.902 7.801-1.451 1.995-6.894-3.628-2.176-1.995 1.814-3.266-3.991-1.632.725-3.084-.362-1.633-2.903-.907 1.814-2.358v-1.451l-2.721-1.814-.544-1.633 2.358-1.995-1.088-1.633.181-2.358 1.633-3.446 2.177-1.633 5.079-1.451 2.177-1.996 3.446 1.089 1.089-2.177-.363-4.898.544-1.995 2.358.907.726 4.898zm-249.062-6.349l3.265-.726 7.981 3.084 3.991.363 3.991 3.809 6.53-.726 5.805 3.81 5.624-.726 1.269.726h8.526l1.451-4.354 7.256 1.996 4.535 1.814 3.084.544 1.996 2.721 1.632-1.27 4.717 1.088-4.717-1.088-1.632 1.27-1.996-2.721-3.084-.544-4.535-1.814-7.256-1.996-1.451 4.354h-8.526l-1.269-.726-5.624.726-5.805-3.81-6.53.726-3.991-3.809-3.991-.363-7.981-3.084-3.265.726zm269.741 4.897l.545 2.54-4.535.907-1.996-1.995 5.261-.363.725-1.089zm142.581-3.809l4.172.726-1.995 1.632-2.177-2.358zm11.972-3.628l-1.451.181-10.158-.181-3.084-.544-.907-2.358 3.265.362.907 1.089 11.428 1.451zm-432.457-7.982l.907 2.359 7.8 2.358-7.8-2.358-.907-2.359zm422.843 3.81l-3.628.181-4.716-1.451.544-1.995 8.707 1.088-.907 2.177zm-212.419-16.689l3.809-4.716-3.809 4.716zm173.962-13.242l-.544.725-5.986-4.897-.544-3.447 5.079 4.898 1.995 2.721zm-16.507-9.07l-1.633-.182-3.084-7.618.726-2.177-1.451-3.628 1.632-.544.907 3.809 1.814 1.633-.181 2.902 1.27 5.805zm7.619-2.721l-3.447-.363 1.451-1.995 1.996 2.358zm-.907-6.168l-2.721.544-1.814-1.814-2.359-.362-1.814-1.814 1.814-1.27.907-2.177 5.987 6.893zm-29.46-24.489l-.109.544 3.447 1.996 2.721 2.358-2.721-2.358-3.447-1.996.109-.544zm-330.801-1.451l-.725 2.54-3.447-4.354 1.814-.907 2.358 2.721zm-56.778-243.983h-3.809l-1.452-1.633-1.995.182-4.535 1.995-6.349-2.358-1.995 4.172-4.717-4.535-.544-3.446h2.358l2.177-4.354 5.261-7.256 1.088-2.177-.907-2.539-3.447-2.721.545-4.717 1.451-1.814 2.721-.725-3.447-2.177-5.26 1.632-3.266 1.633.545-3.628-1.089-.726-2.721 2.54.182 5.986-3.81 10.34-1.995 1.633-2.54-.907 1.996-7.075 2.539-4.535-1.088-.544.544-6.531 1.814-5.26 3.084-6.893 3.991-6.349-7.438 4.897-1.814.907-4.353-.725-1.452-1.27-1.814-4.172 3.266-.363 3.083-1.995-2.721-1.27 2.721-1.633 3.084-3.809.726-3.447-1.814-2.721-2.903-1.088-.362-1.633 3.083-3.446-1.269-2.721 2.902-5.624 5.442.182 3.447-.726-4.173-3.628 1.27-5.261 6.712-.544-1.451-3.265.544-3.628 2.902-1.633 2.359.363 1.814 1.633 4.716-1.633 1.088 1.451 5.08-1.088 6.711-.544 8.163-1.089 3.991-.725 4.172.363-1.088 3.083v2.177l-2.358 2.903-3.991 2.176-7.619 5.08-4.535 2.358-.907 2.902 2.54.182.363 1.451-3.991 2.902-1.089 2.721 5.442-.725 9.615-2.721 6.53.907 4.716-.545 12.517.363 3.447-.544 4.172 2.358 1.814 3.084-5.079 6.168-1.452 4.172-3.628 6.349-3.446 3.628-3.628 4.535-3.81 1.995-5.623.907 8.163 3.447-2.54 3.265-4.353.181-4.172 3.084-3.81 1.27 6.531 1.995 4.353-1.814 4.898-.181 9.433 3.447 6.53 6.167 3.628 2.721.907 1.996 3.81 12.516 2.721 6.893 2.902 3.266 8.163 2.902 1.995 1.088 6.168 5.987 6.168 4.353-2.54 2.721.726 2.177 3.809 5.261.544 2.902-2.358-.181-4.172-2.54-.544 1.27 9.07 5.986 2.902 3.628 1.814 4.898-1.088 1.995-5.442 4.898 5.079 2.54 2.177-.363 3.628-3.81 3.083-.362 7.619.544 6.893 1.814 5.987 3.809 1.269 1.996.726 5.623-3.991 10.521-5.079 3.447-.907 3.084-3.809 1.632-3.084-.544-4.354 2.177 3.084 1.088v3.084l-1.995 1.088-4.535.363 1.995 3.628 4.535.726 7.8-.363 3.447.363-.363 4.898-.726.725-6.893 3.084-1.814 3.265-3.991-.181-1.995 1.27-10.34 3.446-8.888-1.451-5.261.181-7.256 1.089-7.619-2.177-3.265-.363-5.079 3.084-7.619.907-3.628-.363 1.633 2.721-1.633.726-6.893-.907-1.814.907-2.54-.363-4.898-2.54-4.716-.181-8.889 2.177-1.814 2.358-2.358 6.349-1.995 2.177-2.54.363-8.163-4.535-2.721.907-4.535.544-4.898 1.27-7.074 4.353-1.633 2.721-2.358.363-1.995-1.633-2.54-.544-4.172 1.451-.544-2.358 1.814-1.814 5.079-1.27 4.535-3.446 3.991-4.172 8.344-6.894 1.451-5.623 4.898-1.27 2.54-4.535 7.437-1.088h5.079l5.079.907 5.261-.182 1.995-1.269 3.447-4.354 6.53-5.442-8.525 1.814-6.894 4.172-5.804-.725-4.173-3.447-3.809-1.451-3.809.725-1.27-1.632-4.354-3.084h-4.716l-6.531 3.084-4.716-2.177-1.633-4.172.545-2.54 1.995-1.27 4.535-1.088 6.893-3.084 3.991-1.27 5.079-3.446 2.177-4.172-.544-3.628.907-2.54-1.633-3.084.544-2.721-5.442.544-4.897 2.177-1.27-1.995 5.079-3.265 1.814-2.54 4.716-3.084 6.531-2.358 3.446.181 6.712-1.269 4.898 2.358-1.451-3.81 2.177-.725.181-4.354 2.902-3.991-2.176-1.088.181-3.628 2.721-1.451 1.27-4.717-3.084-.907-3.809 1.089-3.084-2.721-5.079-6.531-.545-2.539 2.903-5.624 4.172-3.628-3.447-1.451-2.539.363-4.898 2.177-3.628 2.358zm60.043 111.38l-2.902 2.358-2.358.363-4.535-2.177v-.907l4.535-1.996 3.628 1.089 1.632 1.27zM92.443 404.199l1.27 1.996-3.99.725 2.72 9.433 1.089 1.633v7.437l1.632 5.805.182 4.535-2.359 3.265-1.632 3.809-.363 3.266-2.902 3.809-2.721 1.633 2.902 2.721-5.08 1.451-4.716-.544-2.358 1.451-7.074.363-6.712 1.269-3.084 3.266-4.535 1.269-1.814 1.814-4.172 1.452-3.084-2.177-1.814.363.363 3.809-5.26 2.358-3.266.544-1.814 1.27-10.521 2.54-3.447-.907-5.986 1.451-2.177-.181 2.903-3.266 2.902-2.358-6.893 1.089-2.54.907-1.088-1.089 5.805-3.446-5.987.181-5.442-.726-.725-1.814 5.26-4.172 4.354-1.632-.181-1.633-9.252.181.907-1.995 3.084-1.814 3.265-.181 2.721 1.088 1.996-1.451-1.089-3.084 7.075-4.172 5.442-.544 5.986-1.27 5.986-1.451-4.353-2.177-4.173 3.265-4.716.544-3.447-.907h-3.809l4.898-3.628 2.902-3.084-1.451-1.269 3.628-4.173 6.53-1.814-2.902-2.358-7.075.363-2.54-2.358-4.716.181.726-2.177-6.349-.362.907-1.814-1.088-1.996 5.079-1.088-.363-3.628 3.447-1.451 3.628-.726.181-1.995-3.628-.363-3.628.725 1.451-3.809-1.451-1.814-.726-3.084-1.632-1.814 5.079-.363 2.177-.907 8.526.182 3.446 2.358 3.084-2.177 8.707 1.633 1.089-4.717 6.893-2.721 2.177-3.628-6.712.726-6.53-1.814 1.27-1.451 3.809-1.27L48 382.613l-.544-1.996 3.084-4.898 5.623-1.451h4.354l2.902-1.632 2.177 3.628-1.814 1.814 1.088 1.632 2.177-1.451-.907-3.809 1.633-2.359 3.446-.544 1.089-1.451 5.805 3.084-4.535 2.721-.907 1.27 2.358 1.088 3.446-3.628 5.08-.181 4.897-1.27 7.075.544 1.995 1.995.907 3.084 2.359 3.084 3.083 2.54v1.632l-3.628 1.996 6.349.544 2.177 4.535-3.809.544-.182 2.54 1.996.362-1.089 2.54-4.716 1.088-2.54 3.991-1.814.907-4.172-.907zm216.773 63.853l2.721 2.54-2.721.544-2.902-1.814 2.902-1.27zm39.001-18.684l1.633-1.633-.907-3.446-3.81-.545-.907-1.451.726-4.535-5.079-.725-.726-4.535-2.721.544-4.172 2.721 1.088 2.358 2.903 2.902v1.633l-3.81 1.27.182 4.716-.363 2.903 9.796 2.539 6.167-4.716zm-6.167 3.265l-5.442-.726-1.633-1.269 4.354-3.084 5.804-2.721 3.084.725.907 1.633-1.995 1.995-5.079 3.447zm-13.787-20.861l-1.995 1.995-1.089-2.539 3.084-2.54v3.084zm-193.554-6.893l2.359 1.632-6.168 3.447-2.177-1.088-1.632-2.177-.182-3.447 2.177-.907h3.265l2.358 2.54zm390.555-14.875l-6.168-.181-.363-3.084-1.995-1.814-.182-1.814 8.526 4.716.182 2.177zm-16.508-12.517l-2.358 2.359-3.809-1.996-.907-1.995.181-3.991 1.088-2.54 3.628-1.632 1.633 2.177 3.084 1.088-.907 3.084 3.084 2.177-2.359 1.269h-2.358zm-46.62-2.176h-3.265l-2.539-1.27 1.451-1.814 3.084.725 1.269 2.359zm.726-12.88l3.809 1.814 4.354.544.726 3.447-6.349 1.27-9.252-3.81.182-4.535 4.172-.362 2.358 1.632zm-12.879 3.81l-2.54-2.721 4.535-5.261 1.27-.363-3.265 8.345zm36.28-27.755l.181 2.721-1.27 1.27-3.628 1.27-1.995 3.265 3.628 2.177.907 2.721-1.814 1.27-4.717 1.27v10.158l-3.99 1.088-2.721-3.809-.182-1.633-2.358-5.623-3.628-.726-3.991.182-2.721-3.265.182-3.81-1.814-3.628-2.359-1.088.726-2.54 5.623-.363 2.721-3.446v-1.633l3.266-.363 1.451 1.27.181 4.717 2.903.907 1.995-5.261-1.633-1.995 7.075-3.991 1.995-.182 5.442 1.633-.725 3.809 1.27 3.628zm-57.323 25.759l-2.721-.725-5.623 1.269-9.433-2.358-4.898-.181-.907-3.81-1.451-2.539 1.995-.544-1.632-7.075-5.805-2.358-4.535-2.54.907-10.158-1.814-4.172.181-12.517 2.359-.181 5.623 1.451 2.721 1.632 1.088-3.446 2.903-2.903 3.628-1.451 2.902 2.358.544-8.163-2.902-.907-2.358.726-2.358 3.447-1.814 4.353-3.447.363-2.721 1.27-4.354-2.54.182-2.539 2.902-3.447 3.628-3.447h3.991l2.902-1.088 7.075.181 5.079-2.358 5.079-6.53 2.721-2.721 5.987-.907 5.442-3.084-1.452 4.535 2.177 3.084v5.442l-1.632 1.814-2.54 4.535.363 10.158 4.535 2.721h7.437l1.814 1.996-1.27 3.99-4.716 2.54h-1.633l-2.539-1.995-1.996 1.632-2.176 9.252-3.628-.182-2.177.907 2.539 2.177-2.358 1.451-6.167 5.624 1.995 6.167-.363 1.633-2.721 2.358-1.088 1.995 4.172.545 2.358 5.26zm6.531-1.632l-2.177.362-3.084-.907-1.088-4.172 4.897 1.996 1.452 2.721zm52.243-2.177l-4.172.181-3.447 1.814-.544-2.177 2.902-1.814 2.177.363 3.084 1.633zm-41.359-17.233l4.172 7.8-.182 5.079-3.265 2.177h-3.809l-9.796-3.084-3.084-5.26-.181-4.173 8.707-2.539 4.717 1.451 2.721-1.451zm16.144-249.062h-2.721l-.725-1.089-3.81-.907-.544-2.176 2.358-5.08 6.168-5.986.907-2.358 2.358-1.27 3.084.363-.363-1.996-3.809-1.995 11.246-1.995h5.442l4.354-1.633.907-1.814-11.61 1.996-4.353.18-1.451-4.897.362-2.72 3.447-3.992 2.54-.363 3.083-1.995.182-2.72 4.172-1.452 3.809-3.81 4.173-.907 2.539.363 5.442-1.27 11.973-.18.181-1.09-11.428-.544-6.349.363-.726-1.088 5.079-4.898 3.628-1.814 3.084.363 3.265 1.814 1.089-1.451-2.903-2.721 1.27-2.721-4.716 1.995-3.265.544-1.633-3.628 4.172-3.628h4.172l.545-2.72 5.986-2.359 3.446-.363 2.721-1.088 1.089.725 1.632 4.173 2.721.544 1.814-1.451-2.358-1.996-1.995-3.265 3.628-2.72 4.172-.364 4.716 1.27 4.173-.363 1.632-2.176-11.428-.182-1.451-1.632 2.177-2.177 3.99-1.451 4.535-.182 4.354-2.54 1.633-1.995.544-2.902 2.539-2.358 7.075-1.452-1.088-3.99 1.451-2.54 1.814-1.088 3.809 2.72 3.265.907-.907-2.54.545-2.176h3.809l1.814-.907.544-2.358 2.54-2.177 8.526-1.27.907 4.535 1.269 2.54 1.452-5.08 2.902-3.809 4.354-1.632L593.107.04l-.725 7.8-3.447 4.354 2.721-.363 4.535-4.172 1.088-2.177-1.269-5.08 1.088-1.45 6.349-.182 3.447.726 1.269-2.721 3.084-.181 3.265 1.632 7.438 2.54-2.358-3.991-1.814-1.451-3.81-.907-3.991-1.814 2.177-1.814 4.354.544 3.628-1.451 3.991-.363 1.995 1.088 1.451-1.814 4.535-.907 5.079 1.633 2.903 4.898 4.353 2.54-.181-2.54 1.088-3.447 4.173-3.628 3.809-1.814 2.54-.181 5.26-6.168-2.902-1.814 5.986-4.172 1.995-.181 9.796 3.809 2.721-1.633 6.168 1.452-1.452 1.813-5.623 5.261-.907 1.451-.181 3.991-2.177 2.54 1.451 2.54 2.902-.726 3.266-2.358.181-2.359 7.8-6.712 3.447-3.809 4.172-3.084 2.721-.544 1.633 1.996-.363 2.72.363 7.8 6.711-2.539 1.996-5.442 1.995-1.27-1.451-2.54.726-1.995 4.172-2.358 3.991.726 5.986.544 4.898 1.451.362 2.54-1.451 1.632-5.26 1.996 1.269 1.27 3.628-1.089 1.633 9.977 1.633-3.81 1.814-1.27.181-2.72 1.451-3.447 3.265-2.358h4.898l5.986 3.084 4.535.544 3.266 1.451 4.353-1.27 3.628 1.814.182 1.814 6.893.545 6.893 2.902 1.088 2.903-7.981 1.814-3.265 1.814-5.987.725-20.861-1.27.726 1.27 15.056 2.721 1.089.907.725 3.81 3.265 1.27 6.349-.363V.584l5.805 1.089 6.893.363 1.996 3.083-.544 2.721-4.354.182-7.619-2.54-.725 4.172-1.996 1.633-10.521 2.358-1.995 4.716-3.991 1.814-3.084-2.358 3.084 2.358-6.712 2.359 2.902 1.45 1.452 2.178-3.628 5.805.181 1.088 5.623 7.256 13.061 3.084 4.172 3.265 6.531 4.172 3.265 1.633.181 3.446-5.442 5.442-4.716 5.624-2.177 3.084.726 3.083 4.716 3.81 4.172 3.99 5.442 6.35 5.442 4.535 5.442 7.618.726 2.54-6.712 1.27 2.177 1.632-1.088 2.359.544 3.446-.907 2.721 3.446.544.545 2.359-3.084 1.814v1.632l2.539 3.084 1.814 1.088 5.805 1.089 1.633 2.902-1.814 3.084 3.265 3.991 8.163 3.265 1.27 2.358.363 3.084-4.354 5.442-3.628 1.451 1.27 1.451 8.163 4.717 11.972 5.26 4.717 2.359 3.809 3.446 3.991 2.903.907 1.814-2.903 8.163-1.269 2.176-3.991 3.991-6.168 5.079-4.172 4.172-9.614 10.703-3.447 2.721-3.809 3.991-8.889 5.986-1.27 1.451-4.535 2.721-10.158 9.433-6.349 1.814-4.716-1.995-3.266.362-2.176 1.452-4.535.362-3.628 1.089-1.814-1.27-1.27 1.088-3.447.363-3.628-1.814.544 2.721-5.986 2.721-1.451-1.632-3.628 1.814-3.809.362-1.996 1.452-10.702 1.995-2.721 2.358-2.177-.544-12.154 1.995-5.261-.362-4.897 3.628-3.266.725 2.721-5.442-4.353-1.995-2.177-2.903-1.27.726-.544 2.721-2.721 1.451-3.628-.181-.726-4.354 1.452-4.172-6.531-1.088-6.893-2.54-1.633-.181-1.269-2.359-3.628 1.633-3.81-1.633-3.084-9.614v-2.358l1.633-2.902-.181-6.168-1.089-3.628 1.996-1.088-1.633-2.903-3.991-5.442-2.902-1.995.907-5.986-1.089-2.903-3.446-1.995-1.996-5.261 1.089-4.353 4.353-3.991v-2.177l1.633-1.995-.907-2.358 4.898-.907 1.814.725 4.353-.725 3.447-1.814-1.995-3.266 2.721-1.269 2.176-2.177-.181-1.814 4.172-.907 4.354-3.447 4.172-1.995 4.172-3.447 1.996-.181.544-2.358 4.535-3.447 1.451-2.902 4.172-3.266 3.991-7.074 6.893-2.177 6.893.544-1.088-3.084 1.814-.544-1.088-2.358-1.814-1.088v-8.345l-2.359-1.632-8.163-2.903-3.083-.181-2.177-2.177-8.345-1.27-4.897.544-3.991-1.088-1.814.544-6.893.544-1.996 1.27-3.809-1.27-3.628-2.177-3.628 1.996-2.903-1.814-1.814 3.447.182 3.265-3.265-.363.544 1.995-3.628 2.721-5.805.363 1.27 2.721-1.633 1.27 1.814 3.084-2.358 2.721-3.809 3.446-.907 1.814 3.083 1.996 2.903 4.535 2.902 1.995-.725 2.177-3.81 1.995-3.991 3.084-3.628 7.8-5.623 2.359-4.354 2.902-5.442 1.27-4.353 3.991-3.265-1.452-2.721.907-1.814 3.266-3.447 2.721-4.354-.363.363 1.451-4.172.544-1.814 7.256-3.991 1.089-1.27 1.451-1.632-1.089-3.81.182 2.903 5.079-3.084 3.265h-2.177l-2.721 1.27-3.446-1.451-.363 2.177 1.451 2.358 2.358 1.814-.181 2.358-1.633 7.8 1.27 3.265-3.809 2.177-1.452 1.996 1.089 3.083-.182 1.996 1.27 3.446 1.451 7.619 1.996 3.628-.182 2.903 2.359 1.632 3.809-.181 2.54 2.902 5.623-1.451 1.451 1.995 5.261 3.991 3.084.544 3.446 2.177v2.721l5.261 1.814 3.446 3.628 1.452 2.902-.182 1.814-4.716 2.721-2.358 2.359-6.894 3.809-1.088-.181-3.809 1.814 3.628 1.088 2.539-1.27 4.717-1.088 2.539 2.177-3.991.907-.544 2.902-1.451 1.814-3.628 1.27-5.079 2.721-7.256 2.539-1.996 2.177-4.716 1.814-2.358 1.451h-6.893l-6.712-.181 1.814 1.633 1.632-.363 6.531.725 3.084 2.359-5.442 1.632 3.083 5.805-1.269 1.451.725 6.349-1.995.182-.544 2.539 1.088 4.535 1.814 3.81-.181 1.814-2.721 4.353 1.632 5.261-2.721 9.614-3.446 5.623-2.359 7.438-3.265 2.539-4.353-1.632-6.168.907-5.805-.544-5.442.362-1.451.726 1.27 2.54-4.172-.363-3.084 1.995-3.628 3.81v2.721l3.446 5.442-3.083 3.628h-1.996l-5.805-.907-9.977 2.176-9.251-1.814.907-1.814.363-5.623-1.089-3.084-2.358-1.995-5.623-6.893-2.177-4.173 4.354 1.633 1.814-.907-3.266-4.716 3.991-.182 1.27-1.814-1.088-2.721-3.447-1.088-3.447-4.354-3.265-2.177-6.349-8.525-2.358-5.805-1.995.544-2.177-6.712-3.084-1.088-1.088-6.712-3.266-.726-2.358-3.083-.725-5.805-2.177-1.089-1.451-2.539-1.452-5.442-.544-4.898-1.632-3.265.907-2.177 1.995-.363 1.995 1.451-.725-1.814-10.884-2.176-4.172-5.261-.726-5.623-4.535 2.176 1.088 1.996v4.172l-4.535 7.075-1.995-.363-2.358 1.451-2.358.363-1.089-1.814-1.995.363-1.451 1.814-6.168 2.358 1.814 1.27-3.084 1.814-1.088 1.632-4.898 2.721-7.8 7.075-4.172 1.995-2.903 2.177h-2.539l-3.266 1.633-8.344 1.632-5.623-.725-3.81.725-1.995-1.27v-1.995l-2.177-.181-1.451 2.176-2.903-.725 1.27-4.354-5.623-.181-6.893-2.903-1.633-1.451-5.623-2.358-2.54-2.54-1.451-2.902.544-6.53 1.088-.907 4.898 1.451 5.079 2.358-.181-2.177-4.354-2.902 1.452-3.265-.363-2.903 4.716-3.809-.725-1.27-6.168 3.628-5.623 1.633-1.996 2.176-1.995 1.089h-3.81l-.907-1.633.907-5.986 2.177-4.898 3.265-1.814 6.168 1.27 1.814-1.814 2.358-.363 4.354-2.177-7.438.907-2.176-1.814 5.079-4.353 2.177-2.54.544-2.721 3.991-3.084 3.265-1.451 2.902 1.089 2.721-3.447-9.07 1.995-3.628 1.996-4.898 5.079-.362 1.995-3.628 1.633-2.721 2.721-1.089 2.177-5.079 3.446-2.54.545v-4.354l1.996-3.628-.544-2.902 5.804.362 3.266-2.176h-4.898l-2.54-1.27-2.177-2.721-1.088-3.447 1.995-3.265-3.99-3.628-.907-3.991-.182-4.535 1.633-.907 3.809.726 4.354-.363 9.433-1.632 6.167 1.088 2.54-.181 3.628-1.27 3.446-.182 3.991 2.177 1.27-.907 9.796-2.177-5.442-2.721.181 2.54-6.53.544-5.805-1.088-2.358-1.089-.907 2.359-1.996.544-6.167-.907-8.526.544-3.81 1.27-2.539-.182-4.535-2.176-1.633-1.633-.544-4.716 5.079-.545-3.446-4.172-3.447-2.358-.363-2.54 1.27-2.358 2.721.363 6.893-.182 10.884 2.721 8.889-.544-1.451-1.088h-5.261l-13.061-2.358-3.991.181-2.176-.544-1.27-1.814.725-3.447 1.996-.725 2.177 1.088 3.446-4.172 3.447-1.814 3.628-.907 3.628 1.814 2.358-.181 7.256-1.452-2.358-.907-6.349.907-.363-.907 4.354-4.172 7.618-.725 10.703.907 4.172 1.451.726-3.265 9.614-2.54-12.335 1.451-3.265-.907-8.889 1.27-.181-2.358 4.172-4.172 7.437-1.633 3.447-1.995 5.623-.363 4.717.544 2.176 2.358 7.982 3.084-9.251-7.256 1.995-3.084 5.986-.725v-2.903l-3.991-.544v-2.177l3.447-1.632 5.079-1.27 5.805 1.451-1.088 2.358 1.632.907 3.084-2.721 7.075-1.451 5.079 3.809.907 1.996 1.995-.907 4.898-.907 4.898.544 3.265-.363-1.814-2.358.726-1.814 4.353-1.814 3.084-.544 4.716-2.177-1.451-1.814-2.539-.544 5.26-2.721-3.084-1.089-4.353 1.633-2.903 1.633 2.721 1.814-1.995 1.995-11.065 5.079-5.442 1.451-2.54-.181-3.447-4.535-3.809-.181 2.358-3.991 2.903-1.451 2.539-4.173 4.172-2.358 5.805-5.986 5.079-1.995 1.633-1.996 5.442-2.721 5.442-1.632.544-1.814-4.898 1.632.726-3.809 2.54-1.814 12.335-5.079 2.902 2.358 3.81-.363 4.172-2.902-.544-1.27-3.81 1.814zM117.295 367.556l-4.716-.907-1.089-3.628 1.633-2.539 3.265 1.27 1.088 2.358-.181 3.446zm371.326-3.99l-1.814 1.088-1.27-1.633 1.633-1.632 1.451 2.177zm-392.187-8.889l1.27 6.168-4.354 2.358-1.451-4.354-2.54 1.814.363-3.446 2.721-.545 3.991-1.995zm348.832 3.809h-1.632v-5.442l2.721 2.903-1.089 2.539zm-345.748-.725l-1.996-2.177 2.903-3.991 3.084-1.814-.182 2.903-3.81 5.079zm4.535-14.149l-8.345 1.451 1.089-5.442-3.447-1.633.544-1.632 3.81-.907 3.084 3.083 3.809 1.089-.544 3.991zm463.295 1.451l-2.721-.544-.544-6.894 3.628-8.344 1.814-.544 4.898-11.791.907 3.628-2.721 5.805-.544 3.99-1.089.907-3.628 13.787zm47.527-41.178l-2.358 2.54-2.54.907.182 5.986 2.721 2.177-2.358.907-1.27 3.265-3.265 1.088-2.721 2.903-.545 2.902-3.809 1.633 2.177-4.354-1.633-1.27-2.539-3.809.725-1.633-1.088-5.805 4.898-5.26 2.358-1.996 5.986-1.814h2.358l2.721 1.633zm-516.99 8.707l-.181 5.079 5.26 1.452 3.628-.182.726 1.089-5.986 4.897-1.27-.181-.363-3.991-2.54.544-3.446-.544-2.177-3.446-4.898-.907-1.632-1.996 2.54-1.088.544-2.177 5.079-1.088 2.72-1.27 1.633 1.814.363 1.995zm-23.219 10.34l-2.721-.363-.726-2.539.363-4.173 2.903.363.181 6.712zm1.633-15.056l2.176 1.632-1.995 2.359h-2.721l-3.99-1.814.362-.907 6.168-1.27zm21.405-17.959l-2.903 4.717-1.814 1.269-.362 3.084-5.442 2.903-5.805 4.353-2.54-1.814 4.717-3.084-3.81-1.814-.363-4.716 1.452-1.27 2.54 1.27 3.446-.544-1.27-2.177 11.428-5.805.726 3.628zm228.201-50.973l.181 3.084-1.814-.182-1.269-1.995-.363-3.628 1.27-.907 1.995 3.628zm-3.265-20.135h-3.265l.544-2.359 1.632-.544 1.089 2.903zm58.955-57.867l-4.172-.363-1.814-1.451 5.079-1.451 1.27.907-.363 2.358zm6.53-8.344l-.544-1.633 4.898-1.088 1.632 1.814-5.986.907zm50.792-30.113l-7.619.544-.544-1.995 3.81-1.451h2.176l2.177 2.902zm259.946-3.265l-2.721.907-2.358-.544-.363-1.633 3.628-1.088 1.814 2.358zm-247.611-15.782l-3.628.544.182-1.995 3.265-.544.181 1.995zm7.438-10.34l-.182-1.995 1.814-2.177 1.814.726-.544 2.72-2.902.726zm5.623-45.168l-2.721 1.27 1.996-4.717 1.995-1.27.726 2.721-1.996 1.996zm15.419-9.433l4.172.363-.907 1.45-2.539.545-1.996 1.451-3.446.363-3.447 1.814-2.902.544-.726-2.177 1.633-1.814h2.358l1.814-2.176 5.986-.363zm33.922-7.256l2.358-1.995 2.721-.726 1.089-3.99 3.265-.908 2.902 1.814 1.633 2.177-.363 1.995-5.623 2.177-4.535 3.628-2.903-.363-1.27 1.27-4.353 1.088-3.084-1.632-1.633 1.632-2.539.726-2.177-.726-5.261 2.721-5.079.545-1.814-1.996 5.624-3.446 9.251-1.089 5.261-4.172.725-4.535 1.089-1.633-2.359-1.088.363-3.084 4.354-3.084 2.358-2.54 2.721-.543 1.633 1.995-1.996 2.54-2.902 2.177 1.995 2.72 1.089 4.354-2.54 3.99zm-11.428-9.07l3.991 3.81-.545 2.72-2.176 1.27-5.987.181-2.902-1.632-3.991 1.088-2.902-1.995 2.902-2.54 4.717.726.907-3.084 3.083.544.726-2.72 2.177 1.632zm39.545-15.782l2.54 1.451 2.721-.544 4.172 1.27 1.814 2.72-2.177 1.633.726 3.084-6.894.907-1.632-.907-2.721 1.633-2.54 2.54-3.991-1.089.363-2.902-.544-4.172 1.27-.908 5.26.545-.725-3.628 2.358-1.633zm29.931-11.065l1.814 1.27 2.721-.907 1.995 1.814-2.539 1.45-1.451 2.178-3.628.18-5.261 4.173-.181 1.451-9.07.907-2.721-.544 3.083-4.898h3.084l3.084-1.45-.544-1.452 4.535-3.628 1.088-3.084 2.54-1.814 1.451 4.354zm195.005 6.349l-3.265.725.363-3.265 2.902 2.54zM599.093-5.22l-2.358.725-3.265-.544-1.27-1.814 3.991-1.814 3.084.544-.182 2.903zm-13.786.18h-4.172l-3.628-3.264h2.902l2.54.363 2.358 2.902zm62.764-11.065l.907 1.996-5.986 3.81-2.902.18-3.81-2.176.182-1.451 3.446-1.633 1.633.181 4.898-2.54 1.632 1.633zm-4.535-6.348l-.725 1.45-4.898 3.81-3.991 1.27-3.265-.544-1.451 1.088h-3.628l-3.628-1.088-3.628-2.177 6.349-.182 1.088-.907h2.721l5.079-.725 1.996.544 3.809-2.54h4.172zm11.61 5.804l-3.265.907-3.084-1.632-.363-2.903 1.451-.544 5.805 2.177-.544 1.995zm24.852-13.423l6.712.907 3.99 2.54-6.53.906-3.084-.181-3.628-3.265 2.54-.907z" fill="url(#paint0_linear)"/><defs><linearGradient id="paint0_linear" x1="645" y1="492.011" x2=".655" y2="492.012" gradientUnits="userSpaceOnUse"><stop stop-color="#EEE"/><stop offset="1" stop-color="#DBDFE7"/></linearGradient></defs></svg>
