<svg width="28" height="28" viewBox="0 0 28 28" fill="none" xmlns="http://www.w3.org/2000/svg"><g clip-path="url(#clip0)"><rect x="2" y="2" width="24" height="24" rx="12" fill="url(#paint0_linear)"/><g filter="url(#filter0_di)"><circle cx="14" cy="14" r="5" fill="url(#paint1_linear)"/></g><ellipse cx="27.403" cy="21.657" rx="21.662" ry="5.657" fill="url(#paint2_linear)"/><ellipse cx="-1.597" cy="23.657" rx="21.662" ry="5.657" fill="url(#paint3_linear)"/><ellipse cx="23.403" cy="26.657" rx="21.662" ry="5.657" fill="url(#paint4_linear)"/><g filter="url(#filter1_di)"><path fill-rule="evenodd" clip-rule="evenodd" d="M14 .5a.5.5 0 01.5.5v6a.5.5 0 01-1 0V1a.5.5 0 01.5-.5z" fill="url(#paint5_linear)"/></g><g filter="url(#filter2_di)"><path fill-rule="evenodd" clip-rule="evenodd" d="M3.94 4.94a.5.5 0 01.707 0L9.06 9.353a.5.5 0 11-.707.707L3.939 5.647a.5.5 0 010-.708z" fill="url(#paint6_linear)"/></g><g filter="url(#filter3_di)"><path fill-rule="evenodd" clip-rule="evenodd" d="M.5 15a.5.5 0 01.5-.5h6a.5.5 0 010 1H1a.5.5 0 01-.5-.5z" fill="url(#paint7_linear)"/></g><g filter="url(#filter4_di)"><path fill-rule="evenodd" clip-rule="evenodd" d="M24.768 5.146a.5.5 0 00-.707 0l-4.415 4.415a.5.5 0 10.708.707l4.414-4.414a.5.5 0 000-.708z" fill="url(#paint8_linear)"/></g><g filter="url(#filter5_di)"><path fill-rule="evenodd" clip-rule="evenodd" d="M27.5 15a.5.5 0 00-.5-.5h-6a.5.5 0 000 1h6a.5.5 0 00.5-.5z" fill="url(#paint9_linear)"/></g></g><path fill-rule="evenodd" clip-rule="evenodd" d="M14 28C6.268 28 0 21.732 0 14S6.268 0 14 0s14 6.268 14 14-6.268 14-14 14zm0-26C7.373 2 2 7.373 2 14s5.373 12 12 12 12-5.373 12-12S20.627 2 14 2z" fill="#F8F8F8"/><defs><linearGradient id="paint0_linear" x1="19" y1="19.5" x2="19.071" y2="2" gradientUnits="userSpaceOnUse"><stop stop-color="#F48016"/><stop offset="1" stop-color="#F0C85E"/></linearGradient><linearGradient id="paint1_linear" x1="14" y1="12.5" x2="14" y2="17" gradientUnits="userSpaceOnUse"><stop stop-color="#F8E224"/><stop offset="1" stop-color="#FFC34E"/></linearGradient><linearGradient id="paint2_linear" x1="27" y1="21.5" x2="23.645" y2="16.226" gradientUnits="userSpaceOnUse"><stop offset=".167" stop-color="#6D8DDE"/><stop offset="1" stop-color="#73A0F7"/></linearGradient><linearGradient id="paint3_linear" x1="-1.5" y1="31.5" x2="7.651" y2="18.884" gradientUnits="userSpaceOnUse"><stop stop-color="#597CD5"/><stop offset="1" stop-color="#5489F0"/></linearGradient><linearGradient id="paint4_linear" x1="21" y1="27" x2="19.272" y2="23.616" gradientUnits="userSpaceOnUse"><stop stop-color="#4567BF"/><stop offset="1" stop-color="#386DD5"/></linearGradient><linearGradient id="paint5_linear" x1="14" y1="5.55" x2="14" y2="6.9" gradientUnits="userSpaceOnUse"><stop stop-color="#F8E224"/><stop offset="1" stop-color="#FFC34E"/></linearGradient><linearGradient id="paint6_linear" x1="7.682" y1="8.682" x2="8.637" y2="9.636" gradientUnits="userSpaceOnUse"><stop stop-color="#F8E224"/><stop offset="1" stop-color="#FFC34E"/></linearGradient><linearGradient id="paint7_linear" x1="5.55" y1="15" x2="6.9" y2="15" gradientUnits="userSpaceOnUse"><stop stop-color="#F8E224"/><stop offset="1" stop-color="#FFC34E"/></linearGradient><linearGradient id="paint8_linear" x1="21.025" y1="8.889" x2="20.071" y2="9.844" gradientUnits="userSpaceOnUse"><stop stop-color="#F8E224"/><stop offset="1" stop-color="#FFC34E"/></linearGradient><linearGradient id="paint9_linear" x1="22.45" y1="15" x2="21.1" y2="15" gradientUnits="userSpaceOnUse"><stop stop-color="#F8E224"/><stop offset="1" stop-color="#FFC34E"/></linearGradient><filter id="filter0_di" x="7" y="6.5" width="14" height="14" filterUnits="userSpaceOnUse" color-interpolation-filters="sRGB"><feFlood flood-opacity="0" result="BackgroundImageFix"/><feColorMatrix in="SourceAlpha" values="0 0 0 0 0 0 0 0 0 0 0 0 0 0 0 0 0 0 127 0"/><feOffset dy="-.5"/><feGaussianBlur stdDeviation="1"/><feColorMatrix values="0 0 0 0 0 0 0 0 0 0 0 0 0 0 0 0 0 0 0.12 0"/><feBlend in2="BackgroundImageFix" result="effect1_dropShadow"/><feBlend in="SourceGraphic" in2="effect1_dropShadow" result="shape"/><feColorMatrix in="SourceAlpha" values="0 0 0 0 0 0 0 0 0 0 0 0 0 0 0 0 0 0 127 0" result="hardAlpha"/><feOffset dy="1"/><feGaussianBlur stdDeviation=".5"/><feComposite in2="hardAlpha" operator="arithmetic" k2="-1" k3="1"/><feColorMatrix values="0 0 0 0 1 0 0 0 0 0.9905 0 0 0 0 0.7625 0 0 0 0.6 0"/><feBlend in2="shape" result="effect2_innerShadow"/></filter><filter id="filter1_di" x="11.5" y="-2" width="5" height="11" filterUnits="userSpaceOnUse" color-interpolation-filters="sRGB"><feFlood flood-opacity="0" result="BackgroundImageFix"/><feColorMatrix in="SourceAlpha" values="0 0 0 0 0 0 0 0 0 0 0 0 0 0 0 0 0 0 127 0"/><feOffset dy="-.5"/><feGaussianBlur stdDeviation="1"/><feColorMatrix values="0 0 0 0 0 0 0 0 0 0 0 0 0 0 0 0 0 0 0.12 0"/><feBlend in2="BackgroundImageFix" result="effect1_dropShadow"/><feBlend in="SourceGraphic" in2="effect1_dropShadow" result="shape"/><feColorMatrix in="SourceAlpha" values="0 0 0 0 0 0 0 0 0 0 0 0 0 0 0 0 0 0 127 0" result="hardAlpha"/><feOffset dy="1"/><feGaussianBlur stdDeviation=".5"/><feComposite in2="hardAlpha" operator="arithmetic" k2="-1" k3="1"/><feColorMatrix values="0 0 0 0 1 0 0 0 0 0.9905 0 0 0 0 0.7625 0 0 0 0.6 0"/><feBlend in2="shape" result="effect2_innerShadow"/></filter><filter id="filter2_di" x="1.793" y="2.293" width="9.414" height="9.414" filterUnits="userSpaceOnUse" color-interpolation-filters="sRGB"><feFlood flood-opacity="0" result="BackgroundImageFix"/><feColorMatrix in="SourceAlpha" values="0 0 0 0 0 0 0 0 0 0 0 0 0 0 0 0 0 0 127 0"/><feOffset dy="-.5"/><feGaussianBlur stdDeviation="1"/><feColorMatrix values="0 0 0 0 0 0 0 0 0 0 0 0 0 0 0 0 0 0 0.12 0"/><feBlend in2="BackgroundImageFix" result="effect1_dropShadow"/><feBlend in="SourceGraphic" in2="effect1_dropShadow" result="shape"/><feColorMatrix in="SourceAlpha" values="0 0 0 0 0 0 0 0 0 0 0 0 0 0 0 0 0 0 127 0" result="hardAlpha"/><feOffset dy="1"/><feGaussianBlur stdDeviation=".5"/><feComposite in2="hardAlpha" operator="arithmetic" k2="-1" k3="1"/><feColorMatrix values="0 0 0 0 1 0 0 0 0 0.9905 0 0 0 0 0.7625 0 0 0 0.6 0"/><feBlend in2="shape" result="effect2_innerShadow"/></filter><filter id="filter3_di" x="-1.5" y="12" width="11" height="5" filterUnits="userSpaceOnUse" color-interpolation-filters="sRGB"><feFlood flood-opacity="0" result="BackgroundImageFix"/><feColorMatrix in="SourceAlpha" values="0 0 0 0 0 0 0 0 0 0 0 0 0 0 0 0 0 0 127 0"/><feOffset dy="-.5"/><feGaussianBlur stdDeviation="1"/><feColorMatrix values="0 0 0 0 0 0 0 0 0 0 0 0 0 0 0 0 0 0 0.12 0"/><feBlend in2="BackgroundImageFix" result="effect1_dropShadow"/><feBlend in="SourceGraphic" in2="effect1_dropShadow" result="shape"/><feColorMatrix in="SourceAlpha" values="0 0 0 0 0 0 0 0 0 0 0 0 0 0 0 0 0 0 127 0" result="hardAlpha"/><feOffset dy="1"/><feGaussianBlur stdDeviation=".5"/><feComposite in2="hardAlpha" operator="arithmetic" k2="-1" k3="1"/><feColorMatrix values="0 0 0 0 1 0 0 0 0 0.9905 0 0 0 0 0.7625 0 0 0 0.6 0"/><feBlend in2="shape" result="effect2_innerShadow"/></filter><filter id="filter4_di" x="17.5" y="2.5" width="9.414" height="9.414" filterUnits="userSpaceOnUse" color-interpolation-filters="sRGB"><feFlood flood-opacity="0" result="BackgroundImageFix"/><feColorMatrix in="SourceAlpha" values="0 0 0 0 0 0 0 0 0 0 0 0 0 0 0 0 0 0 127 0"/><feOffset dy="-.5"/><feGaussianBlur stdDeviation="1"/><feColorMatrix values="0 0 0 0 0 0 0 0 0 0 0 0 0 0 0 0 0 0 0.12 0"/><feBlend in2="BackgroundImageFix" result="effect1_dropShadow"/><feBlend in="SourceGraphic" in2="effect1_dropShadow" result="shape"/><feColorMatrix in="SourceAlpha" values="0 0 0 0 0 0 0 0 0 0 0 0 0 0 0 0 0 0 127 0" result="hardAlpha"/><feOffset dy="1"/><feGaussianBlur stdDeviation=".5"/><feComposite in2="hardAlpha" operator="arithmetic" k2="-1" k3="1"/><feColorMatrix values="0 0 0 0 1 0 0 0 0 0.9905 0 0 0 0 0.7625 0 0 0 0.6 0"/><feBlend in2="shape" result="effect2_innerShadow"/></filter><filter id="filter5_di" x="18.5" y="12" width="11" height="5" filterUnits="userSpaceOnUse" color-interpolation-filters="sRGB"><feFlood flood-opacity="0" result="BackgroundImageFix"/><feColorMatrix in="SourceAlpha" values="0 0 0 0 0 0 0 0 0 0 0 0 0 0 0 0 0 0 127 0"/><feOffset dy="-.5"/><feGaussianBlur stdDeviation="1"/><feColorMatrix values="0 0 0 0 0 0 0 0 0 0 0 0 0 0 0 0 0 0 0.12 0"/><feBlend in2="BackgroundImageFix" result="effect1_dropShadow"/><feBlend in="SourceGraphic" in2="effect1_dropShadow" result="shape"/><feColorMatrix in="SourceAlpha" values="0 0 0 0 0 0 0 0 0 0 0 0 0 0 0 0 0 0 127 0" result="hardAlpha"/><feOffset dy="1"/><feGaussianBlur stdDeviation=".5"/><feComposite in2="hardAlpha" operator="arithmetic" k2="-1" k3="1"/><feColorMatrix values="0 0 0 0 1 0 0 0 0 0.9905 0 0 0 0 0.7625 0 0 0 0.6 0"/><feBlend in2="shape" result="effect2_innerShadow"/></filter><clipPath id="clip0"><rect x="2" y="2" width="24" height="24" rx="12" fill="#fff"/></clipPath></defs></svg>
