<svg width="14" height="14" viewBox="0 0 14 14" fill="none" xmlns="http://www.w3.org/2000/svg">
<g clip-path="url(#clip0)">
<path d="M12.1887 3.22604L8.66398 5.24548L1.97627 3.23769L0.517937 4.0852L5.60113 7.00224L2.96266 8.51333L1.21917 8.02003L-0.061346 8.75184L1.83909 10.1772C1.97477 10.279 2.13101 10.3499 2.29691 10.3851C2.46281 10.4203 2.63438 10.4189 2.79968 10.3809L5.37869 9.7909C5.43482 9.77813 5.48873 9.75703 5.53861 9.72829L13.3464 5.25185C13.4806 5.17649 13.5987 5.0753 13.6936 4.95412C13.7886 4.83293 13.8587 4.69414 13.8998 4.54576C13.9408 4.39737 13.9521 4.24232 13.933 4.08954C13.9139 3.93676 13.8647 3.78928 13.7883 3.6556C13.7119 3.52192 13.6098 3.40468 13.4879 3.31065C13.366 3.21662 13.2267 3.14764 13.078 3.10771C12.9293 3.06778 12.7741 3.05768 12.6215 3.07798C12.4689 3.09829 12.3218 3.14861 12.1887 3.22604Z" fill="#C3C648"/>
<path d="M13.4167 14.0002H0.583333C0.428624 14.0002 0.280251 13.9387 0.170854 13.8293C0.0614582 13.7199 0 13.5715 0 13.4168C0 13.2621 0.0614582 13.1137 0.170854 13.0043C0.280251 12.895 0.428624 12.8335 0.583333 12.8335H13.4167C13.5714 12.8335 13.7197 12.895 13.8291 13.0043C13.9385 13.1137 14 13.2621 14 13.4168C14 13.5715 13.9385 13.7199 13.8291 13.8293C13.7197 13.9387 13.5714 14.0002 13.4167 14.0002Z" fill="#C3C648"/>
</g>
<defs>
<clipPath id="clip0">
<rect width="14" height="14" fill="white"/>
</clipPath>
</defs>
</svg>
