<svg width="43" height="44" viewBox="0 0 43 44" fill="none" xmlns="http://www.w3.org/2000/svg">
<path d="M10.8 17.7998L20.6 30.3998V42.9998" stroke="#0F264E" stroke-miterlimit="10" stroke-linecap="round" stroke-linejoin="round"/>
<path d="M15.0001 43V34.6L10.8001 29L6.6001 34.6V43" fill="#EEEFF0"/>
<path d="M15.0001 43V34.6L10.8001 29L6.6001 34.6V43" stroke="#0F264E" stroke-miterlimit="10" stroke-linecap="round" stroke-linejoin="round"/>
<path d="M1 42.9998V30.3998L10.8 17.7998H30.4L40.2 30.3998V42.9998H1Z" stroke="#0F264E" stroke-miterlimit="10" stroke-linecap="round" stroke-linejoin="round"/>
<path d="M35.9999 12.2C36.7353 12.2 37.4635 12.0552 38.1429 11.7737C38.8224 11.4923 39.4397 11.0798 39.9597 10.5598C40.4797 10.0398 40.8922 9.42245 41.1736 8.74303C41.4551 8.0636 41.5999 7.3354 41.5999 6.6C41.5999 5.8646 41.4551 5.1364 41.1736 4.45697C40.8922 3.77755 40.4797 3.16021 39.9597 2.6402C39.4397 2.12019 38.8224 1.7077 38.1429 1.42627C37.4635 1.14485 36.7353 1 35.9999 1C34.5147 1 33.0903 1.59 32.0401 2.6402C30.9899 3.69041 30.3999 5.11479 30.3999 6.6C30.3999 8.08521 30.9899 9.50959 32.0401 10.5598C33.0903 11.61 34.5147 12.2 35.9999 12.2Z" fill="#EEEFF0" stroke="#0F264E" stroke-miterlimit="10" stroke-linecap="round" stroke-linejoin="round"/>
</svg>
