<svg width="90" height="24" viewBox="0 0 90 24" fill="none" xmlns="http://www.w3.org/2000/svg">
<path d="M89.2109 11.8227L88.3958 12.0445C87.6122 9.3828 86.2997 8.23272 84.4464 8.23272C83.1444 8.23272 82.2284 9.09057 82.2284 10.4508C82.2284 11.7528 83.3086 12.4471 86.2098 13.6271C88.8882 14.6119 90 15.8186 90 17.9258C90 21.1337 87.4802 23.1455 83.3457 23.1455C81.3494 23.1455 79.1003 22.7007 77.8293 22.1928L77.6707 17.7356L78.4543 17.577C79.6299 20.6268 81.1326 21.7802 83.0918 21.7802C84.7858 21.7802 85.6758 20.6047 85.6758 19.398C85.6758 18.1914 84.9882 17.4921 82.3409 16.5395C79.8212 15.7077 78.0955 14.6336 78.0955 11.9552C78.0955 9.31903 80.4134 7.08486 84.3633 7.08486C86.2265 7.08486 87.9205 7.4026 89.0323 7.91664L89.2109 11.8227ZM72.1538 13.2201C72.2492 11.124 71.8255 8.09631 70.0999 8.09631C68.3254 8.09631 67.3577 10.9233 67.3261 13.3476L72.1538 13.2201ZM70.5235 7.07932C74.8643 7.07932 76.956 10.2556 76.9926 14.4267H67.2308C67.1992 18.1215 69.1577 20.9169 72.8203 20.9169C74.419 20.9169 75.3401 20.4721 76.3138 19.7734L76.7685 20.2814C75.6889 21.7425 73.4653 23.1399 70.5008 23.1399C65.7363 23.1399 62.4325 19.8682 62.4325 15.2524C62.4214 11.0807 65.133 7.07876 70.5213 7.07876L70.5235 7.07932ZM56.442 14.8088C56.3466 11.5055 55.14 8.89038 52.821 8.89038C52.2703 8.89038 51.8467 8.98576 51.1907 9.20812L51.3814 21.9028C51.6143 21.9982 52.165 22.0614 52.557 22.0614C54.8123 22.0614 56.4425 18.8745 56.4425 14.8082L56.442 14.8088ZM61.2813 14.5543C61.2813 19.774 57.978 23.1405 52.3979 23.1405C50.4016 23.1405 48.3426 22.8227 46.5532 22.4102C46.7118 20.3141 46.7118 7.32719 46.5532 4.88729C46.3946 3.61189 46.0342 3.01301 45.056 2.89101L44.3994 2.82724V2.24499L51.2855 0.970703C51.2539 2.05036 51.1901 4.88784 51.1901 8.22385C52.3973 7.62053 53.508 7.27118 55.0124 7.27118C58.6019 7.27118 61.2802 10.321 61.2802 14.5554L61.2813 14.5543ZM43.7373 11.7173C41.6091 10.3199 39.3222 10.9233 38.867 11.7173C38.6657 14.1572 38.7084 17.928 38.8986 19.8594C38.994 21.1348 39.3533 21.6699 40.3387 21.7653L41.6407 21.8928V22.7246H31.9105V21.8928L32.6624 21.7653C33.6051 21.6699 33.9378 21.1298 33.9966 19.8594C34.2295 17.7949 34.2933 13.4646 33.9966 11.0824C33.9328 9.71662 33.6051 9.20812 32.6624 9.08613L31.9105 8.99075V8.41959L38.8664 7.08541L38.7711 10.6427C40.4013 6.95843 43.6414 6.5137 45.3987 7.49853L43.7373 11.7173ZM20.9105 15.1265C20.9105 19.0121 21.9641 22.1884 24.0712 22.1884C26.3581 22.1884 27.0146 19.0758 27.0146 15.1265C27.0146 11.1772 26.0032 8.09631 23.8533 8.09631C21.5559 8.09631 20.9099 11.114 20.9099 15.1265H20.9105ZM31.9421 15.0628C31.9421 19.52 28.9987 23.141 23.7474 23.141C18.5809 23.141 15.9763 19.7002 15.9763 15.1892C15.9763 10.7641 18.9197 7.07932 24.171 7.07932C29.3375 7.07932 31.9421 10.5412 31.9421 15.0622V15.0628ZM18.4223 7.40316L17.3427 7.7209C16.4321 4.59783 14.8229 2.81892 12.0486 2.81892H8.42762C8.22633 4.89394 8.13095 8.10185 8.22633 11.5637L10.6402 11.4362C12.2705 11.4362 12.9581 10.2606 13.3507 8.54602H14.2612V15.7659H13.3507C12.9592 14.0192 12.271 12.8269 10.6402 12.7382L8.22633 12.7066C8.22633 15.2796 8.25794 17.4755 8.42762 18.8158C8.58621 20.7217 9.11523 21.5895 10.5126 21.7697L11.8257 21.8972V22.729H0V21.8972L0.984831 21.7697C2.35062 21.5789 2.91179 20.7161 3.06983 18.8158C3.33434 15.7032 3.39811 9.05397 3.06983 5.35919C2.91124 3.39064 2.35006 2.59601 0.984831 2.43686L0 2.27827V1.41987H18.3913L18.4223 7.40316Z" fill="black"/>
</svg>
