<svg width="262" height="24" viewBox="0 0 262 24" fill="none" xmlns="http://www.w3.org/2000/svg">
<path d="M160.461 0.674623L158.386 3.72566L158.948 4.33594L164.806 1.38234L164.513 0.674623H160.461ZM36.1488 20.1282C37.369 21.7878 39.0289 22.862 41.4697 22.862C44.6674 22.862 47.2059 21.0797 47.2059 17.614C47.2059 11.7806 39.7855 12.6589 39.7855 8.94907C39.7855 6.92303 41.3233 6.16642 43.52 6.67892L45.0336 9.97406H46.3758V6.04437C45.131 5.36093 43.7398 4.94621 41.8116 4.94621C39.0535 4.94621 36.3926 6.43481 36.3926 9.9009C36.3926 15.8077 43.7152 14.9534 43.7152 18.5661C43.7152 20.1036 42.495 21.0069 40.6642 21.0069C39.1999 21.0069 37.8815 20.2746 36.5635 19.3962L36.1488 20.1282ZM125.557 20.1282C126.777 21.7878 128.437 22.862 130.878 22.862C134.075 22.862 136.614 21.0797 136.614 17.614C136.614 11.7806 129.194 12.6589 129.194 8.94907C129.194 6.92303 130.731 6.16642 132.928 6.67892L134.441 9.97406H135.784V6.04437C134.539 5.36093 133.148 4.94621 131.219 4.94621C128.461 4.94621 125.801 6.43481 125.801 9.9009C125.801 15.8077 133.123 14.9534 133.123 18.5661C133.123 20.1036 131.903 21.0069 130.072 21.0069C128.608 21.0069 127.29 20.2746 125.972 19.3962L125.557 20.1282ZM13.0828 20.4944L10.9104 21.2753V22.5693H19.1117V21.2753L16.9879 20.4944V3.94549L19.1117 3.16428V1.87056H10.9104V3.16428L13.0828 3.94549V10.8527H6.07746V3.94549L8.20094 3.16428V1.87056H0V3.16428L2.14776 3.94549V20.4944L0 21.2753V22.5693H8.20094V21.2753L6.07746 20.4944V13.0251H13.0828V20.4944ZM252.725 15.5636V20.665L250.626 21.2753V22.5693H258.485V21.2753L256.386 20.665V15.1732L260.56 7.26492L262 6.50831V5.23887H256.703V6.50831L258.607 7.26492L256.679 11.2435L255.727 13.367H255.605L254.58 11.2189L252.432 7.11858L253.994 6.53258V5.23887H246.94V6.53258L248.258 7.11858L252.725 15.5636ZM233.344 20.4944L231.88 21.2995V22.5693H237.396V21.2995L235.224 20.4944L235.126 12.5618L235.077 9.87662L235.224 9.82773L236.542 12.0733L243.425 22.7399L245.158 22.5201L245.256 7.31381L246.72 6.50831V5.23887H241.204V6.50831L243.376 7.31381L243.474 13.4402L243.523 16.0761L243.401 16.1254L242.034 13.8552L236.493 5.23887H231.88V6.53258L233.442 7.24064L233.344 20.4944ZM225.436 20.665L223.752 21.2753V22.5693H230.757V21.2753L229.097 20.665V7.14286L230.757 6.53258V5.23887H223.752V6.53258L225.436 7.14286V20.665ZM223.069 6.50831V5.23887H217.845V6.50831L219.822 7.28919L217.43 15.0754L216.649 17.9801H216.527L215.722 15.0754L213.183 7.14286L214.843 6.53258V5.23887H207.935V6.53258L209.327 7.14286L214.281 22.6179H216.771L221.726 7.28919L223.069 6.50831ZM208.179 13.9041C208.179 8.09469 204.469 4.94621 200.71 4.94621C196.927 4.94621 193.217 8.09469 193.217 13.9041C193.217 19.7132 196.927 22.862 200.71 22.862C204.469 22.862 208.179 19.7132 208.179 13.9041ZM204.274 13.9041C204.274 18.7367 202.663 21.2267 200.71 21.2267C198.733 21.2267 197.122 18.7367 197.122 13.9041C197.122 9.07113 198.733 6.58148 200.71 6.58148C202.663 6.58148 204.274 9.07113 204.274 13.9041ZM175.985 20.4944L173.812 21.2995V22.5693H181.013V21.2995L178.352 20.4944L178.254 9.92551L178.206 7.24064L178.352 7.19141L179.67 9.43729L188.75 22.7399L190.727 22.5201L190.825 3.94549L192.656 3.13966V1.87056H185.797V3.13966L188.457 3.94549L188.555 12.7082L188.604 15.3438L188.482 15.393L187.115 13.1229L179.377 1.87056H173.812V3.16428L176.082 3.87199L175.985 20.4944ZM154.334 22.5693H167.173V17.2721H165.831L164.415 20.8606H159.68V14.5872L164.122 15.0511V12.4883L159.68 12.9765V6.94764H164.098L165.416 10.2917H166.758V5.23887H154.334V6.53258L156.019 7.14286V20.665L154.334 21.2753V22.5693ZM139.762 20.665L138.079 21.2753V22.5693H145.084V21.2753L143.424 20.665V16.1739L144.742 14.6607L148.403 20.665L147.085 21.2753V22.5693H153.993V21.2753L152.748 20.6893L147.28 11.7806L151.186 7.28919L152.894 6.50831V5.23887H147.28V6.50831L148.696 7.28919L145.035 11.7806L143.521 13.782L143.424 13.7332V7.14286L145.084 6.53258V5.23887H138.079V6.53258L139.762 7.14286V20.665ZM115.427 13.2692V6.94764H116.575C118.234 6.94764 119.113 7.87519 119.113 9.94979C119.113 12.1464 118.015 13.2692 116.257 13.2692H115.427ZM115.427 14.9776H116.184C118.991 14.9776 118.356 23.716 126.387 23.7406L126.631 23.0572C122.701 21.7149 123.213 14.9534 119.04 14.221V14.0993C121.359 13.5133 122.823 12.0001 122.823 9.6814C122.823 6.55686 120.602 5.23887 117.697 5.23887H110.082V6.53258L111.766 7.14286V20.665L110.082 21.2753V22.5693H117.331V21.2753L115.427 20.6407V14.9776ZM111.913 0.845232L115.012 4.16499H117.868L120.968 0.845232L120.309 0.28418L116.55 1.82167L112.547 0.28418L111.913 0.845232ZM102.173 0.674623L100.099 3.72566L100.66 4.33594L106.518 1.38234L106.225 0.674623H102.173ZM103.077 17.1746L104.175 20.665L102.491 21.2753V22.5693H109.301V21.2753L108.056 20.665L103.174 5.19032H100.099L95.217 20.5187L93.9968 21.2995V22.5693H99.0981V21.2995L97.0967 20.5187L98.1217 17.1746H103.077ZM98.6099 15.4659L99.8059 11.5851L100.489 8.99796H100.611L101.319 11.5851L102.564 15.4659H98.6099ZM84.3555 20.8606V6.94764H85.6492C88.3583 6.94764 90.1156 9.16857 90.1156 13.6843C90.1156 18.1757 88.3583 20.8606 85.6492 20.8606H84.3555ZM86.4543 22.5693C90.9211 22.5693 94.0211 19.2249 94.0211 13.66C94.0211 8.0458 90.9211 5.23887 86.4543 5.23887H79.01V6.53258L80.6942 7.14286V20.665L79.01 21.2753V22.5693H86.4543ZM77.6674 13.9041C77.6674 8.09469 73.9575 4.94621 70.1984 4.94621C66.4151 4.94621 62.7052 8.09469 62.7052 13.9041C62.7052 19.7132 66.4151 22.862 70.1984 22.862C73.9575 22.862 77.6674 19.7132 77.6674 13.9041ZM73.762 13.9041C73.762 18.7367 72.151 21.2267 70.1984 21.2267C68.2213 21.2267 66.6103 18.7367 66.6103 13.9041C66.6103 9.07113 68.2213 6.58148 70.1984 6.58148C72.151 6.58148 73.762 9.07113 73.762 13.9041ZM54.0157 6.94764H55.1631C56.8958 6.94764 57.7745 7.92374 57.7745 10.2671C57.7745 12.6104 57.0425 13.9769 54.7969 14.4651L55.041 15.3195C59.6785 15.3195 61.6067 13.0497 61.6067 10.2428C61.6067 6.70353 59.288 5.23887 56.237 5.23887H48.6702V6.53258L50.3544 7.14286V20.665L48.6702 21.2753V22.5693H56.2855V21.2753L54.0157 20.6407V6.94764ZM34.9526 13.9041C34.9526 8.09469 31.2427 4.94621 27.4836 4.94621C23.7002 4.94621 19.9904 8.09469 19.9904 13.9041C19.9904 19.7132 23.7002 22.862 27.4836 22.862C31.2427 22.862 34.9526 19.7132 34.9526 13.9041ZM31.0475 13.9041C31.0475 18.7367 29.4365 21.2267 27.4836 21.2267C25.5068 21.2267 23.8958 18.7367 23.8958 13.9041C23.8958 9.07113 25.5068 6.58148 27.4836 6.58148C29.4365 6.58148 31.0475 9.07113 31.0475 13.9041Z" fill="black"/>
</svg>
