<svg width="262" height="21" viewBox="0 0 262 21" fill="none" xmlns="http://www.w3.org/2000/svg">
<path d="M251.604 10.741C251.604 10.741 251.255 10.6536 251.211 11.003C251.211 11.1776 251.255 11.3086 251.429 11.4396C251.473 11.4833 251.517 11.4833 251.561 11.4833C252.215 11.5269 253.001 10.3916 253.525 9.5183C253.744 9.12531 253.831 8.99432 253.962 8.99432C254.006 8.99432 254.18 8.95065 254.399 9.34364C254.661 9.82397 256.058 11.2213 257.805 10.8283C257.892 10.6536 257.543 10.5226 257.368 10.3916C257.368 10.3916 256.626 9.82397 257.586 9.56197C258.503 9.34364 258.984 9.69298 259.77 9.03799C259.813 8.81966 259.333 8.73232 259.333 8.73232C259.333 8.73232 258.765 8.38299 260.381 7.90266C261.167 7.68433 261.167 7.55334 261.036 7.466C260.905 7.37867 260.512 7.20401 261.08 6.85468C261.647 6.46169 262.04 5.98135 261.997 5.80668C261.909 5.67568 261.647 5.71936 261.342 5.89402C260.992 6.06869 260.556 5.98135 260.294 5.58835C260.075 5.19536 259.813 5.2827 259.508 5.50103C259.202 5.71936 258.591 6.06869 258.285 5.50103C258.11 4.84604 258.198 5.0207 258.678 4.10371C259.158 3.23039 259.246 2.48806 259.246 2.35706C259.246 2.22606 259.158 2.13873 258.722 2.35706C258.329 2.44439 258.285 0.523091 258.285 0.261094C258.285 0.261094 258.285 -0.262904 257.979 0.173757C257.717 0.47942 256.757 1.39641 256.451 1.52741C256.145 1.61474 255.709 1.35275 255.752 0.959755C255.752 0.56676 255.49 0.697758 255.403 0.959755C255.316 1.17809 254.573 3.53605 254.399 3.66705C254.224 3.79804 254.093 4.14738 253.787 3.57972C253.482 3.01206 252.914 1.61474 252.434 2.31339C252.303 2.1824 251.43 1.00342 250.687 0.959755C250.6 1.09075 250.775 1.44008 250.906 1.52741C251.037 1.70207 251.037 2.1824 250.906 2.53172C250.775 2.88105 250.775 3.31772 250.949 3.75438C251.036 3.97271 250.905 4.32204 250.338 4.36571C249.77 4.45304 249.858 4.58403 250.12 4.93336C250.338 5.23902 251.255 5.98135 251.473 6.28701C251.691 6.54901 251.43 6.89834 251.037 6.942C250.644 6.98567 250.251 6.85468 250.12 7.07301C250.076 7.29134 250.425 7.204 250.556 7.42233C250.556 7.42233 251.298 8.77598 252.303 8.73232C253.307 8.64499 253.351 8.77599 253.22 9.21265C253.132 9.47464 252.346 10.6536 251.604 10.741ZM46.5917 17.2472C46.1987 18.5572 45.5438 19.1685 44.4958 19.1685H40.5658C40.5658 18.5135 40.5658 16.5485 40.6095 14.7582C40.6095 13.6229 40.6532 11.6143 40.6532 11.3086H45.6311V9.69298H40.6532V1.87673H43.7098C44.7578 1.87673 45.2381 2.26973 45.5438 3.27405L46.5481 6.68001C46.9847 6.63634 47.3777 6.63634 47.8144 6.54901V0.828749H34.8892V1.87673H36.6795V19.1685H32.0073V1.87673H34.0159V0.828749H26.156V1.87673H28.121V9.7803H22.1824V1.87673H24.1474V0.828749H0.218331L0 6.59268C0.480327 6.63635 0.829656 6.72367 1.30998 6.72367L2.3143 3.05572C2.61997 2.00774 2.92563 1.83308 4.10462 1.83308H6.11326V19.1248H3.40596V20.1728H12.7505V19.1248H9.99954V1.83308H12.0955C13.3182 1.83308 13.5365 2.09507 13.8422 3.05572L14.8465 6.72367C15.3268 6.68001 15.6761 6.59268 16.1565 6.59268V1.83308H18.2524V19.1248H16.0255V20.1728H24.1474V19.1248H22.1824V11.2213H28.0773V19.1248H26.1123V20.1728H48.4694L48.6877 14.1906L47.4214 13.9723L46.5917 17.2472ZM63.8835 13.4483H65.8922V18.7755C65.2372 18.9939 64.4949 19.1685 63.7525 19.1685C61.0452 19.1685 59.2113 17.1599 59.2113 10.3043C59.2113 5.80669 60.3466 1.78941 63.6652 1.78941C66.0668 1.78941 66.9402 3.84171 67.8135 7.11667L69.2108 6.81101V1.6584C68.6431 1.30907 66.8092 0.566749 63.6215 0.566749C58.2506 0.566749 55.0193 5.85035 55.0193 10.872C55.0193 17.4219 58.7746 20.5658 63.5342 20.5658C64.6695 20.5658 66.7655 20.1292 67.9445 19.6925L69.7348 19.5615V12.4439H63.9272L63.8835 13.4483ZM81.612 17.2035C81.1316 18.6445 80.564 19.1685 79.4723 19.1685H76.634C76.765 18.9939 76.765 17.0725 76.765 1.87673H78.9047V0.828749H70.8264V1.87673H72.8351V19.1685H70.7391V20.2165H83.4896L83.9263 14.0159C83.4896 13.9723 83.1403 13.9722 82.7036 13.8849L81.612 17.2035ZM92.1355 0.523094C86.5462 0.523094 84.1009 5.2827 84.1009 10.741C84.1009 17.2909 87.4196 20.5222 92.1355 20.5222C97.7248 20.5222 100.214 15.7626 100.214 10.3043C100.17 4.14738 97.1571 0.523094 92.1355 0.523094ZM92.1355 19.2122C90.3889 19.2122 88.2492 17.6839 88.2492 10.5226C88.2492 3.97271 89.8212 1.87673 92.1355 1.87673C93.7075 1.87673 96.0655 2.92473 96.0655 10.5663C96.0218 17.4655 94.1005 19.2122 92.1355 19.2122ZM111.392 10.3043V10.1296C113.532 9.51831 115.148 7.42233 115.148 5.85035C115.148 2.75006 113.008 0.828749 108.903 0.828749H100.869V1.87673H102.921V19.1685H100.869V20.2165H109.034C113.139 20.2165 115.541 18.1205 115.541 15.1076C115.541 12.7933 113.794 10.8283 111.392 10.3043ZM106.851 1.87673H108.86C110.301 1.87673 111.436 3.01206 111.436 6.15602C111.436 8.03366 110.65 9.69298 109.296 9.69298H106.851V1.87673ZM109.078 19.1685H107.113C106.851 19.1685 106.851 18.9065 106.851 18.5135V10.8283H109.122C110.999 10.8283 111.567 12.6186 111.567 15.0639C111.567 18.4262 110.432 19.1685 109.078 19.1685ZM128.291 17.2472C127.898 18.5572 127.243 19.1685 126.239 19.1685H122.309C122.309 18.5135 122.309 16.5485 122.352 14.7582C122.352 13.6229 122.396 11.6143 122.396 11.3086H127.374V9.69298H122.396V1.87673H125.453C126.501 1.87673 126.981 2.26973 127.287 3.27405L128.291 6.68001C128.728 6.63634 129.077 6.63634 129.557 6.54901V0.828749H116.676V1.87673H118.466V19.1685H115.977V20.2165H130.169L130.387 14.2343L129.121 13.9723L128.291 17.2472ZM176.062 0.828749H162.744V1.87673C164.796 1.87673 165.145 2.40073 165.145 3.49238V13.0989C162.656 8.99431 160.211 4.93336 157.766 0.828749H152.657V1.74574C153.486 2.00774 154.098 2.61906 154.578 3.27405V17.2472C154.578 18.9065 153.705 19.1249 152.831 19.1685H151.871L146.238 0.828749H143.574C142.832 3.75438 138.596 16.9415 138.596 16.9415C138.203 18.1642 137.548 19.2122 136.282 19.2122H136.238V20.2165H142.439V19.1685H142.221C140.518 19.0375 139.994 18.9939 139.994 17.7712C139.994 17.3782 140.037 16.9852 140.125 16.4176L141.129 12.9243H145.845L147.635 19.1685H145.495V20.2165H158.464V19.2122C156.063 19.1685 155.932 18.5135 155.932 17.2909V5.32637C158.945 10.3043 161.87 15.2822 164.883 20.2165H166.412V3.49238C166.412 2.22607 167.198 1.9204 168.595 1.87673H170.604V19.1685H168.464V20.2165H176.28C182 20.2165 185.275 15.7189 185.275 10.3043C185.319 4.7587 181.564 0.828749 176.062 0.828749ZM141.435 11.8763L143.487 4.7587L145.539 11.8763H141.435ZM175.232 19.1685C174.752 19.1685 174.577 18.8629 174.577 18.2952V1.83308C178.682 1.83308 180.909 4.40937 180.909 10.479C180.909 16.7669 179.162 19.1685 175.232 19.1685ZM234.531 19.1685V1.87673H236.321V0.828749H228.505V1.87673H230.339V19.1685H227.282L221.649 0.828749H218.986C218.287 3.75438 214.008 16.9415 214.008 16.9415C213.658 18.0769 213.047 19.0375 211.955 19.1685H210.427L209.379 1.87673H211.606V0.828749H205.536L201.868 11.134C200.646 7.728 199.379 4.23471 198.244 0.828749H191.825V1.87673C193.834 1.87673 193.965 2.1824 193.965 4.10371V4.32204C193.79 7.77166 193.397 14.1469 193.135 17.7275C193.092 18.5135 192.437 19.1685 190.69 19.2559V20.2165H197.502V19.2122C195.057 19.1685 194.664 18.3389 194.664 17.7275C194.664 17.3782 194.751 14.8892 194.838 12.4439C194.969 9.08165 195.057 6.94201 195.188 3.53605V3.66705C196.847 8.29565 198.593 13.0116 200.209 17.6402L200.82 17.3345C202.436 12.9679 204.008 8.73232 205.667 4.40938L206.41 19.1248H204.532V20.1728H217.763V19.1248H217.588C215.885 18.9939 215.361 18.9502 215.361 17.7275C215.361 17.3345 215.405 16.9415 215.492 16.3739L216.497 12.8806H221.256L223.09 19.1248H220.951V20.1728H236.321V19.1248H234.531V19.1685ZM216.846 11.8763L218.898 4.7587L220.951 11.8763H216.846ZM249.246 13.8849L248.155 17.2035C247.674 18.6445 247.107 19.1685 246.015 19.1685H243.177C243.308 18.9939 243.308 17.0725 243.308 1.87673H245.447V0.828749H237.369V1.87673H239.378V19.1685H237.282V20.2165H250.032L250.469 14.0159C250.032 13.9723 249.683 13.9722 249.246 13.8849Z" fill="black"/>
</svg>
