<svg width="32" height="32" viewBox="0 0 32 32" fill="none" xmlns="http://www.w3.org/2000/svg"><path d="M5.5 2h22L29 7H4l1.5-5zM4.5 18.5h24L29 27H4l.5-8.5z" fill="#FCEAAB"/><path d="M1.5 13.5v3M31.5 13.5v3" stroke="#0F264E" stroke-miterlimit="10" stroke-linecap="round" stroke-linejoin="round"/><path d="M9 24.5a1.5 1.5 0 100-3 1.5 1.5 0 000 3zM24 24.5a1.5 1.5 0 100-3 1.5 1.5 0 000 3z" fill="#0F264E"/><path d="M28.5 18.5h-24M4.5 6.5h24" stroke="#0F264E" stroke-miterlimit="10" stroke-linecap="round" stroke-linejoin="round"/><path d="M11.5 27.5v4h-5v-4" fill="#fff"/><path d="M11.5 27.5v4h-5v-4" stroke="#0F264E" stroke-miterlimit="10" stroke-linecap="round" stroke-linejoin="round"/><path d="M26.5 27.5v4h-5v-4" fill="#fff"/><path d="M26.5 27.5v4h-5v-4M28.5 27.5h-24v-23a3 3 0 013-3h18a3 3 0 013 3v23z" stroke="#0F264E" stroke-miterlimit="10" stroke-linecap="round" stroke-linejoin="round"/><path fill="#fff" d="M5 7h23v11H5z"/></svg>
