<svg width="25" height="31" viewBox="0 0 25 31" fill="none" xmlns="http://www.w3.org/2000/svg"><path d="M3.5 12.5v16a2 2 0 104 0v-16" fill="#FFFCAE"/><path d="M3.5 12.5v16a2 2 0 104 0v-16" stroke="#0F264E" stroke-miterlimit="10" stroke-linecap="round" stroke-linejoin="round"/><path d="M20.5 19.5v9a2 2 0 104 0v-9" fill="#FFFCAE"/><path d="M20.5 19.5v9a2 2 0 104 0v-9M10.5.5v9a3 3 0 01-3 3h-4a3 3 0 01-3-3v-9M5.5.5v8" stroke="#0F264E" stroke-miterlimit="10" stroke-linecap="round" stroke-linejoin="round"/><path d="M24.5 19.5h-7v-12a7 7 0 017-7v19z" fill="#fff" stroke="#0F264E" stroke-miterlimit="10" stroke-linecap="round" stroke-linejoin="round"/></svg>
