<svg width="32" height="28" viewBox="0 0 32 28" fill="none" xmlns="http://www.w3.org/2000/svg"><path d="M24.25 25.25v2h3v-2" stroke="#0F264E" stroke-miterlimit="10"/><path d="M12.25 20.25a6 6 0 100-12 6 6 0 000 12z" fill="#E8CBFF" stroke="#0F264E" stroke-miterlimit="10" stroke-linecap="round" stroke-linejoin="round"/><path d="M7.059 11.25H3.75a2.5 2.5 0 00-2.5 2.5v9a2.5 2.5 0 002.5 2.5h25a2.5 2.5 0 002.5-2.5v-9a2.5 2.5 0 00-2.5-2.5H17.441" stroke="#0F264E" stroke-miterlimit="10"/><path d="M12.25 17.25a3 3 0 100-6 3 3 0 000 6z" fill="#fff" stroke="#0F264E" stroke-miterlimit="10" stroke-linecap="square"/><path d="M22.25 15.25h5M22.25 18.25h5M22.25 21.25h5" stroke="#0F264E" stroke-miterlimit="10" stroke-linecap="square"/><path d="M5.25 25.25v2h3v-2" stroke="#0F264E" stroke-miterlimit="10"/><path d="M12.25 4.25v-3M19.32 7.179l2.122-2.122M5.179 7.179L3.057 5.057" stroke="#0F264E" stroke-miterlimit="10" stroke-linecap="square"/></svg>
