<svg width="31" height="28" viewBox="0 0 31 28" fill="none" xmlns="http://www.w3.org/2000/svg"><path d="M10.5 18.5a3 3 0 100-6 3 3 0 000 6z" fill="#fff" stroke="#0F264E" stroke-miterlimit="10" stroke-linecap="round" stroke-linejoin="round"/><path d="M16.5 27.5v-2.983a2 2 0 00-.983-1.725A9.8 9.8 0 0010.5 21.5a9.716 9.716 0 00-5.026 1.288 2 2 0 00-.974 1.719V27.5" fill="#fff"/><path d="M16.5 27.5v-2.983a2 2 0 00-.983-1.725A9.8 9.8 0 0010.5 21.5a9.716 9.716 0 00-5.026 1.288 2 2 0 00-.974 1.719V27.5" stroke="#0F264E" stroke-miterlimit="10" stroke-linecap="round" stroke-linejoin="round"/><path d="M12.5 6.5H.5v21h27v-12" stroke="#0F264E" stroke-miterlimit="10" stroke-linecap="round" stroke-linejoin="round"/><path d="M16.5 3.5v5a3 3 0 003 3v3l5-3h3a3 3 0 003-3v-5a3 3 0 00-3-3h-8a3 3 0 00-3 3z" fill="#BDF9FF" stroke="#0F264E" stroke-miterlimit="10" stroke-linecap="round" stroke-linejoin="round"/></svg>
