<svg width="31" height="30" viewBox="0 0 31 30" fill="none" xmlns="http://www.w3.org/2000/svg"><path d="M.5 29.5A9.678 9.678 0 008 26a9.785 9.785 0 0015 0 9.678 9.678 0 007.5 3.5" stroke="#0F264E" stroke-miterlimit="10" stroke-linecap="round" stroke-linejoin="round"/><path d="M3.5 11a2.5 2.5 0 100-5 2.5 2.5 0 000 5z" stroke="#0F264E"/><path d="M28.833 17.549l-9.976 3.67L11.273 1.28s9.975-3.671 15.19 10.039l2.37 6.23z" fill="#FFD2D2" stroke="#0F264E" stroke-miterlimit="10" stroke-linecap="round" stroke-linejoin="round"/><path d="M10.842 11l-3 2-2.6-.651a1 1 0 00-1.236 1.08l.7 6.265a1 1 0 001.365.818l3.068-1.227a1 1 0 011.172.328L12.842 23" stroke="#0F264E" stroke-miterlimit="10" stroke-linecap="round" stroke-linejoin="round"/></svg>
