<svg width="905" height="434" viewBox="0 0 905 434" fill="none" xmlns="http://www.w3.org/2000/svg">
<path d="M55.788 170.995C71.918 163.072 89.773 159.312 107.728 160.056C142.458 161.256 161.536 178.867 162.292 213.419C163.137 249.617 162.87 285.503 162.736 321.656C162.736 336.377 158.867 339.755 144.326 339.755H124.181C111.329 339.755 107.327 335.842 107.06 322.902V226.004C107.06 211.018 99.989 204.836 84.826 205.459C82.186 205.504 79.555 205.756 76.954 206.215C57.077 210.262 55.92 211.684 55.92 231.962V318.321C55.92 336.776 52.763 339.888 34.575 339.888H14.432C4.96001 339.888 0.780013 335.442 0.157013 325.659V97.487C0.157013 80.811 3.71501 77.299 20.124 77.299H37.911C51.697 77.299 55.921 81.167 56.189 95.086C56.589 115.942 56.189 136.797 56.189 157.609C55.788 161.435 55.788 165.57 55.788 170.995Z" fill="black"/>
<path d="M352.665 255.532C351.464 265.136 350.752 277.453 348.217 289.461C344.207 316.511 323.208 337.889 296.232 342.38C277.797 346.339 258.707 346.097 240.379 341.667C217.155 337.192 198.651 319.624 192.975 296.664C184.577 267.703 184.577 236.955 192.975 207.993C201.869 177.576 225.125 161.256 259.19 160.098C271.48 159.443 283.804 160.204 295.921 162.366C328.072 168.815 346.304 190.605 350.441 226.179C351.464 235.209 351.774 243.924 352.665 255.532ZM296.544 256.243C295.921 246.325 295.566 239.566 294.942 232.895C294.552 229.398 293.836 225.946 292.808 222.578C290.767 211.357 280.566 203.501 269.196 204.391C258.106 203.552 248.178 211.235 246.204 222.178C241.161 242.172 241.161 263.107 246.204 283.101C248.279 294.234 258.611 301.868 269.862 300.577C280.521 301.313 290.057 293.989 292.096 283.503C294.069 274.487 295.553 265.372 296.544 256.198V256.243V256.243Z" fill="black"/>
<path d="M708.374 228.583C710.82 209.995 706.684 204.259 688.764 205.103C674.159 206.336 659.648 208.489 645.317 211.55C633.176 213.73 624.283 210.661 622.594 201.235C619.836 185.672 620.904 172.33 633.399 168.595C662.267 159.098 693.16 157.561 722.827 164.147C749.775 170.594 762.848 188.426 762.848 217.51V320.499C762.848 328.282 762.848 336.287 753.6 339.311C743.302 343.066 731.755 339.889 724.828 331.395L721.982 327.26C706.212 339.876 686.335 346.212 666.172 345.047C622.371 343.447 597.2 301.69 616.233 261.98C625.127 243.081 642.916 237.121 661.283 234.187C677.112 231.828 692.81 230.361 708.374 228.583ZM709.22 258.91C698.591 260.511 689.253 261.399 680.182 263.358C670.721 264.586 663.578 272.541 663.371 282.079C661.372 291.662 666.442 301.319 675.467 305.113C684.361 308.582 703.26 305.113 707.618 299.067C708.455 297.895 708.919 296.501 708.951 295.064C709.22 283.368 709.22 271.716 709.22 258.777V258.91V258.91Z" fill="black"/>
<path d="M390.774 166.281V143.291C389.965 136.244 394.516 129.692 401.403 127.993C410.471 124.953 419.689 122.37 429.018 120.255C435.753 118.018 443.028 121.666 445.266 128.401C445.864 130.201 446.056 132.113 445.828 133.996C446.139 143.913 445.828 153.741 445.828 164.769H472.198C485.05 165.081 489.452 169.214 489.987 182.556C490.698 209.593 489.231 211.107 462.505 211.107H446.984C446.57 213.519 446.288 215.955 446.139 218.398V275.454C446.139 293.241 451.476 298.666 468.774 299.911C483.938 301.023 488.075 304.359 488.075 316.721C488.608 336.42 484.604 343.091 468.774 344.025C456.217 344.97 443.593 344.328 431.197 342.114C405.45 336.91 391.576 320.188 390.73 292.975C389.974 269.228 390.419 245.436 390.331 221.823V211.15H374.767C367.44 211.739 361.017 206.291 360.404 198.966C360.404 198.55 360.404 198.151 360.404 197.765C358.268 179.577 361.515 174.73 378.814 169.837L390.774 166.281Z" fill="black"/>
<path d="M584.172 276.878C584.172 307.692 584.75 338.51 584.172 369.326C584.022 404.864 555.09 433.553 519.554 433.401C516.174 433.386 512.799 433.107 509.463 432.562C497.057 431.006 492.653 426.115 492.476 413.263V401.833C493.01 391.072 496.346 387.336 507.018 385.379C523.471 382.313 528.853 376.129 528.896 358.922V183.669C528.896 168.815 532.678 164.857 547.575 164.37H567.807C579.77 164.902 584.26 169.261 584.348 181.31V276.297L584.172 276.878Z" fill="black"/>
<path d="M832.576 176.953C847.144 166.501 864.503 160.631 882.427 160.099C900.214 160.099 904.306 163.835 904.261 181.445V189.361C904.261 200.746 899.548 204.792 888.43 205.948C877.965 207.225 867.575 209.051 857.302 211.418C850.41 212.887 847.785 217.066 847.919 224.759C848.451 256.91 847.919 288.794 847.919 320.769C847.919 336.466 844.493 339.756 828.618 340.068H805.717C799.133 340.606 793.359 335.705 792.821 329.119C792.757 328.324 792.77 327.522 792.866 326.729V178.821C792.356 172.235 797.283 166.481 803.869 165.971C803.878 165.969 803.886 165.969 803.894 165.969H804.427C815.5 164.102 827.15 162.368 832.576 176.953Z" fill="black"/>
<path d="M578.213 133.063C588.264 96.954 584.662 78.766 567.006 75.252C569.719 87.526 572.742 100.111 559.848 108.604C553.087 113.051 547.752 111.361 535.789 102.156C530.274 113.496 532.143 124.791 534.677 136.886C517.513 133.907 503.993 126.791 497.725 110.205C491.257 95.136 494.799 77.637 506.618 66.269C510.747 62.077 515.21 58.225 519.958 54.751C539.259 40.254 542.993 26.202 532.81 4.41199C532.355 3.16399 531.984 1.88701 531.7 0.588013C553.159 3.84901 573.453 12.459 590.709 25.625C628.332 56.397 623.797 111.672 582.261 131.996C580.856 132.104 579.484 132.464 578.213 133.063Z" fill="#EE4854"/>
</svg>
