<svg width="49" height="48" viewBox="0 0 49 48" fill="none" xmlns="http://www.w3.org/2000/svg">
<path d="M43.881 36.9491V22.0508C43.881 21.2237 43.5525 20.4304 42.9676 19.8456C42.3828 19.2607 41.5895 18.9321 40.7624 18.9321H23.6099C22.7827 18.9321 21.9895 19.2607 21.4046 19.8456C20.8198 20.4304 20.4912 21.2237 20.4912 22.0508V36.9491" fill="white"/>
<path d="M43.881 36.9491V22.0508C43.881 21.2237 43.5525 20.4304 42.9676 19.8456C42.3828 19.2607 41.5895 18.9321 40.7624 18.9321H23.6099C22.7827 18.9321 21.9895 19.2607 21.4046 19.8456C20.8198 20.4304 20.4912 21.2237 20.4912 22.0508V36.9491H43.881Z" stroke="#465061" stroke-miterlimit="10" stroke-linecap="square"/>
<path d="M39.9826 33.7457V36.8644H24.3894V33.7457C24.3894 32.7118 23.9787 31.7203 23.2476 30.9892C22.5165 30.2581 21.525 29.8474 20.4911 29.8474C19.4572 29.8474 18.4656 30.2581 17.7346 30.9892C17.0035 31.7203 16.5928 32.7118 16.5928 33.7457V43.8813H47.7792V33.7457C47.7792 32.7118 47.3685 31.7203 46.6374 30.9892C45.9064 30.2581 44.9148 29.8474 43.8809 29.8474C42.847 29.8474 41.8555 30.2581 41.1244 30.9892C40.3933 31.7203 39.9826 32.7118 39.9826 33.7457Z" fill="#DBDFE7" stroke="#465061" stroke-miterlimit="10" stroke-linecap="square"/>
<path d="M19.7119 43.8813V47" stroke="#465061" stroke-miterlimit="10" stroke-linecap="square"/>
<path d="M44.6611 43.8813V47" stroke="#465061" stroke-miterlimit="10" stroke-linecap="square"/>
<path d="M8.79688 46.9999V17.3728" stroke="#465061" stroke-miterlimit="10" stroke-linecap="square"/>
<path d="M12.6949 1H4.89831L1 11.9153V13.4746H16.5932V11.9153L12.6949 1Z" fill="white" stroke="#465061" stroke-miterlimit="10" stroke-linecap="square"/>
<path d="M13.4751 47H4.11914" stroke="#465061" stroke-miterlimit="10" stroke-linecap="square"/>
</svg>
