<svg width="62" height="58" viewBox="0 0 62 58" fill="none" xmlns="http://www.w3.org/2000/svg">
<g opacity="0.5">
<path d="M1 47V57" stroke="#465061" stroke-miterlimit="10" stroke-linecap="square"/>
<path d="M61 47V57" stroke="#465061" stroke-miterlimit="10" stroke-linecap="square"/>
<path d="M55 23.5V16C55 15.4477 54.5523 15 54 15H8C7.44771 15 7 15.4477 7 16V23.5" fill="#DBDFE7"/>
<path d="M55 23.5V16C55 15.4477 54.5523 15 54 15H8C7.44771 15 7 15.4477 7 16V23.5" stroke="#465061" stroke-miterlimit="10" stroke-linecap="square"/>
<path d="M5 32.5V26.1667C5 24.425 6.8 23 9 23H27C29.2 23 31 24.425 31 26.1667V32.5" fill="white"/>
<path d="M5 32.5V26.1667C5 24.425 6.8 23 9 23H27C29.2 23 31 24.425 31 26.1667V32.5" stroke="#465061" stroke-miterlimit="10" stroke-linecap="square"/>
<path d="M31 32.5V26.1667C31 24.425 32.8 23 35 23H53C55.2 23 57 24.425 57 26.1667V32.5" fill="white"/>
<path d="M31 32.5V26.1667C31 24.425 32.8 23 35 23H53C55.2 23 57 24.425 57 26.1667V32.5" stroke="#465061" stroke-miterlimit="10" stroke-linecap="square"/>
<path d="M59 33H3C1.89543 33 1 33.8954 1 35V47H61V35C61 33.8954 60.1046 33 59 33Z" fill="#DBDFE7" stroke="#465061" stroke-miterlimit="10" stroke-linecap="square"/>
</g>
<circle cx="31" cy="20" r="20" fill="#EEEEEE"/>
<path d="M24.3213 10.6138H26.416C26.6255 8.06787 28.4141 6.45654 30.9922 6.45654C33.5864 6.45654 35.4072 8.11621 35.4072 10.4043C35.4072 12.1768 34.6499 13.2886 32.6196 14.6099C30.3477 16.0601 29.4131 17.4136 29.4292 19.5566V21.0713H31.5723V19.8628C31.5723 18.0742 32.1685 17.1558 34.2793 15.8022C36.4868 14.3843 37.6792 12.6924 37.6792 10.3076C37.6792 7.02051 34.9561 4.53906 31.0728 4.53906C26.9155 4.53906 24.4985 7.19775 24.3213 10.6138ZM30.7021 28.2578C31.7817 28.2578 32.5713 27.4521 32.5713 26.3726C32.5713 25.2769 31.7817 24.4712 30.7021 24.4712C29.6064 24.4712 28.8169 25.2769 28.8169 26.3726C28.8169 27.4521 29.6064 28.2578 30.7021 28.2578Z" fill="#465061"/>
</svg>
