<svg width="103" height="32" viewBox="0 0 103 32" fill="none" xmlns="http://www.w3.org/2000/svg">
<path d="M1 23.646V30.7229" stroke="#465061" stroke-miterlimit="10" stroke-linecap="square"/>
<path d="M43.4619 23.646V30.7229" stroke="#465061" stroke-miterlimit="10" stroke-linecap="square"/>
<path d="M39.2153 7.01538V2C39.2153 1.44772 38.7676 1 38.2153 1H6.24609C5.69381 1 5.24609 1.44772 5.24609 2V7.01538" fill="#DBDFE7"/>
<path d="M39.2153 7.01538V2C39.2153 1.44772 38.7676 1 38.2153 1H6.24609C5.69381 1 5.24609 1.44772 5.24609 2V7.01538" stroke="#465061" stroke-miterlimit="10" stroke-linecap="square"/>
<path d="M3.83105 13.3847V8.90265C3.83105 7.67008 5.1049 6.66162 6.66182 6.66162H19.4003C20.9572 6.66162 22.2311 7.67008 22.2311 8.90265V13.3847" fill="white"/>
<path d="M3.83105 13.3847V8.90265C3.83105 7.67008 5.1049 6.66162 6.66182 6.66162H19.4003C20.9572 6.66162 22.2311 7.67008 22.2311 8.90265V13.3847" stroke="#465061" stroke-miterlimit="10" stroke-linecap="square"/>
<path d="M22.2305 13.3847V8.90265C22.2305 7.67008 23.5043 6.66162 25.0612 6.66162H37.7997C39.3566 6.66162 40.6305 7.67008 40.6305 8.90265V13.3847" fill="white"/>
<path d="M22.2305 13.3847V8.90265C22.2305 7.67008 23.5043 6.66162 25.0612 6.66162H37.7997C39.3566 6.66162 40.6305 7.67008 40.6305 8.90265V13.3847" stroke="#465061" stroke-miterlimit="10" stroke-linecap="square"/>
<path d="M41.4615 13.7383H3C1.89543 13.7383 1 14.6337 1 15.7383V23.646H43.4615V15.7383C43.4615 14.6337 42.5661 13.7383 41.4615 13.7383Z" fill="#DBDFE7" stroke="#465061" stroke-miterlimit="10" stroke-linecap="square"/>
<path d="M81 21V9.42333C81 8.78062 80.7471 8.16424 80.2971 7.70978C79.847 7.25531 79.2365 7 78.6 7H65.4C64.7635 7 64.153 7.25531 63.7029 7.70978C63.2529 8.16424 63 8.78062 63 9.42333V21" fill="white"/>
<path d="M81 21V9.42333C81 8.78062 80.7471 8.16424 80.2971 7.70978C79.847 7.25531 79.2365 7 78.6 7H65.4C64.7635 7 64.153 7.25531 63.7029 7.70978C63.2529 8.16424 63 8.78062 63 9.42333V21H81Z" stroke="#465061" stroke-miterlimit="10" stroke-linecap="square"/>
<path d="M98 21V9.42333C98 8.78062 97.7612 8.16424 97.3361 7.70978C96.911 7.25531 96.3345 7 95.7333 7H83.2667C82.6655 7 82.089 7.25531 81.6639 7.70978C81.2388 8.16424 81 8.78062 81 9.42333V21" fill="white"/>
<path d="M98 21V9.42333C98 8.78062 97.7612 8.16424 97.3361 7.70978C96.911 7.25531 96.3345 7 95.7333 7H83.2667C82.6655 7 82.089 7.25531 81.6639 7.70978C81.2388 8.16424 81 8.78062 81 9.42333V21H98Z" stroke="#465061" stroke-miterlimit="10" stroke-linecap="square"/>
<path d="M94.3898 17.7457V20.8644H66.7966V17.7457C66.7966 16.7118 66.3859 15.7203 65.6548 14.9892C64.9237 14.2581 63.9322 13.8474 62.8983 13.8474C61.8644 13.8474 60.8729 14.2581 60.1418 14.9892C59.4107 15.7203 59 16.7118 59 17.7457V27.8813H102.186V17.7457C102.186 16.7118 101.776 15.7203 101.045 14.9892C100.314 14.2581 99.322 13.8474 98.2881 13.8474C97.2542 13.8474 96.2627 14.2581 95.5316 14.9892C94.8005 15.7203 94.3898 16.7118 94.3898 17.7457Z" fill="#DBDFE7" stroke="#465061" stroke-miterlimit="10" stroke-linecap="square"/>
<path d="M62.1182 27.8813V31" stroke="#465061" stroke-miterlimit="10" stroke-linecap="square"/>
<path d="M99.1904 27.8813V31" stroke="#465061" stroke-miterlimit="10" stroke-linecap="square"/>
</svg>
