<svg width="77" height="30" viewBox="0 0 77 30" fill="none" xmlns="http://www.w3.org/2000/svg">
<path d="M1 21.3479V29.174" stroke="#465061" stroke-miterlimit="10" stroke-linecap="square"/>
<path d="M35 21.3479V29.174" stroke="#465061" stroke-miterlimit="10" stroke-linecap="square"/>
<path d="M5 10.3913V4.13043C5 2.4087 6.8 1 9 1H27C29.2 1 31 2.4087 31 4.13043V10.3913" fill="white"/>
<path d="M5 10.3913V4.13043C5 2.4087 6.8 1 9 1H27C29.2 1 31 2.4087 31 4.13043V10.3913" stroke="#465061" stroke-miterlimit="10" stroke-linecap="square"/>
<path d="M33 10.3914H3C1.89543 10.3914 1 11.2868 1 12.3914V21.3479H35V12.3914C35 11.2868 34.1046 10.3914 33 10.3914Z" fill="url(#paint0_linear)" stroke="#465061" stroke-miterlimit="10" stroke-linecap="square"/>
<path d="M42 21.3479V29.174" stroke="#465061" stroke-miterlimit="10" stroke-linecap="square"/>
<path d="M76 21.3479V29.174" stroke="#465061" stroke-miterlimit="10" stroke-linecap="square"/>
<path d="M46 10.3913V4.13043C46 2.4087 47.8 1 50 1H68C70.2 1 72 2.4087 72 4.13043V10.3913" fill="white"/>
<path d="M46 10.3913V4.13043C46 2.4087 47.8 1 50 1H68C70.2 1 72 2.4087 72 4.13043V10.3913" stroke="#465061" stroke-miterlimit="10" stroke-linecap="square"/>
<path d="M74 10.3914H44C42.8954 10.3914 42 11.2868 42 12.3914V21.3479H76V12.3914C76 11.2868 75.1046 10.3914 74 10.3914Z" fill="url(#paint1_linear)" stroke="#465061" stroke-miterlimit="10" stroke-linecap="square"/>
<defs>
<linearGradient id="paint0_linear" x1="18" y1="10.3914" x2="18" y2="21.3479" gradientUnits="userSpaceOnUse">
<stop stop-color="#DBDFE7"/>
<stop offset="0.956445" stop-color="#DBDFE7" stop-opacity="0.765625"/>
<stop offset="0.975391" stop-color="#BEC5D1"/>
</linearGradient>
<linearGradient id="paint1_linear" x1="59" y1="10.3914" x2="59" y2="21.3479" gradientUnits="userSpaceOnUse">
<stop stop-color="#DBDFE7"/>
<stop offset="0.956445" stop-color="#DBDFE7" stop-opacity="0.765625"/>
<stop offset="0.975391" stop-color="#BEC5D1"/>
</linearGradient>
</defs>
</svg>
