<svg width="94" height="32" viewBox="0 0 94 32" fill="none" xmlns="http://www.w3.org/2000/svg">
<path d="M1 23.646V30.7229" stroke="#465061" stroke-miterlimit="10" stroke-linecap="square"/>
<path d="M43.4619 23.646V30.7229" stroke="#465061" stroke-miterlimit="10" stroke-linecap="square"/>
<path d="M39.2153 7.01538V2C39.2153 1.44772 38.7676 1 38.2153 1H6.24609C5.69381 1 5.24609 1.44772 5.24609 2V7.01538" fill="#DBDFE7"/>
<path d="M39.2153 7.01538V2C39.2153 1.44772 38.7676 1 38.2153 1H6.24609C5.69381 1 5.24609 1.44772 5.24609 2V7.01538" stroke="#465061" stroke-miterlimit="10" stroke-linecap="square"/>
<path d="M3.83105 13.3847V8.90265C3.83105 7.67008 5.1049 6.66162 6.66182 6.66162H19.4003C20.9572 6.66162 22.2311 7.67008 22.2311 8.90265V13.3847" fill="white"/>
<path d="M3.83105 13.3847V8.90265C3.83105 7.67008 5.1049 6.66162 6.66182 6.66162H19.4003C20.9572 6.66162 22.2311 7.67008 22.2311 8.90265V13.3847" stroke="#465061" stroke-miterlimit="10" stroke-linecap="square"/>
<path d="M22.2305 13.3847V8.90265C22.2305 7.67008 23.5043 6.66162 25.0612 6.66162H37.7997C39.3566 6.66162 40.6305 7.67008 40.6305 8.90265V13.3847" fill="white"/>
<path d="M22.2305 13.3847V8.90265C22.2305 7.67008 23.5043 6.66162 25.0612 6.66162H37.7997C39.3566 6.66162 40.6305 7.67008 40.6305 8.90265V13.3847" stroke="#465061" stroke-miterlimit="10" stroke-linecap="square"/>
<path d="M41.4615 13.7383H3C1.89543 13.7383 1 14.6337 1 15.7383V23.646H43.4615V15.7383C43.4615 14.6337 42.5661 13.7383 41.4615 13.7383Z" fill="#DBDFE7" stroke="#465061" stroke-miterlimit="10" stroke-linecap="square"/>
<path d="M50.5381 23.646V30.7229" stroke="#465061" stroke-miterlimit="10" stroke-linecap="square"/>
<path d="M93 23.646V30.7229" stroke="#465061" stroke-miterlimit="10" stroke-linecap="square"/>
<path d="M88.7534 7.01538V2C88.7534 1.44772 88.3057 1 87.7534 1H55.7842C55.2319 1 54.7842 1.44772 54.7842 2V7.01538" fill="#DBDFE7"/>
<path d="M88.7534 7.01538V2C88.7534 1.44772 88.3057 1 87.7534 1H55.7842C55.2319 1 54.7842 1.44772 54.7842 2V7.01538" stroke="#465061" stroke-miterlimit="10" stroke-linecap="square"/>
<path d="M53.3691 13.3847V8.90265C53.3691 7.67008 54.643 6.66162 56.1999 6.66162H68.9384C70.4953 6.66162 71.7691 7.67008 71.7691 8.90265V13.3847" fill="white"/>
<path d="M53.3691 13.3847V8.90265C53.3691 7.67008 54.643 6.66162 56.1999 6.66162H68.9384C70.4953 6.66162 71.7691 7.67008 71.7691 8.90265V13.3847" stroke="#465061" stroke-miterlimit="10" stroke-linecap="square"/>
<path d="M71.7686 13.3847V8.90265C71.7686 7.67008 73.0424 6.66162 74.5993 6.66162H87.3378C88.8947 6.66162 90.1686 7.67008 90.1686 8.90265V13.3847" fill="white"/>
<path d="M71.7686 13.3847V8.90265C71.7686 7.67008 73.0424 6.66162 74.5993 6.66162H87.3378C88.8947 6.66162 90.1686 7.67008 90.1686 8.90265V13.3847" stroke="#465061" stroke-miterlimit="10" stroke-linecap="square"/>
<path d="M90.9996 13.7383H52.5381C51.4335 13.7383 50.5381 14.6337 50.5381 15.7383V23.646H92.9996V15.7383C92.9996 14.6337 92.1042 13.7383 90.9996 13.7383Z" fill="#DBDFE7" stroke="#465061" stroke-miterlimit="10" stroke-linecap="square"/>
</svg>
